<svg width="16" height="17" viewBox="0 0 16 17" fill="none" xmlns="http://www.w3.org/2000/svg">
<path d="M11.8333 14.2127L11.0831 13.7793L8.08326 12.046L11.8333 14.2127ZM11.8333 14.2127V13.3463M11.8333 14.2127V13.3463M11.8333 13.3463V3.83301C11.8333 3.52359 11.7103 3.22684 11.4915 3.00805C11.2728 2.78926 10.976 2.66634 10.6666 2.66634H5.33326C5.02384 2.66634 4.72709 2.78926 4.5083 3.00805C4.28951 3.22684 4.16659 3.52359 4.16659 3.83301V13.3463V14.2127M11.8333 13.3463L4.16659 14.2127M4.16659 14.2127L4.91673 13.7793M4.16659 14.2127L4.91673 13.7793M4.91673 13.7793L7.91659 12.046C7.91662 12.046 7.91664 12.046 7.91667 12.046C7.91669 12.046 7.91671 12.046 7.91673 12.0459C7.94203 12.0314 7.97072 12.0237 7.99992 12.0237C8.02913 12.0237 8.05782 12.0314 8.08312 12.0459L4.91673 13.7793ZM3.83326 14.5017V14.4997V3.83301C3.83326 3.43518 3.99129 3.05365 4.2726 2.77235C4.5539 2.49104 4.93543 2.33301 5.33326 2.33301H10.6666C11.0644 2.33301 11.4459 2.49104 11.7273 2.77235C12.0086 3.05365 12.1666 3.43518 12.1666 3.83301L12.1666 14.4997L12.1666 14.5017C12.1667 14.531 12.1591 14.5599 12.1444 14.5854C12.1301 14.6103 12.1096 14.631 12.085 14.6457C12.06 14.6594 12.0319 14.6666 12.0034 14.6664L12.0034 14.6663L11.9965 14.6664C11.9677 14.6666 11.9395 14.6593 11.9144 14.6454L8.25019 12.5268L7.99992 12.3821L7.74965 12.5268L4.08326 14.6467C4.05792 14.6613 4.02918 14.669 3.99992 14.669C3.97067 14.669 3.94193 14.6613 3.91659 14.6467L3.67972 15.0569L3.91659 14.6467C3.89115 14.632 3.87005 14.6108 3.85542 14.5854C3.84078 14.5599 3.83314 14.531 3.83326 14.5017Z" fill="#73768C" stroke="#73768C"/>
</svg>
