<svg width="44" height="44" viewBox="0 0 44 44" fill="none" xmlns="http://www.w3.org/2000/svg">
<rect width="44" height="44" rx="12" fill="#F7F7F8"/>
<path fill-rule="evenodd" clip-rule="evenodd" d="M18.6667 13C15.5 13 14.8276 14.2137 14.0513 16.0769L12.7127 19.2894C11.7 19.7712 11 20.8039 11 22V25C11 26.3088 11.8381 27.4219 13.007 27.8318C13.0024 27.8872 13 27.9433 13 28V29C13 30.1046 13.8954 31 15 31C16.1046 31 17 30.1046 17 29V28H27V29C27 30.1046 27.8954 31 29 31C30.1046 31 31 30.1046 31 29V28C31 27.9433 30.9976 27.8872 30.993 27.8318C32.1619 27.4219 33 26.3088 33 25V22C33 20.7913 32.2852 19.7496 31.2553 19.2744L29.5 15.7639C28.653 14.07 28 13 25.0279 13H18.6667ZM29 26H30C30.5523 26 31 25.5523 31 25V22C31 21.4477 30.5523 21 30 21H14C13.4477 21 13 21.4477 13 22V25C13 25.5523 13.4477 26 14 26H15H29ZM28.882 19L27.7111 16.6584C27.6834 16.6029 27.6566 16.5485 27.6303 16.4953C27.1755 15.5738 26.8923 15 25.0279 15H18.6667C17 15 16.3632 15.7282 15.8974 16.8462L15 19H28.882ZM15.5 22.5C14.9477 22.5 14.5 22.9477 14.5 23.5C14.5 24.0523 14.9477 24.5 15.5 24.5H17C17.5523 24.5 18 24.0523 18 23.5C18 22.9477 17.5523 22.5 17 22.5H15.5ZM27 22.5C26.4477 22.5 26 22.9477 26 23.5C26 24.0523 26.4477 24.5 27 24.5H28.5C29.0523 24.5 29.5 24.0523 29.5 23.5C29.5 22.9477 29.0523 22.5 28.5 22.5H27Z" fill="#A33AA3"/>
</svg>
