<svg width="24" height="24" viewBox="0 0 24 24" fill="none" xmlns="http://www.w3.org/2000/svg">
<g clip-path="url(#clip0_5896_8058)">
<path fill-rule="evenodd" clip-rule="evenodd" d="M16.478 7.99264C16.1851 7.69975 15.7102 7.69975 15.4173 7.99264L12.2354 11.1746L9.05337 7.99264C8.76048 7.69975 8.2856 7.69975 7.99271 7.99264C7.69982 8.28553 7.69982 8.76041 7.99271 9.0533L11.1747 12.2353L7.99271 15.4173C7.69982 15.7102 7.69982 16.185 7.99271 16.4779C8.2856 16.7708 8.76048 16.7708 9.05337 16.4779L12.2354 13.2959L15.4173 16.4779C15.7102 16.7708 16.1851 16.7708 16.478 16.4779C16.7709 16.185 16.7709 15.7102 16.478 15.4173L13.296 12.2353L16.478 9.0533C16.7709 8.76041 16.7709 8.28553 16.478 7.99264Z" fill="#ABADBA"/>
</g>
<defs>
<clipPath id="clip0_5896_8058">
<rect width="15" height="15" fill="white" transform="translate(4.5 4.5)"/>
</clipPath>
</defs>
</svg>
