<svg width="13" height="11" viewBox="0 0 13 11" fill="none" xmlns="http://www.w3.org/2000/svg">
<path fill-rule="evenodd" clip-rule="evenodd" d="M11.9694 1.23648C11.5788 0.910908 10.9457 0.910909 10.5551 1.23648L6.3125 4.77346L2.06986 1.23648C1.67934 0.910908 1.04617 0.910908 0.655647 1.23648C0.265123 1.56205 0.265122 2.0899 0.655647 2.41547L4.89829 5.95246L0.655646 9.48945C0.265121 9.81502 0.265122 10.3429 0.655646 10.6684C1.04617 10.994 1.67934 10.994 2.06986 10.6684L6.3125 7.13146L10.5551 10.6684C10.9457 10.994 11.5788 10.994 11.9694 10.6684C12.3599 10.3429 12.3599 9.81502 11.9694 9.48945L7.72671 5.95246L11.9694 2.41547C12.3599 2.0899 12.3599 1.56205 11.9694 1.23648Z" fill="white"/>
</svg>
