<svg width="20" height="20" viewBox="0 0 20 20" fill="none" xmlns="http://www.w3.org/2000/svg">
<path d="M17.434 9.0629L17.4894 9.5H17.93H19C19.1326 9.5 19.2598 9.55268 19.3536 9.64645C19.4473 9.74021 19.5 9.86739 19.5 10C19.5 10.1326 19.4473 10.2598 19.3536 10.3536C19.2598 10.4473 19.1326 10.5 19 10.5H17.93H17.4894L17.434 10.9371C17.2247 12.5871 16.4729 14.1208 15.2969 15.2969C14.1208 16.4729 12.5871 17.2247 10.9371 17.434L10.5 17.4894V17.93V19C10.5 19.1326 10.4473 19.2598 10.3536 19.3536C10.2598 19.4473 10.1326 19.5 10 19.5C9.86739 19.5 9.74021 19.4473 9.64645 19.3536C9.55268 19.2598 9.5 19.1326 9.5 19V17.93V17.4894L9.0629 17.434C7.41288 17.2247 5.87922 16.4729 4.70314 15.2969C3.52705 14.1208 2.77527 12.5871 2.56603 10.9371L2.5106 10.5H2.07H1C0.867392 10.5 0.740215 10.4473 0.646446 10.3536C0.552678 10.2598 0.5 10.1326 0.5 10C0.5 9.86739 0.552678 9.74022 0.646446 9.64645C0.740215 9.55268 0.867392 9.5 1 9.5H2.07H2.5106L2.56603 9.0629C2.77527 7.41288 3.52705 5.87922 4.70314 4.70314C5.87922 3.52705 7.41288 2.77527 9.0629 2.56603L9.5 2.5106V2.07V1C9.5 0.867392 9.55268 0.740215 9.64645 0.646446C9.74022 0.552678 9.86739 0.5 10 0.5C10.1326 0.5 10.2598 0.552678 10.3536 0.646446C10.4473 0.740215 10.5 0.867392 10.5 1V2.07V2.5106L10.9371 2.56603C12.5871 2.77527 14.1208 3.52705 15.2969 4.70314C16.4729 5.87922 17.2247 7.41288 17.434 9.0629ZM8.61107 7.92133C9.0222 7.64662 9.50555 7.5 10 7.5C10.663 7.5 11.2989 7.76339 11.7678 8.23223C12.2366 8.70107 12.5 9.33696 12.5 10C12.5 10.4945 12.3534 10.9778 12.0787 11.3889C11.804 11.8 11.4135 12.1205 10.9567 12.3097C10.4999 12.4989 9.99723 12.5484 9.51227 12.452C9.02732 12.3555 8.58186 12.1174 8.23223 11.7678C7.8826 11.4181 7.6445 10.9727 7.54804 10.4877C7.45157 10.0028 7.50108 9.50011 7.6903 9.04329C7.87952 8.58648 8.19995 8.19603 8.61107 7.92133ZM9.16664 11.2472C9.41332 11.412 9.70333 11.5 10 11.5C10.3978 11.5 10.7794 11.342 11.0607 11.0607C11.342 10.7794 11.5 10.3978 11.5 10C11.5 9.70333 11.412 9.41332 11.2472 9.16664C11.0824 8.91997 10.8481 8.72771 10.574 8.61418C10.2999 8.50065 9.99834 8.47094 9.70736 8.52882C9.41639 8.5867 9.14912 8.72956 8.93934 8.93934C8.72956 9.14912 8.5867 9.41639 8.52882 9.70736C8.47094 9.99834 8.50065 10.2999 8.61418 10.574C8.72771 10.8481 8.91997 11.0824 9.16664 11.2472ZM6.38879 15.4046C7.45771 16.1188 8.71442 16.5 10 16.5C11.7239 16.5 13.3772 15.8152 14.5962 14.5962C15.8152 13.3772 16.5 11.7239 16.5 10C16.5 8.71442 16.1188 7.45771 15.4046 6.38879C14.6903 5.31987 13.6752 4.48675 12.4874 3.99478C11.2997 3.50281 9.99279 3.37409 8.73191 3.6249C7.47104 3.8757 6.31285 4.49476 5.40381 5.40381C4.49476 6.31285 3.8757 7.47104 3.6249 8.73191C3.37409 9.99279 3.50281 11.2997 3.99478 12.4874C4.48675 13.6752 5.31987 14.6903 6.38879 15.4046Z" fill="#73768C" stroke="#73768C"/>
</svg>
