<svg width="24" height="24" viewBox="0 0 24 24" fill="none" xmlns="http://www.w3.org/2000/svg">
<defs>
<linearGradient id="paint0_linear_1363_154820" x1="1" y1="21" x2="19.9028" y2="0.187061" gradientUnits="userSpaceOnUse">
<stop stop-color="#CF1E9E"/>
<stop offset="1" stop-color="#7F50B2"/>
</linearGradient>
</defs>
<path fill-rule="evenodd" clip-rule="evenodd" d="M8.66667 3C5.5 3 4.82763 4.21369 4.05128 6.07692L2.71273 9.28944C1.70002 9.77124 1 10.8039 1 12V15C1 16.3088 1.83814 17.4219 3.00698 17.8318C3.00236 17.8872 3 17.9433 3 18V19C3 20.1046 3.89543 21 5 21C6.10457 21 7 20.1046 7 19V18H17V19C17 20.1046 17.8954 21 19 21C20.1046 21 21 20.1046 21 19V18C21 17.9433 20.9976 17.8872 20.993 17.8318C22.1619 17.4219 23 16.3088 23 15V12C23 10.7913 22.2852 9.74957 21.2553 9.27444L19.5 5.76393C18.653 4.07001 18 3 15.0279 3H8.66667ZM19 16H20C20.5523 16 21 15.5523 21 15V12C21 11.4477 20.5523 11 20 11H4C3.44772 11 3 11.4477 3 12V15C3 15.5523 3.44772 16 4 16H5H19ZM18.882 9L17.7111 6.65836C17.6834 6.60287 17.6566 6.5485 17.6303 6.49529C17.1755 5.57382 16.8923 5 15.0279 5H8.66667C7 5 6.36324 5.72821 5.89744 6.84615L5 9H18.882ZM5.5 12.5C4.94772 12.5 4.5 12.9477 4.5 13.5C4.5 14.0523 4.94772 14.5 5.5 14.5H7C7.55228 14.5 8 14.0523 8 13.5C8 12.9477 7.55228 12.5 7 12.5H5.5ZM17 12.5C16.4477 12.5 16 12.9477 16 13.5C16 14.0523 16.4477 14.5 17 14.5H18.5C19.0523 14.5 19.5 14.0523 19.5 13.5C19.5 12.9477 19.0523 12.5 18.5 12.5H17Z" fill="url(#paint0_linear_1363_154820)"/>
</svg>
