<svg fill="none" height="20" viewBox="0 0 21 20" width="21" xmlns="http://www.w3.org/2000/svg"><path d="m17.9406 10.9994c-.22 0-.45-.07-.67-.12-.4455-.0982-.8833-.2285-1.31-.39-.4639-.1688-.9739-.16-1.4317.0246s-.8312.532-1.0483.9754l-.22.45c-.974-.5418-1.869-1.2148-2.66-2.00002-.78524-.79098-1.45819-1.686-2.00001-2.66l.42-.28c.44336-.21708.79078-.59047.97539-1.04831.18462-.45784.19342-.96778.02462-1.43169-.15879-.42758-.28907-.8652-.39001-1.31-.05-.22-.09-.45-.12-.68-.12144-.70438-.49038-1.34226-1.04038-1.798761-.55-.456502-1.24492-.7016303-1.95962-.6912392h-3c-.43097-.0040465-.85775.0848132-1.25129.2605302s-.7446.434166-1.02928.75775c-.28468.32359-.496296.70471-.620443 1.11743-.124146.41272-.157909.84735-.098988 1.27429.532741 4.18938 2.446031 8.08192 5.437651 11.06262 2.99163 2.9808 6.89106 4.8799 11.08236 5.3974h.38c.7374.0011 1.4494-.2695 2-.76.3164-.283.5691-.6298.7415-1.0177.1723-.3879.2605-.8079.2585-1.2323v-3c-.0123-.6946-.2652-1.3635-.7157-1.8924-.4504-.5288-1.0705-.885-1.7543-1.0076zm.5 6c-.0002.142-.0306.2823-.0892.4116-.0587.1293-.1441.2447-.2508.3384-.1117.0965-.2424.1685-.3836.2116-.1412.043-.2899.0561-.4364.0384-3.7451-.4802-7.2238-2.1935-9.88729-4.8697-2.66353-2.6762-4.36031-6.16298-4.82272-9.91032-.01592-.14648-.00197-.29467.041-.43561s.11407-.2717.209-.38439c.09371-.10667.20906-.19216.33838-.25078.12932-.05863.26963-.08904.41162-.08922h3c.23255-.00517.45962.07088.64214.21507s.30907.3475.35786.57493c.04.27333.09.54333.15.81.11552.52714.26926 1.04518.46 1.55l-1.4.65c-.1197.05492-.22738.13295-.31684.2296-.08947.09664-.15896.21001-.20449.33359s-.0662.25494-.06082.38653c.00537.13159.03669.26082.09215.38028 1.4392 3.08272 3.91721 5.56082 7.00001 7.00002.2435.1.5165.1.76 0 .1247-.0446.2393-.1136.3372-.2028.0978-.0893.177-.1971.2328-.3172l.62-1.4c.517.1849 1.0446.3385 1.58.46.2667.06.5367.11.81.15.2274.0488.4307.1753.5749.3578.1442.1826.2203.4096.2151.6422z" fill="#454754"/></svg>