<svg width="16" height="18" viewBox="0 0 16 18" fill="none" xmlns="http://www.w3.org/2000/svg">
<path d="M9.47321 14.2082H10.2768C10.3833 14.2082 10.4855 14.167 10.5609 14.0938C10.6362 14.0205 10.6786 13.9211 10.6786 13.8175V6.7863C10.6786 6.6827 10.6362 6.58334 10.5609 6.51008C10.4855 6.43683 10.3833 6.39567 10.2768 6.39567H9.47321C9.36665 6.39567 9.26446 6.43683 9.18911 6.51008C9.11376 6.58334 9.07143 6.6827 9.07143 6.7863V13.8175C9.07143 13.9211 9.11376 14.0205 9.18911 14.0938C9.26446 14.167 9.36665 14.2082 9.47321 14.2082ZM14.9643 3.27067H12.205L11.0666 1.42497C10.9238 1.19353 10.7217 1.00202 10.48 0.869094C10.2384 0.736173 9.96547 0.666376 9.68783 0.666504H6.31216C6.03465 0.666488 5.76185 0.736339 5.52035 0.869254C5.27884 1.00217 5.07685 1.19362 4.93404 1.42497L3.79498 3.27067H1.03571C0.893634 3.27067 0.757373 3.32554 0.656907 3.42322C0.556441 3.52089 0.5 3.65337 0.5 3.7915L0.5 4.31234C0.5 4.45047 0.556441 4.58295 0.656907 4.68062C0.757373 4.7783 0.893634 4.83317 1.03571 4.83317H1.57143V15.7707C1.57143 16.1851 1.74075 16.5825 2.04215 16.8755C2.34355 17.1686 2.75233 17.3332 3.17857 17.3332H12.8214C13.2477 17.3332 13.6565 17.1686 13.9578 16.8755C14.2592 16.5825 14.4286 16.1851 14.4286 15.7707V4.83317H14.9643C15.1064 4.83317 15.2426 4.7783 15.3431 4.68062C15.4436 4.58295 15.5 4.45047 15.5 4.31234V3.7915C15.5 3.65337 15.4436 3.52089 15.3431 3.42322C15.2426 3.32554 15.1064 3.27067 14.9643 3.27067ZM6.25357 2.32373C6.27148 2.29476 6.29681 2.2708 6.32709 2.25419C6.35737 2.23759 6.39157 2.22891 6.42634 2.229H9.57366C9.60837 2.22897 9.6425 2.23767 9.67272 2.25427C9.70294 2.27087 9.72822 2.2948 9.74609 2.32373L10.3307 3.27067H5.66931L6.25357 2.32373ZM12.8214 15.7707H3.17857V4.83317H12.8214V15.7707ZM5.72321 14.2082H6.52679C6.63335 14.2082 6.73554 14.167 6.81089 14.0938C6.88624 14.0205 6.92857 13.9211 6.92857 13.8175V6.7863C6.92857 6.6827 6.88624 6.58334 6.81089 6.51008C6.73554 6.43683 6.63335 6.39567 6.52679 6.39567H5.72321C5.61665 6.39567 5.51446 6.43683 5.43911 6.51008C5.36376 6.58334 5.32143 6.6827 5.32143 6.7863V13.8175C5.32143 13.9211 5.36376 14.0205 5.43911 14.0938C5.51446 14.167 5.61665 14.2082 5.72321 14.2082Z" fill="#A33AA3"/>
</svg>
