<svg width="16" height="16" viewBox="0 0 16 16" fill="none" xmlns="http://www.w3.org/2000/svg">
<path d="M7.15757 9.36766L6.46821 9.6631L7.15757 9.36766ZM6.63234 8.84243L6.3369 9.53179L6.63234 8.84243ZM13.1026 1.63246L12.8655 0.920943L13.1026 1.63246ZM2.41754 7.03609L2.1221 7.72545L2.41754 7.03609ZM2.7324 5.87977L13.3398 2.34397L12.8655 0.920943L2.25806 4.45675L2.7324 5.87977ZM13.656 2.6602L10.1202 13.2676L11.5433 13.7419L15.0791 3.13454L13.656 2.6602ZM9.65327 13.287L7.84693 9.07222L6.46821 9.6631L8.27456 13.8779L9.65327 13.287ZM6.92778 8.15307L2.71298 6.34673L2.1221 7.72545L6.3369 9.53179L6.92778 8.15307ZM7.84693 9.07222C7.66992 8.65919 7.34081 8.33008 6.92778 8.15307L6.3369 9.53179C6.39591 9.55708 6.44292 9.60409 6.46821 9.6631L7.84693 9.07222ZM10.1202 13.2676C10.0475 13.4857 9.74383 13.4983 9.65327 13.287L8.27456 13.8779C8.90843 15.3569 11.0344 15.2685 11.5433 13.7419L10.1202 13.2676ZM13.3398 2.34397C13.5352 2.27882 13.7212 2.46475 13.656 2.6602L15.0791 3.13454C15.5351 1.76646 14.2335 0.464916 12.8655 0.920943L13.3398 2.34397ZM2.25806 4.45675C0.731474 4.96561 0.643052 7.09157 2.1221 7.72545L2.71298 6.34673C2.50168 6.25617 2.51432 5.95246 2.7324 5.87977L2.25806 4.45675Z" fill="#A33AA3"/>
</svg>
