<svg width="16" height="16" viewBox="0 0 16 16" fill="none" xmlns="http://www.w3.org/2000/svg">
<path d="M7.49218 7.74816C7.74871 8.05791 8.25129 8.05791 8.50782 7.74816L13.8658 1.27883C14.1902 0.887137 13.8898 0.319808 13.358 0.319808H2.64204C2.11023 0.319808 1.80982 0.887136 2.13422 1.27883L7.49218 7.74816Z" fill="#D4F1E0"/>
<path d="M7.51453 10.4154C7.77009 10.6897 8.22787 10.6897 8.48343 10.4154L13.7407 4.77294C14.1001 4.38716 13.8053 3.78732 13.2562 3.78732H2.74172C2.19265 3.78732 1.89782 4.38716 2.25727 4.77294L7.51453 10.4154Z" fill="#A9E2C1"/>
<path d="M7.49218 15.088C7.74871 15.3978 8.25129 15.3978 8.50782 15.088L13.8658 8.61867C14.1902 8.22698 13.8898 7.65965 13.358 7.65965H2.64204C2.11023 7.65965 1.80982 8.22698 2.13422 8.61867L7.49218 15.088Z" fill="#6FCF97"/>
</svg>
