<svg width="18" height="18" viewBox="0 0 18 18" fill="none" xmlns="http://www.w3.org/2000/svg">
<path d="M16.4998 8.99979C16.2788 8.99979 16.0669 9.08758 15.9106 9.24387C15.7543 9.40014 15.6665 9.61211 15.6665 9.83312V14.8331C15.6665 15.0541 15.5787 15.2661 15.4224 15.4224C15.2661 15.5787 15.0542 15.6665 14.8332 15.6665H3.1665C2.94549 15.6665 2.73353 15.5787 2.57725 15.4224C2.42097 15.2661 2.33317 15.0541 2.33317 14.8331V3.16645C2.33317 2.94544 2.42097 2.73348 2.57725 2.5772C2.73353 2.42092 2.94549 2.33312 3.1665 2.33312H8.1665C8.38752 2.33312 8.59948 2.24532 8.75576 2.08904C8.91204 1.93276 8.99984 1.7208 8.99984 1.49979C8.99984 1.27877 8.91204 1.06681 8.75576 0.910531C8.59948 0.75425 8.38752 0.666453 8.1665 0.666453H3.1665C2.50346 0.666453 1.86758 0.929845 1.39874 1.39869C0.929896 1.86753 0.666504 2.50341 0.666504 3.16645V14.8331C0.666504 15.4962 0.929896 16.132 1.39874 16.6009C1.86758 17.0697 2.50346 17.3331 3.1665 17.3331H14.8332C15.4962 17.3331 16.1321 17.0697 16.6009 16.6009C17.0698 16.132 17.3332 15.4962 17.3332 14.8331V9.83312C17.3332 9.61211 17.2454 9.40014 17.0891 9.24387C16.9328 9.08758 16.7209 8.99979 16.4998 8.99979ZM3.99984 9.63312V13.1665C3.99984 13.3875 4.08764 13.5994 4.24392 13.7557C4.4002 13.912 4.61216 13.9998 4.83317 13.9998H8.3665C8.47618 14.0004 8.58489 13.9794 8.68643 13.9379C8.78796 13.8965 8.8803 13.8354 8.95817 13.7581L14.7248 7.98312L17.0915 5.66645C17.1696 5.58898 17.2316 5.49682 17.2739 5.39527C17.3162 5.29372 17.338 5.1848 17.338 5.07479C17.338 4.96478 17.3162 4.85586 17.2739 4.75431C17.2316 4.65276 17.1696 4.56059 17.0915 4.48312L13.5582 0.90812C13.4807 0.830013 13.3885 0.768017 13.287 0.72571C13.1854 0.683403 13.0765 0.661621 12.9665 0.661621C12.8565 0.661621 12.7476 0.683403 12.646 0.72571C12.5445 0.768017 12.4523 0.830013 12.3748 0.90812L10.0248 3.26645L4.2415 9.04145C4.16427 9.11932 4.10317 9.21167 4.06169 9.3132C4.02022 9.41473 3.9992 9.52345 3.99984 9.63312ZM12.9665 2.67479L15.3248 5.03312L14.1415 6.21645L11.7832 3.85812L12.9665 2.67479ZM5.6665 9.97479L10.6082 5.03312L12.9665 7.39145L8.02484 12.3331H5.6665V9.97479Z" fill="#A33AA3"/>
</svg>
