<svg width="20" height="20" viewBox="0 0 20 20" fill="none" xmlns="http://www.w3.org/2000/svg">
    <path d="M17.4998 10.0003C17.2788 10.0003 17.0669 10.0881 16.9106 10.2444C16.7543 10.4006 16.6665 10.6126 16.6665 10.8336V15.8336C16.6665 16.0546 16.5787 16.2666 16.4224 16.4229C16.2661 16.5791 16.0542 16.6669 15.8332 16.6669H4.1665C3.94549 16.6669 3.73353 16.5791 3.57725 16.4229C3.42097 16.2666 3.33317 16.0546 3.33317 15.8336V4.16694C3.33317 3.94593 3.42097 3.73397 3.57725 3.57769C3.73353 3.42141 3.94549 3.33361 4.1665 3.33361H9.1665C9.38752 3.33361 9.59948 3.24581 9.75576 3.08953C9.91204 2.93325 9.99984 2.72129 9.99984 2.50027C9.99984 2.27926 9.91204 2.0673 9.75576 1.91102C9.59948 1.75474 9.38752 1.66694 9.1665 1.66694H4.1665C3.50346 1.66694 2.86758 1.93033 2.39874 2.39917C1.9299 2.86802 1.6665 3.5039 1.6665 4.16694V15.8336C1.6665 16.4966 1.9299 17.1325 2.39874 17.6014C2.86758 18.0702 3.50346 18.3336 4.1665 18.3336H15.8332C16.4962 18.3336 17.1321 18.0702 17.6009 17.6014C18.0698 17.1325 18.3332 16.4966 18.3332 15.8336V10.8336C18.3332 10.6126 18.2454 10.4006 18.0891 10.2444C17.9328 10.0881 17.7209 10.0003 17.4998 10.0003ZM4.99984 10.6336V14.1669C4.99984 14.388 5.08763 14.5999 5.24392 14.7562C5.4002 14.9125 5.61216 15.0003 5.83317 15.0003H9.3665C9.47618 15.0009 9.58489 14.9799 9.68643 14.9384C9.78796 14.8969 9.8803 14.8358 9.95817 14.7586L15.7248 8.98361L18.0915 6.66694C18.1696 6.58947 18.2316 6.4973 18.2739 6.39576C18.3162 6.29421 18.338 6.18528 18.338 6.07527C18.338 5.96526 18.3162 5.85634 18.2739 5.75479C18.2316 5.65324 18.1696 5.56108 18.0915 5.48361L14.5582 1.90861C14.4807 1.8305 14.3885 1.76851 14.287 1.7262C14.1854 1.68389 14.0765 1.66211 13.9665 1.66211C13.8565 1.66211 13.7476 1.68389 13.646 1.7262C13.5445 1.76851 13.4523 1.8305 13.3748 1.90861L11.0248 4.26694L5.2415 10.0419C5.16427 10.1198 5.10317 10.2122 5.06169 10.3137C5.02022 10.4152 4.9992 10.5239 4.99984 10.6336V10.6336ZM13.9665 3.67527L16.3248 6.03361L15.1415 7.21694L12.7832 4.85861L13.9665 3.67527ZM6.6665 10.9753L11.6082 6.03361L13.9665 8.39194L9.02484 13.3336H6.6665V10.9753Z" fill="#A33AA3" />
</svg>