<svg width="117" height="78" viewBox="0 0 117 78" fill="none" xmlns="http://www.w3.org/2000/svg">
    <defs>
        <radialGradient id="paint0_radial_3556_220001" cx="0" cy="0" r="1" gradientUnits="userSpaceOnUse" gradientTransform="translate(59.3017 72.0073) rotate(90.1195) scale(5.15942 57.9842)">
            <stop offset="0.41399" stop-color="#C8C8C8" stop-opacity="0.59"/>
            <stop offset="1" stop-color="#9E9E9E" stop-opacity="0"/>
        </radialGradient>
        <linearGradient id="paint1_linear_3556_220001" x1="17.4206" y1="50.1543" x2="7.73138" y2="59.7278" gradientUnits="userSpaceOnUse">
            <stop offset="0.0990896" stop-color="#717280"/>
            <stop offset="1" stop-color="#AEB0BF"/>
        </linearGradient>
        <linearGradient id="paint2_linear_3556_220001" x1="-3.51166" y1="48.4928" x2="12.5473" y2="45.8097" gradientUnits="userSpaceOnUse">
            <stop offset="0.131445" stop-color="#C4C5D0" stop-opacity="0"/>
            <stop offset="0.788734" stop-color="#DADAE1"/>
        </linearGradient>
        <linearGradient id="paint3_linear_3556_220001" x1="2.09121" y1="52.5174" x2="6.31309" y2="65.4592" gradientUnits="userSpaceOnUse">
            <stop offset="0.131445" stop-color="#C4C5D0" stop-opacity="0"/>
            <stop offset="0.921062" stop-color="#BDBECA"/>
        </linearGradient>
        <linearGradient id="paint4_linear_3556_220001" x1="43.4826" y1="42.0991" x2="43.4826" y2="61.867" gradientUnits="userSpaceOnUse">
            <stop offset="0.0725005" stop-color="#C4C5D0" stop-opacity="0"/>
            <stop offset="0.130518" stop-color="#DADAE1"/>
        </linearGradient>
        <linearGradient id="paint5_linear_3556_220001" x1="43.4826" y1="42.0978" x2="43.8772" y2="77.9245" gradientUnits="userSpaceOnUse">
            <stop offset="0.157891" stop-color="white" stop-opacity="0"/>
            <stop offset="0.593395" stop-color="#B0B0BC"/>
        </linearGradient>
        <linearGradient id="paint6_linear_3556_220001" x1="65.8009" y1="50.1568" x2="56.0669" y2="59.8285" gradientUnits="userSpaceOnUse">
            <stop offset="0.0990896" stop-color="#717280"/>
            <stop offset="1" stop-color="#AEB0BF"/>
        </linearGradient>
        <linearGradient id="paint7_linear_3556_220001" x1="69.9577" y1="59.6963" x2="71.3437" y2="41.7082" gradientUnits="userSpaceOnUse">
            <stop stop-color="#D5D5E3"/>
            <stop offset="0.75806" stop-color="#FAFAFB"/>
        </linearGradient>
        <linearGradient id="paint8_linear_3556_220001" x1="81.7553" y1="67.5088" x2="82.4727" y2="48.1724" gradientUnits="userSpaceOnUse">
            <stop stop-color="#9191A5"/>
            <stop offset="0.563418" stop-color="#FAFAFA" stop-opacity="0"/>
        </linearGradient>
        <linearGradient id="paint9_linear_3556_220001" x1="95.4145" y1="47.6045" x2="89.6492" y2="37.7024" gradientUnits="userSpaceOnUse">
            <stop offset="0.138354" stop-color="#C4C5D0" stop-opacity="0"/>
            <stop offset="0.692475" stop-color="#A5A8B2"/>
        </linearGradient>
        <linearGradient id="paint10_linear_3556_220001" x1="116.24" y1="46.9917" x2="109.912" y2="41.7435" gradientUnits="userSpaceOnUse">
            <stop offset="0.085626" stop-color="#C4C7D0" stop-opacity="0"/>
            <stop offset="0.593954" stop-color="#A5A8B2"/>
        </linearGradient>
        <linearGradient id="paint11_linear_3556_220001" x1="23.5149" y1="42.4922" x2="15.0327" y2="51.292" gradientUnits="userSpaceOnUse">
            <stop offset="0.129664" stop-color="#333B3F"/>
            <stop offset="0.726197" stop-color="white" stop-opacity="0.38"/>
        </linearGradient>
        <linearGradient id="paint12_linear_3556_220001" x1="18.4653" y1="46.7535" x2="24.9756" y2="46.7929" gradientUnits="userSpaceOnUse">
            <stop offset="0.129664" stop-color="#7D8184"/>
            <stop offset="0.726197" stop-color="white" stop-opacity="0.38"/>
        </linearGradient>
        <linearGradient id="paint13_linear_3556_220001" x1="39.3752" y1="42.4922" x2="30.893" y2="51.292" gradientUnits="userSpaceOnUse">
            <stop offset="0.129664" stop-color="#333B3F"/>
            <stop offset="0.726197" stop-color="white" stop-opacity="0.38"/>
        </linearGradient>
        <linearGradient id="paint14_linear_3556_220001" x1="34.3256" y1="46.7535" x2="40.836" y2="46.7929" gradientUnits="userSpaceOnUse">
            <stop offset="0.129664" stop-color="#7D8184"/>
            <stop offset="0.726197" stop-color="white" stop-opacity="0.38"/>
        </linearGradient>
        <radialGradient id="paint15_radial_3556_220001" cx="0" cy="0" r="1" gradientUnits="userSpaceOnUse" gradientTransform="translate(71.4173 35.9441) rotate(125.028) scale(10.3114 84.5823)">
            <stop offset="0.104127" stop-color="#303030" stop-opacity="0.27"/>
            <stop offset="0.629175" stop-color="#4D4E59"/>
        </radialGradient>
        <linearGradient id="paint16_linear_3556_220001" x1="56.6611" y1="66.5329" x2="43.1178" y2="39.3875" gradientUnits="userSpaceOnUse">
            <stop stop-color="#CF1E9E"/>
            <stop offset="1" stop-color="#7F50B2"/>
        </linearGradient>
        <linearGradient id="paint17_linear_3556_220001" x1="75.5639" y1="42.521" x2="74.0256" y2="21.5288" gradientUnits="userSpaceOnUse">
            <stop stop-color="#A474A8"/>
            <stop offset="1" stop-color="white" stop-opacity="0"/>
        </linearGradient>
        <linearGradient id="paint18_linear_3556_220001" x1="65.9293" y1="29.4125" x2="71.5338" y2="28.7857" gradientUnits="userSpaceOnUse">
            <stop stop-color="#CF1E9E"/>
            <stop offset="1" stop-color="#7F50B2"/>
        </linearGradient>
        <linearGradient id="paint19_linear_3556_220001" x1="42.2383" y1="42.3245" x2="63.3222" y2="4.26407" gradientUnits="userSpaceOnUse">
            <stop stop-color="#CF1E9E"/>
            <stop offset="1" stop-color="#7F50B2"/>
        </linearGradient>
        <linearGradient id="paint20_linear_3556_220001" x1="50.4244" y1="41.3921" x2="57.2913" y2="-0.38842" gradientUnits="userSpaceOnUse">
            <stop stop-color="#D1145A" stop-opacity="0.37"/>
            <stop offset="1" stop-color="white" stop-opacity="0"/>
        </linearGradient>
        <linearGradient id="paint21_linear_3556_220001" x1="51.8036" y1="29.3701" x2="54.0507" y2="27.3456" gradientUnits="userSpaceOnUse">
            <stop stop-color="#CF1E9E"/>
            <stop offset="1" stop-color="#7F50B2"/>
        </linearGradient>
        <linearGradient id="paint22_linear_3556_220001" x1="48.3713" y1="25.004" x2="57.2227" y2="18.9239" gradientUnits="userSpaceOnUse">
            <stop stop-color="#CF1E9E"/>
            <stop offset="1" stop-color="#7F50B2"/>
        </linearGradient>
    </defs>
<path d="M59.3017 77.1367C91.1389 77.1367 116.948 74.8402 116.948 72.0073C116.948 69.1744 91.1389 66.8779 59.3017 66.8779C27.4644 66.8779 1.65527 69.1744 1.65527 72.0073C1.65527 74.8402 27.4644 77.1367 59.3017 77.1367Z" fill="url(#paint0_radial_3556_220001)"/>
<path d="M52.4652 69.2446C55.5223 69.2446 58.0012 64.3337 58.0012 58.2756C58.0012 52.2175 55.5223 47.3066 52.4652 47.3066H45.375V69.2446H52.4652Z" fill="#2F3140"/>
<path d="M45.2964 69.2446C48.3472 69.2446 50.8204 64.3336 50.8204 58.2756C50.8204 52.2176 48.3472 47.3066 45.2964 47.3066C42.2456 47.3066 39.7725 52.2176 39.7725 58.2756C39.7725 64.3336 42.2456 69.2446 45.2964 69.2446Z" fill="#2F3140"/>
<path d="M102.098 68.929C105.115 68.929 107.558 64.0887 107.558 58.1178C107.558 52.1469 105.124 47.3066 102.098 47.3066H95.0898V68.929H102.098Z" fill="#2F3140"/>
<path d="M95.0915 68.929C98.0987 68.929 100.537 64.0886 100.537 58.1178C100.537 52.147 98.0987 47.3066 95.0915 47.3066C92.0843 47.3066 89.6465 52.147 89.6465 58.1178C89.6465 64.0886 92.0843 68.929 95.0915 68.929Z" fill="#2F3140"/>
<path d="M12.0573 66.5597L7.60827 65.4632C6.85528 65.2792 6.15177 64.9324 5.54731 64.4471C4.94285 63.9619 4.45214 63.35 4.10973 62.6546C3.80626 62.0411 3.38729 61.4918 2.87579 61.037L1.78214 60.0636C1.15757 59.5075 0.672902 58.812 0.367476 58.0335C0.0620512 57.255 -0.0555279 56.4155 0.024281 55.5831L0.625503 49.2846C0.725908 48.2284 1.13998 47.2265 1.81447 46.4076C2.48896 45.5887 3.39301 44.9904 4.41034 44.6895L7.59109 43.7504L19.0658 42.9316L12.0573 66.5597Z" fill="#F7F7F9"/>
<path d="M20.1487 69.1657C23.1844 69.1657 25.6459 64.2725 25.6459 58.2362C25.6459 52.1999 23.1844 47.3066 20.1487 47.3066H13.0986V69.1657H20.1487Z" fill="#2F3140"/>
<path d="M13.02 69.1657C16.0708 69.1657 18.544 64.2724 18.544 58.2362C18.544 52.2 16.0708 47.3066 13.02 47.3066C9.96925 47.3066 7.49609 52.2 7.49609 58.2362C7.49609 64.2724 9.96925 69.1657 13.02 69.1657Z" fill="#2F3140"/>
<path d="M13.0201 66.8788C15.1556 66.8788 16.8869 63.01 16.8869 58.2377C16.8869 53.4654 15.1556 49.5967 13.0201 49.5967C10.8845 49.5967 9.15332 53.4654 9.15332 58.2377C9.15332 63.01 10.8845 66.8788 13.0201 66.8788Z" fill="url(#paint1_linear_3556_220001)"/>
<path d="M79.3125 66.5621L90.5296 41.494C90.5296 41.494 73.7469 29 52.4521 29C17.9391 29 19.1244 33.6523 7.5752 43.7528L12.6169 47.3087C21.5865 47.3087 22.3338 61.5261 23.7824 65.5257C23.8896 65.8288 24.0881 66.0912 24.3506 66.2768C24.6132 66.4625 24.9268 66.5621 25.2483 66.5621H79.3125Z" fill="#F7F7F9"/>
<path d="M9.11452 65.9722C8.36153 65.7882 6.15177 64.9358 5.54731 64.4506C4.94285 63.9653 4.45214 63.3534 4.10973 62.658C3.80626 62.0445 3.38729 61.4953 2.87579 61.0405L1.78214 60.067C1.15757 59.511 0.672902 58.8154 0.367476 58.037C0.0620512 57.2585 -0.0555279 56.419 0.024281 55.5865L0.625503 49.288C0.725908 48.2319 1.13998 47.2299 1.81447 46.411C2.48896 45.5922 3.39301 44.9938 4.41034 44.6929L6.03689 44.2314L16.3351 47.5458C16.3351 47.5458 10.535 45.06 8.32539 52.4779C6.03689 60.3298 9.11452 65.9722 9.11452 65.9722Z" fill="url(#paint2_linear_3556_220001)"/>
<path d="M9.11452 65.9722C8.36153 65.7882 6.15177 64.9358 5.54731 64.4506C4.94285 63.9653 4.45214 63.3534 4.10973 62.658C3.80626 62.0445 3.38729 61.4953 2.87579 61.0405L1.78214 60.067C1.15757 59.511 0.672902 58.8154 0.367476 58.037C0.0620512 57.2585 -0.0555279 56.419 0.024281 55.5865L0.625503 49.288C0.725908 48.2319 1.13998 47.2299 1.81447 46.411C2.48896 45.5922 3.39301 44.9938 4.41034 44.6929L6.03689 44.2314L16.3351 47.5458C16.3351 47.5458 10.5744 45.0995 8.28593 52.5568C6.07635 59.9353 9.11452 65.9722 9.11452 65.9722Z" fill="url(#paint3_linear_3556_220001)"/>
<path d="M79.3125 66.5616L66.6832 42.9277L7.57521 43.7524L6.03809 44.2298L12.6169 47.3082C21.5865 47.3082 22.3338 61.5256 23.7824 65.5252C23.8896 65.8283 24.0881 66.0908 24.3506 66.2764C24.6132 66.462 24.9268 66.5616 25.2483 66.5616H79.3125Z" fill="url(#paint4_linear_3556_220001)"/>
<path d="M79.3125 66.5602L66.8016 43.1631L7.57521 43.751L6.03809 44.2284L12.6169 47.3068C21.5865 47.3068 22.3338 61.5243 23.7824 65.5238C23.8896 65.8269 24.0881 66.0894 24.3506 66.275C24.6132 66.4606 24.9268 66.5602 25.2483 66.5602H79.3125Z" fill="url(#paint5_linear_3556_220001)"/>
<path d="M68.4914 69.2446C71.5462 69.2446 74.0207 64.3337 74.0207 58.2756C74.0207 52.2175 71.5462 47.3066 68.4914 47.3066H61.3945V69.2446H68.4914Z" fill="#2F3140"/>
<path d="M61.3554 69.2446C64.428 69.2446 66.9188 64.3336 66.9188 58.2756C66.9188 52.2176 64.428 47.3066 61.3554 47.3066C58.2828 47.3066 55.792 52.2176 55.792 58.2756C55.792 64.3336 58.2828 69.2446 61.3554 69.2446Z" fill="#2F3140"/>
<path d="M61.3554 66.9577C63.5128 66.9577 65.2617 63.0713 65.2617 58.2772C65.2617 53.4831 63.5128 49.5967 61.3554 49.5967C59.1981 49.5967 57.4492 53.4831 57.4492 58.2772C57.4492 63.0713 59.1981 66.9577 61.3554 66.9577Z" fill="url(#paint6_linear_3556_220001)"/>
<path d="M70.7863 64.5495C69.7527 59.8542 68.5422 47.3069 62.6187 47.3069L58.9492 41.4844H90.5291C93.0371 41.4844 104.177 43.0246 110.49 47.2991C115.589 50.7518 116.216 55.9939 116.949 63.6523C117.1 65.2155 115.732 66.5582 114.003 66.5611C99.4873 66.5611 79.3128 66.5418 72.9169 66.5618C71.5055 66.5761 71.064 65.8063 70.7863 64.5495Z" fill="url(#paint7_linear_3556_220001)"/>
<path d="M70.7863 64.5495C69.7527 59.8542 68.5422 47.3069 62.6187 47.3069L58.9492 41.4844H90.5291C93.0371 41.4844 104.177 43.0246 110.49 47.2991C115.589 50.7518 116.216 55.9939 116.949 63.6523C117.1 65.2155 115.732 66.5582 114.003 66.5611C99.4873 66.5611 79.3522 66.5418 72.9564 66.5618C71.5449 66.5761 71.064 65.8063 70.7863 64.5495Z" fill="url(#paint8_linear_3556_220001)"/>
<path d="M89.8488 47.4413L72.5278 46.5996C72.5278 46.5996 72.3503 49.6687 78.7691 50.3215C82.685 50.6803 86.6034 49.6618 89.8488 47.4413Z" fill="url(#paint9_linear_3556_220001)"/>
<path opacity="0.3" d="M0.621992 49.2844C0.67052 48.7811 0.79104 48.2875 0.979863 47.8185L2.15368 47.7842C2.15368 47.7842 2.20807 52.2876 0.507473 52.0042C0.460017 51.9958 0.413157 51.9843 0.367188 51.9698L0.621992 49.2844Z" fill="black"/>
<path d="M108.783 46.2773C109.368 46.5911 109.936 46.9342 110.487 47.3051C111.323 47.8664 112.087 48.5279 112.763 49.2749C112.521 49.3431 112.275 49.3985 112.027 49.4409C108.182 50.1023 105.388 46.5522 105.388 46.5522L108.783 46.2773Z" fill="url(#paint10_linear_3556_220001)"/>
<path d="M24.1693 46.9902H19.2611L19.1357 47.2642C19.0967 47.3244 19.086 47.3888 19.1046 47.4517C19.1232 47.5146 19.1705 47.5741 19.2423 47.625C19.3141 47.6758 19.4082 47.7164 19.5164 47.7433C19.6245 47.7701 19.7434 47.7823 19.8624 47.7788H22.818C23.0945 47.7718 23.3598 47.7183 23.5759 47.6259C23.7919 47.5334 23.9477 47.4068 24.0208 47.2642L24.1693 46.9902Z" fill="url(#paint11_linear_3556_220001)"/>
<path d="M19.2621 46.9902H24.1699L24.3432 46.7162C24.3828 46.656 24.3936 46.5916 24.3748 46.5287C24.3559 46.4658 24.3078 46.4063 24.2349 46.3555C24.162 46.3046 24.0664 46.264 23.9565 46.2372C23.8467 46.2104 23.726 46.1982 23.6051 46.2017H20.6033C20.3225 46.2086 20.0531 46.2622 19.8336 46.3546C19.6142 46.447 19.456 46.5736 19.3818 46.7162L19.2621 46.9902Z" fill="url(#paint12_linear_3556_220001)"/>
<path d="M40.0296 46.9902H35.1214L34.996 47.2642C34.957 47.3244 34.9464 47.3888 34.9649 47.4517C34.9835 47.5146 35.0308 47.5741 35.1026 47.625C35.1745 47.6758 35.2686 47.7164 35.3767 47.7433C35.4849 47.7701 35.6037 47.7823 35.7228 47.7788H38.6784C38.9549 47.7718 39.2202 47.7183 39.4362 47.6259C39.6523 47.5334 39.808 47.4068 39.8811 47.2642L40.0296 46.9902Z" fill="url(#paint13_linear_3556_220001)"/>
<path d="M35.1225 46.9902H40.0303L40.2036 46.7162C40.2432 46.656 40.254 46.5916 40.2351 46.5287C40.2162 46.4658 40.1682 46.4063 40.0953 46.3555C40.0223 46.3046 39.9267 46.264 39.8169 46.2372C39.707 46.2104 39.5863 46.1982 39.4654 46.2017H36.4637C36.1828 46.2086 35.9134 46.2622 35.694 46.3546C35.4745 46.447 35.3164 46.5736 35.2421 46.7162L35.1225 46.9902Z" fill="url(#paint14_linear_3556_220001)"/>
<path d="M92.2512 42.6126C92.2512 42.6126 73.7469 29 52.4521 29C17.9391 29 19.1244 33.6523 7.5752 43.7528L92.2512 42.6126Z" fill="#FAFAFA"/>
<path opacity="0.8" d="M87.9092 41.4937H64.2926C63.7464 41.4959 63.2079 41.3642 62.7243 41.1101C62.2407 40.8561 61.8266 40.4875 61.5184 40.0364C58.8902 36.1428 54.2379 32.1976 50.8281 30.3281C74.7052 30.3281 87.9092 41.4937 87.9092 41.4937Z" fill="url(#paint15_radial_3556_220001)"/>
<path d="M50.2444 31.4978C53.1073 33.5706 56.3654 36.7829 58.1948 39.9751C58.2834 40.1273 58.3305 40.3001 58.3315 40.4763C58.3325 40.6524 58.2873 40.8258 58.2004 40.979C58.1135 41.1322 57.9879 41.26 57.8363 41.3496C57.6846 41.4392 57.5121 41.4874 57.3359 41.4896H18.6315C14.526 41.4896 15.8888 31.2631 37.3353 30.4958C39.3565 30.3211 44.069 30.3154 46.6743 30.3269C47.9577 30.3329 49.2067 30.7425 50.2444 31.4978Z" fill="#2F3140"/>
<path d="M107.528 52.5995C107.772 52.6776 108.084 52.9123 108.239 53.0292C108.395 53.1462 108.831 53.5028 108.871 53.6606C108.95 53.8579 108.954 54.1754 108.634 54.6866C108.56 54.805 107.585 56.014 107.411 56.1071C107.208 56.2152 107.134 56.4623 106.306 56.5806L100.978 57.0887L94.393 56.6941C93.9939 56.6941 93.6166 56.6393 93.283 56.5432C92.9494 56.4472 92.6785 56.3108 92.4994 56.1488L90.0463 53.932C89.869 53.781 89.7894 53.6095 89.8168 53.438C89.8443 53.2666 89.9777 53.1024 90.2012 52.9652L90.8152 52.5995C90.9893 52.4971 91.2118 52.4147 91.4655 52.3584C91.4655 52.3584 106.475 52.0782 107.528 52.5995Z" fill="#575965"/>
<path opacity="0.8" fill-rule="evenodd" clip-rule="evenodd" d="M27.5812 51.5839C25.4832 52.2225 22.8055 53.5233 20.9131 54.6564L21.8206 57.3789L22.807 61.5219L23.5173 64.5206L23.8724 65.7438L24.188 66.1778L24.8193 66.5329H25.5296C25.6402 66.4263 25.751 66.321 25.8618 66.2171C25.751 66.321 25.6403 66.4262 25.5297 66.5328L35.6701 66.5328C35.6701 66.5328 42.5508 59.5507 56.6611 64.1654C56.3652 63.0409 56.3652 63.031 56.3652 63.0212C56.3652 63.0116 56.3652 63.0021 56.0994 61.9915C56.1025 61.9928 56.1055 61.9941 56.1086 61.9954L55.8719 60.2198L55.7929 58.8388C54.5292 58.1144 53.3075 57.3078 52.0678 56.4893C47.0326 53.1648 41.7004 49.6443 32.0447 50.6362C30.5226 50.7804 29.0416 51.1306 27.5812 51.5839Z" fill="url(#paint16_linear_3556_220001)"/>
<path d="M67.1527 28.6725C67.7184 27.2627 69.3205 26.5743 70.7327 27.1382L80.8645 31.1819C82.2761 31.7441 82.9641 33.3446 82.3989 34.7561C81.8337 36.1676 80.2311 36.8543 78.8188 36.2904L68.6877 32.2484C67.2755 31.6845 66.5875 30.084 67.1527 28.6725Z" fill="#F7F7F7"/>
<path d="M67.1527 28.6725C67.7184 27.2627 69.3205 26.5743 70.7327 27.1382L80.8645 31.1819C82.2761 31.7441 82.9641 33.3446 82.3989 34.7561C81.8337 36.1676 80.2311 36.8543 78.8188 36.2904L68.6877 32.2484C67.2755 31.6845 66.5875 30.084 67.1527 28.6725Z" fill="url(#paint17_linear_3556_220001)"/>
<path d="M68.2329 25.9762L70.8558 27.0226C70.8558 27.0226 70.9074 28.352 70.3328 29.7856C69.701 31.3651 68.7523 32.2754 68.7523 32.2754L66.1316 31.2301L68.2329 25.9762Z" fill="url(#paint18_linear_3556_220001)"/>
<path fill-rule="evenodd" clip-rule="evenodd" d="M57.804 37.863C65.8523 35.0958 70.1384 26.3341 67.3732 18.2917C64.608 10.2494 55.8407 5.97777 47.7924 8.74501C39.7458 11.5117 35.4597 20.2733 38.2249 28.3157C40.9901 36.3581 49.7557 40.6303 57.804 37.863ZM56.4101 33.8033C62.2152 31.8073 65.3027 25.489 63.3092 19.691C61.3156 13.893 54.9938 10.8098 49.1903 12.8052C43.3851 14.8012 40.2943 21.1208 42.2878 26.9187C44.2813 32.7167 50.6049 35.7993 56.4101 33.8033Z" fill="url(#paint19_linear_3556_220001)"/>
<path fill-rule="evenodd" clip-rule="evenodd" d="M56.4106 33.8038C62.2158 31.8078 65.3032 25.4894 63.3097 19.6914C61.3162 13.8935 54.9943 10.8103 49.1908 12.8057C43.3857 14.8017 40.2948 21.1212 42.2883 26.9192C44.2819 32.7172 50.6054 35.7998 56.4106 33.8038Z" fill="white"/>
<path fill-rule="evenodd" clip-rule="evenodd" d="M58.5787 36.8841C66.627 34.1169 70.9114 25.3558 68.1462 17.3134C65.381 9.27104 56.617 4.99828 48.5671 7.7661C40.5188 10.5333 36.236 19.2938 39.0012 27.3362C41.7664 35.3786 50.5304 39.6513 58.5787 36.8841ZM57.1836 32.8267C62.9888 30.8307 66.0791 24.5095 64.085 18.7098C62.0909 12.9101 55.7679 9.82921 49.9627 11.8252C44.1592 13.8206 41.0701 20.1396 43.0636 25.9376C45.0571 31.7356 51.3818 34.8215 57.1836 32.8267Z" fill="#FFFBD5"/>
<path fill-rule="evenodd" clip-rule="evenodd" d="M58.5787 36.8841C66.627 34.1169 70.9114 25.3558 68.1462 17.3134C65.381 9.27104 56.617 4.99828 48.5671 7.7661C40.5188 10.5333 36.236 19.2938 39.0012 27.3362C41.7664 35.3786 50.5304 39.6513 58.5787 36.8841ZM57.1836 32.8267C62.9888 30.8307 66.0791 24.5095 64.085 18.7098C62.0909 12.9101 55.7679 9.82921 49.9627 11.8252C44.1592 13.8206 41.0701 20.1396 43.0636 25.9376C45.0571 31.7356 51.3818 34.8215 57.1836 32.8267Z" fill="url(#paint20_linear_3556_220001)"/>
<path d="M52.9283 29.4292C53.5204 29.4292 53.9984 28.9516 53.9984 28.3601C53.9984 27.7685 53.5204 27.291 52.9283 27.291C52.3362 27.291 51.8564 27.7685 51.8564 28.3601C51.8564 28.9516 52.3362 29.4292 52.9283 29.4292Z" fill="url(#paint21_linear_3556_220001)"/>
<path d="M52.9278 17.6602C51.0374 17.6602 49.5 19.1961 49.5 21.0848C49.5 21.5569 49.8834 21.94 50.3579 21.94C50.8305 21.94 51.2139 21.5569 51.2139 21.0848C51.2139 20.1404 51.9826 19.3725 52.9278 19.3725C53.8731 19.3725 54.6418 20.1404 54.6418 21.0848C54.6418 22.0291 53.8731 22.7971 52.9278 22.7971C52.4552 22.7971 52.0718 23.1801 52.0718 23.6523L52.0718 25.7922C52.0718 26.2644 52.4552 26.6475 52.9278 26.6475C53.4005 26.6475 53.7839 26.2644 53.7839 25.7922L53.7839 24.3989C55.2606 24.0194 56.3539 22.6759 56.3539 21.0848C56.3539 19.1961 54.8165 17.6602 52.9278 17.6602Z" fill="url(#paint22_linear_3556_220001)"/>
</svg>
