<svg width="24" height="24" viewBox="0 0 24 24" fill="none" xmlns="http://www.w3.org/2000/svg">
    <defs>
        <linearGradient id="paint0_linear_2_42" x1="4.5" y1="22.5" x2="24.6639" y2="9.52511" gradientUnits="userSpaceOnUse">
            <stop stop-color="#CF1E9E"/>
            <stop offset="1" stop-color="#7F50B2"/>
        </linearGradient>
    </defs>
    <path fill-rule="evenodd" clip-rule="evenodd" d="M19.5 9.04688C19.5 14.25 13.3738 21.1321 12 22.5C10.6262 21.1321 4.5 14.25 4.5 9.04688C4.5 4.87898 7.85786 1.5 12 1.5C16.1421 1.5 19.5 4.87898 19.5 9.04688ZM12 14.25C14.8995 14.25 17.25 11.8995 17.25 9C17.25 6.1005 14.8995 3.75 12 3.75C9.1005 3.75 6.75 6.1005 6.75 9C6.75 11.8995 9.1005 14.25 12 14.25Z" fill="url(#paint0_linear_2_42)"/>
    <circle cx="12.0001" cy="8.99998" r="5.25" fill="white"/>
    <path d="M11.6506 12.48C11.4476 12.48 11.2236 12.466 10.9786 12.438C10.7336 12.417 10.4991 12.382 10.2751 12.333C10.0581 12.284 9.87615 12.2315 9.72915 12.1755V11.178C10.0091 11.29 10.2961 11.374 10.5901 11.43C10.8911 11.479 11.1921 11.5035 11.4931 11.5035C12.0391 11.5035 12.4451 11.423 12.7111 11.262C12.9771 11.101 13.1101 10.8175 13.1101 10.4115C13.1101 10.0475 12.9876 9.78498 12.7426 9.62398C12.5046 9.46298 12.1616 9.38248 11.7136 9.38248H10.6951L10.7896 8.53198H11.6401C12.5291 8.53198 12.9736 8.18198 12.9736 7.48198C12.9736 7.13898 12.8546 6.88698 12.6166 6.72598C12.3856 6.56498 12.0111 6.48448 11.4931 6.48448C11.2061 6.48448 10.9156 6.51248 10.6216 6.56848C10.3346 6.62448 10.0791 6.70148 9.85515 6.79948V5.82298C10.0651 5.73898 10.3381 5.66548 10.6741 5.60248C11.0101 5.53948 11.3426 5.50798 11.6716 5.50798C12.4976 5.50798 13.1101 5.68298 13.5091 6.03298C13.9151 6.38298 14.1181 6.83098 14.1181 7.37698C14.1181 7.71298 14.0341 8.02798 13.8661 8.32198C13.7051 8.61598 13.4496 8.82598 13.0996 8.95198C13.5056 9.05698 13.7996 9.24598 13.9816 9.51898C14.1706 9.79198 14.2651 10.114 14.2651 10.485C14.2651 11.164 14.0271 11.668 13.5511 11.997C13.0751 12.319 12.4416 12.48 11.6506 12.48Z" fill="#A33AA3"/>
</svg>

