<svg width="22" height="20" viewBox="0 0 22 20" fill="none" xmlns="http://www.w3.org/2000/svg">
<defs>
<linearGradient id="paint0_linear_3685_18677" x1="0.200196" y1="19.5984" x2="20.4549" y2="-0.929001" gradientUnits="userSpaceOnUse">
<stop stop-color="#CF1E9E"/>
<stop offset="1" stop-color="#7F50B2"/>
</linearGradient>
</defs>
<path d="M21.2776 4.3331C20.9425 3.56313 20.4592 2.86539 19.8549 2.27895C19.2502 1.69075 18.5372 1.22332 17.7547 0.902069C16.9433 0.567632 16.073 0.396448 15.1944 0.398455C13.9618 0.398455 12.7591 0.733371 11.714 1.36599C11.464 1.51732 11.2265 1.68354 11.0014 1.86464C10.7764 1.68354 10.5389 1.51732 10.2889 1.36599C9.24373 0.733371 8.04109 0.398455 6.80845 0.398455C5.92085 0.398455 5.06075 0.567153 4.24816 0.902069C3.46307 1.22458 2.75549 1.6885 2.14792 2.27895C1.54284 2.86473 1.05949 3.56263 0.725255 4.3331C0.377716 5.13441 0.200195 5.98535 0.200195 6.86109C0.200195 7.68722 0.370215 8.54807 0.707753 9.42382C0.990286 10.1557 1.39533 10.9148 1.91289 11.6814C2.73299 12.8945 3.86061 14.1598 5.26077 15.4424C7.58104 17.5685 9.8788 19.0371 9.97631 19.0967L10.5689 19.4738C10.8314 19.64 11.169 19.64 11.4315 19.4738L12.024 19.0967C12.1216 19.0347 14.4168 17.5685 16.7396 15.4424C18.1397 14.1598 19.2674 12.8945 20.0875 11.6814C20.605 10.9148 21.0126 10.1557 21.2926 9.42382C21.6301 8.54807 21.8002 7.68722 21.8002 6.86109C21.8027 5.98535 21.6251 5.13441 21.2776 4.3331Z" fill="url(#paint0_linear_3685_18677)"/>
</svg>
