<svg fill="none" height="16" viewBox="0 0 21 16" width="21" xmlns="http://www.w3.org/2000/svg"><path d="m17.5 0h-14c-.79565 0-1.55871.316071-2.12132.87868-.562609.56261-.87868 1.32567-.87868 2.12132v10c0 .7956.316071 1.5587.87868 2.1213.56261.5626 1.32567.8787 2.12132.8787h14c.7956 0 1.5587-.3161 2.1213-.8787s.8787-1.3257.8787-2.1213v-10c0-.79565-.3161-1.55871-.8787-2.12132-.5626-.562609-1.3257-.87868-2.1213-.87868zm-14 14c-.26522 0-.51957-.1054-.70711-.2929-.18753-.1875-.29289-.4419-.29289-.7071v-2.42l3.3-3.29c.18693-.18323.43825-.28586.7-.28586s.51307.10263.7.28586l6.71 6.71zm15-1c0 .2652-.1054.5196-.2929.7071s-.4419.2929-.7071.2929h-.77l-3.81-3.83.88-.88c.1869-.18323.4382-.28586.7-.28586s.5131.10263.7.28586l3.3 3.29zm0-3.24-1.88-1.87c-.5699-.54757-1.3296-.85337-2.12-.85337s-1.5501.3058-2.12.85337l-.88.88-2.88-2.88c-.56994-.54757-1.32964-.85337-2.12-.85337s-1.55006.3058-2.12.85337l-1.88 1.87v-4.76c0-.26522.10536-.51957.29289-.70711.18754-.18753.44189-.29289.70711-.29289h14c.2652 0 .5196.10536.7071.29289.1875.18754.2929.44189.2929.70711z" fill="#abadba"/></svg>