<svg width="28" height="28" viewBox="0 0 28 28" fill="none" xmlns="http://www.w3.org/2000/svg">
<path fill-rule="evenodd" clip-rule="evenodd" d="M22.6311 12.9119H27.3332V15.0888H22.6311C22.3868 17.0039 21.5135 18.7836 20.1483 20.1488C18.7832 21.514 17.0034 22.3873 15.0883 22.6316V27.3337H12.9114V22.6316C10.9963 22.3873 9.21652 21.514 7.85136 20.1488C6.48619 18.7836 5.61291 17.0039 5.36854 15.0888H0.666504V12.9119H5.36854C5.61291 10.9968 6.48619 9.21701 7.85136 7.85184C9.21652 6.48668 10.9963 5.6134 12.9114 5.36903V0.666992H15.0883V5.36903C17.0034 5.6134 18.7832 6.48668 20.1483 7.85184C21.5135 9.21701 22.3868 10.9968 22.6311 12.9119ZM10.3716 19.4303C11.4456 20.1479 12.7082 20.5309 13.9998 20.5309C15.7312 20.5289 17.3912 19.8402 18.6155 18.6159C19.8397 17.3916 20.5284 15.7317 20.5305 14.0003C20.5305 12.7087 20.1474 11.4461 19.4298 10.3721C18.7122 9.29816 17.6923 8.46111 16.499 7.96683C15.3057 7.47254 13.9926 7.34321 12.7258 7.5952C11.459 7.84718 10.2953 8.46916 9.382 9.38249C8.46868 10.2958 7.84669 11.4595 7.59471 12.7263C7.34272 13.9931 7.47205 15.3062 7.96634 16.4995C8.46063 17.6928 9.29767 18.7127 10.3716 19.4303ZM13.9998 10.1901C11.8958 10.1901 10.1902 11.8957 10.1902 13.9996C10.1902 16.1036 11.8958 17.8092 13.9998 17.8092C16.1037 17.8092 17.8093 16.1036 17.8093 13.9996C17.8093 11.8957 16.1037 10.1901 13.9998 10.1901Z" fill="url(#paint0_linear_665_142078)"/>
<defs>
<linearGradient id="paint0_linear_665_142078" x1="0.666504" y1="27.3337" x2="28.6479" y2="2.12639" gradientUnits="userSpaceOnUse">
<stop stop-color="#C4C4C4"/>
<stop offset="1" stop-color="#C4C4C4"/>
</linearGradient>
</defs>
</svg>
