<svg fill="none" height="20" viewBox="0 0 20 20" width="20" xmlns="http://www.w3.org/2000/svg">
    <path
        d="m17 6h-1v-3c0-.79565-.3161-1.55871-.8787-2.12132-.5626-.562609-1.3257-.87868-2.1213-.87868h-10c-.79565 0-1.55871.316071-2.12132.87868-.562609.56261-.87868 1.32567-.87868 2.12132v12c.00098548.1974.0603878.3901.170721.5539.110333.1637.26666.2911.449279.3661.118679.056.248823.0834.38.08.13161.0008.26207-.0245.38391-.0742.12183-.0498.23265-.1231.32609-.2158l2.81-2.82h1.48v1.44c0 .7956.31607 1.5587.87868 2.1213s1.32567.8787 2.12132.8787h6.92l2.37 2.38c.0934.0927.2043.166.3261.2158.1218.0497.2523.075.3839.0742.1312.0034.2613-.024.38-.08.1826-.075.3389-.2024.4493-.3661.1103-.1638.1697-.3565.1707-.5539v-10c0-.79565-.3161-1.55871-.8787-2.12132s-1.3257-.87868-2.1213-.87868zm-11 3v1.89h-1.89c-.13161-.0008-.26207.0245-.38391.0742-.12183.0498-.23265.1231-.32609.2158l-1.4 1.41v-9.59c0-.26522.10536-.51957.29289-.70711.18754-.18753.44189-.29289.70711-.29289h10c.2652 0 .5196.10536.7071.29289.1875.18754.2929.44189.2929.70711v3h-5c-.79565 0-1.55871.31607-2.12132.87868s-.87868 1.32567-.87868 2.12132zm12 7.59-1-1c-.0926-.0945-.2031-.1697-.3249-.2212-.1219-.0515-.2528-.0782-.3851-.0788h-7.29c-.26522 0-.51957-.1054-.70711-.2929-.18753-.1875-.29289-.4419-.29289-.7071v-5.29c0-.26522.10536-.51957.29289-.70711.18754-.18753.44189-.29289.70711-.29289h8c.2652 0 .5196.10536.7071.29289.1875.18754.2929.44189.2929.70711z"
        fill="#a33aa3" />
</svg>