<svg width="24" height="24" viewBox="0 0 24 24" fill="none" xmlns="http://www.w3.org/2000/svg">
    <defs>
        <clipPath id="clip0_3207_6278">
            <rect width="15" height="15" fill="white" transform="translate(4.5 4.5)"/>
        </clipPath>
    </defs>
<g clip-path="url(#clip0_3207_6278)">
<path fill-rule="evenodd" clip-rule="evenodd" d="M17.25 7.9502C17.6642 7.9502 18 8.28598 18 8.7002C18 9.11441 17.6642 9.4502 17.25 9.4502L6.75 9.45019C6.33579 9.45019 6 9.11441 6 8.70019C6 8.28598 6.33579 7.95019 6.75 7.95019L17.25 7.9502ZM17.25 11.2502C17.6642 11.2502 18 11.586 18 12.0002C18 12.4144 17.6642 12.7502 17.25 12.7502L6.75 12.7502C6.33579 12.7502 6 12.4144 6 12.0002C6 11.586 6.33579 11.2502 6.75 11.2502L17.25 11.2502ZM18 15.3751C18 14.9609 17.6642 14.6251 17.25 14.6251L6.75 14.6251C6.33579 14.6251 6 14.9609 6 15.3751C6 15.7893 6.33579 16.1251 6.75 16.1251L17.25 16.1251C17.6642 16.1251 18 15.7893 18 15.3751Z" fill="#A33AA3"/>
</g>
</svg>
