<svg width="18" height="15" viewBox="0 0 18 15" fill="none" xmlns="http://www.w3.org/2000/svg">
<g clip-path="url(#clip0_383_58655)">
<path d="M17.9393 11.6413C17.9393 13.1834 16.6934 14.4391 15.1634 14.4391H0.0595703V3.3579C0.0595703 1.81578 1.30547 0.560059 2.83552 0.560059H17.9393V11.6413Z" fill="white"/>
<path d="M13.0205 8.79915H14.168C14.2008 8.79915 14.2773 8.78814 14.3101 8.78814C14.5287 8.74408 14.7145 8.5458 14.7145 8.27043C14.7145 8.00606 14.5287 7.80779 14.3101 7.75271C14.2773 7.7417 14.2118 7.7417 14.168 7.7417H13.0205V8.79915Z" fill="url(#paint0_linear_383_58655)"/>
<path d="M14.0371 1.49658C12.9442 1.49658 12.048 2.38881 12.048 3.50133V5.58319H14.8568C14.9223 5.58319 14.9989 5.58319 15.0535 5.59421C15.6874 5.62725 16.1573 5.95771 16.1573 6.53049C16.1573 6.98211 15.8404 7.36764 15.2502 7.44475V7.46678C15.895 7.51084 16.3868 7.87434 16.3868 8.43611C16.3868 9.04194 15.8404 9.43849 15.1191 9.43849H12.0371V13.5141H14.9551C16.048 13.5141 16.9442 12.6219 16.9442 11.5093V1.49658H14.0371Z" fill="url(#paint1_linear_383_58655)"/>
<path d="M14.5724 6.6624C14.5724 6.39804 14.3866 6.22179 14.168 6.18875C14.1462 6.18875 14.0915 6.17773 14.0588 6.17773H13.0205V7.14706H14.0588C14.0915 7.14706 14.1571 7.14706 14.168 7.13605C14.3866 7.103 14.5724 6.92676 14.5724 6.6624Z" fill="url(#paint2_linear_383_58655)"/>
<path d="M3.04297 1.49658C1.95007 1.49658 1.0539 2.38881 1.0539 3.50133V8.44713C1.61127 8.7225 2.19051 8.89875 2.76974 8.89875C3.45827 8.89875 3.82985 8.48017 3.82985 7.90738V5.57218H5.53477V7.89637C5.53477 8.79961 4.97739 9.53762 3.08668 9.53762C1.93914 9.53762 1.04297 9.28427 1.04297 9.28427V13.5031H3.961C5.05389 13.5031 5.95007 12.6108 5.95007 11.4983V1.49658H3.04297Z" fill="url(#paint3_linear_383_58655)"/>
<path d="M8.53985 1.49658C7.44695 1.49658 6.55078 2.38881 6.55078 3.50133V6.12293C7.05351 5.69334 7.92783 5.41797 9.33766 5.48406C10.0918 5.5171 10.9005 5.72639 10.9005 5.72639V6.57455C10.4961 6.36527 10.0153 6.17801 9.39231 6.13395C8.32127 6.05684 7.67646 6.58557 7.67646 7.51084C7.67646 8.44713 8.32127 8.97585 9.39231 8.88773C10.0153 8.84367 10.4961 8.6454 10.9005 8.44713V9.29529C10.9005 9.29529 10.1027 9.50458 9.33766 9.53762C7.92783 9.60371 7.05351 9.32833 6.55078 8.89875V13.5251H9.46881C10.5617 13.5251 11.4579 12.6329 11.4579 11.5203V1.49658H8.53985Z" fill="url(#paint4_linear_383_58655)"/>
</g>
<defs>
<linearGradient id="paint0_linear_383_58655" x1="12.046" y1="8.27174" x2="16.9572" y2="8.27174" gradientUnits="userSpaceOnUse">
<stop stop-color="#007940"/>
<stop offset="0.2285" stop-color="#00873F"/>
<stop offset="0.7433" stop-color="#40A737"/>
<stop offset="1" stop-color="#5CB531"/>
</linearGradient>
<linearGradient id="paint1_linear_383_58655" x1="12.0461" y1="7.50052" x2="16.9576" y2="7.50052" gradientUnits="userSpaceOnUse">
<stop stop-color="#007940"/>
<stop offset="0.2285" stop-color="#00873F"/>
<stop offset="0.7433" stop-color="#40A737"/>
<stop offset="1" stop-color="#5CB531"/>
</linearGradient>
<linearGradient id="paint2_linear_383_58655" x1="12.0459" y1="6.66102" x2="16.9573" y2="6.66102" gradientUnits="userSpaceOnUse">
<stop stop-color="#007940"/>
<stop offset="0.2285" stop-color="#00873F"/>
<stop offset="0.7433" stop-color="#40A737"/>
<stop offset="1" stop-color="#5CB531"/>
</linearGradient>
<linearGradient id="paint3_linear_383_58655" x1="1.05158" y1="7.50052" x2="6.0388" y2="7.50052" gradientUnits="userSpaceOnUse">
<stop stop-color="#1F286F"/>
<stop offset="0.4751" stop-color="#004E94"/>
<stop offset="0.8261" stop-color="#0066B1"/>
<stop offset="1" stop-color="#006FBC"/>
</linearGradient>
<linearGradient id="paint4_linear_383_58655" x1="6.52252" y1="7.50052" x2="11.3663" y2="7.50052" gradientUnits="userSpaceOnUse">
<stop stop-color="#6C2C2F"/>
<stop offset="0.1735" stop-color="#882730"/>
<stop offset="0.5731" stop-color="#BE1833"/>
<stop offset="0.8585" stop-color="#DC0436"/>
<stop offset="1" stop-color="#E60039"/>
</linearGradient>
<clipPath id="clip0_383_58655">
<rect width="17.9998" height="14" fill="white" transform="translate(0 0.5)"/>
</clipPath>
</defs>
</svg>
