<svg width="28" height="9" viewBox="0 0 28 9" fill="none" xmlns="http://www.w3.org/2000/svg">
<path d="M19.9005 1.2795C19.2962 1.05933 18.6575 0.948844 18.0144 0.953252C15.9348 0.953252 14.466 2.00089 14.4556 3.50477C14.4426 4.6096 15.4993 5.23221 16.2987 5.60135C17.1189 5.9809 17.3931 6.22006 17.3905 6.55931C17.3853 7.07533 16.7354 7.3093 16.131 7.3093C15.3005 7.3093 14.8468 7.19361 14.1488 6.90376L13.8902 6.78288L13.5951 8.51422C14.1007 8.72479 15.0119 8.90546 15.953 8.92106C18.1639 8.92106 19.6093 7.87991 19.6262 6.27985C19.6444 5.39728 19.0725 4.73048 17.8689 4.17937C17.1371 3.82192 16.6834 3.58276 16.6834 3.22011C16.6834 2.89906 17.0721 2.55591 17.8845 2.55591C18.4251 2.54283 18.9624 2.64427 19.4611 2.85357L19.6561 2.94065L19.9512 1.2678L19.9005 1.2795ZM25.2973 1.09363H23.6725C23.1669 1.09363 22.786 1.23271 22.5651 1.73443L19.4403 8.81317H21.6513L22.0932 7.65245L24.7916 7.65505C24.8553 7.92671 25.0503 8.81317 25.0503 8.81317H27L25.2973 1.09363ZM11.4647 1.02864H13.5717L12.2537 8.75208H10.1493L11.4647 1.02604V1.02864ZM6.11603 5.2855L6.3344 6.35784L8.39329 1.09363H10.6251L7.30925 8.80277H5.08269L3.26296 2.27515C3.23349 2.16752 3.16427 2.07508 3.06929 2.01649C2.41341 1.67768 1.71846 1.42057 1 1.25091L1.0286 1.08843H4.41979C4.87992 1.10663 5.25036 1.25091 5.37384 1.74223L6.11473 5.2894V5.2855H6.11603ZM22.6976 6.07318L23.5373 3.91291C23.5269 3.9363 23.7102 3.46707 23.8168 3.17722L23.9611 3.84402L24.4485 6.07188H22.6963V6.07318H22.6976Z" fill="#1A1F71"/>
</svg>
