<svg width="16" height="16" viewBox="0 0 16 16" fill="none" xmlns="http://www.w3.org/2000/svg">
<path d="M14.6673 4.82684C14.6678 4.7391 14.651 4.65213 14.6178 4.5709C14.5847 4.48968 14.5358 4.4158 14.474 4.35351L11.6473 1.52684C11.585 1.46505 11.5112 1.41617 11.4299 1.38299C11.3487 1.34982 11.2617 1.333 11.174 1.33351C11.0863 1.333 10.9993 1.34982 10.9181 1.38299C10.8368 1.41617 10.763 1.46505 10.7007 1.52684L8.814 3.41351L1.52733 10.7002C1.46554 10.7625 1.41666 10.8363 1.38348 10.9176C1.3503 10.9988 1.33349 11.0858 1.334 11.1735V14.0002C1.334 14.177 1.40423 14.3466 1.52926 14.4716C1.65428 14.5966 1.82385 14.6668 2.00066 14.6668H4.82733C4.92061 14.6719 5.01392 14.6573 5.10121 14.624C5.18849 14.5907 5.2678 14.5394 5.334 14.4735L12.5807 7.18684L14.474 5.33351C14.5348 5.26889 14.5844 5.19453 14.6207 5.11351C14.6271 5.06037 14.6271 5.00665 14.6207 4.95351C14.6238 4.92247 14.6238 4.89121 14.6207 4.86017L14.6673 4.82684ZM4.554 13.3335H2.66733V11.4468L9.28733 4.82684L11.174 6.71351L4.554 13.3335ZM12.114 5.77351L10.2273 3.88684L11.174 2.94684L13.054 4.82684L12.114 5.77351Z" fill="#ABADBA"/>
</svg>
