<svg width="21" height="20" viewBox="0 0 21 20" fill="none" xmlns="http://www.w3.org/2000/svg">
<path fill-rule="evenodd" clip-rule="evenodd" d="M0.0293399 0H7.30399V7.24531H0.0293399V0ZM18.1744 18.1744H20.0293V20H18.1744V18.1744ZM14.6096 18.1744H16.4629V19.9136H12.7547V16.3537H14.5477V14.5509H16.3749V10.965H18.2298V12.7237H20V14.5493H18.2331V16.3749H14.6096V18.1679V18.1744ZM9.10188 14.5216H10.8949V12.696H9.16055V10.8704H10.8981V9.04482H9.12796V10.8704H7.27465V9.04482H9.10025V3.62347H10.9552V9.04319H12.7482V10.8688H14.5183V9.04319H16.3733V10.8688H14.6096V12.6944H12.7547V16.2885H10.9617V19.912H9.10188V14.5216ZM18.1434 9.04319H19.9984V10.8688H18.1434V9.04319ZM3.65281 9.04319H5.50774V10.8688H3.65281V9.04319ZM0.0293399 9.04319H1.88427V10.8688H0.0293399V9.04319ZM9.10188 0H10.9568V1.82559H9.10188V0ZM0 12.7237H7.27465V19.969H0V12.7237ZM1.76691 14.4841H5.51589V18.2103H1.76691V14.4841ZM12.7237 0H19.9984V7.24531H12.7237V0ZM14.4923 1.76039H18.2412V5.48655H14.4923V1.76039ZM1.79299 1.76039H5.54197V5.48655H1.79299V1.76039Z" fill="#A33AA3"/>
</svg>
