<svg width="24" height="24" viewBox="0 0 24 24" fill="none" xmlns="http://www.w3.org/2000/svg">
    <defs>
        <linearGradient id="paint0_linear_704_115033" x1="4.5" y1="22.5" x2="24.6639" y2="9.52511" gradientUnits="userSpaceOnUse">
            <stop stop-color="#CF1E9E"/>
            <stop offset="1" stop-color="#7F50B2"/>
        </linearGradient>
    </defs>
<path fill-rule="evenodd" clip-rule="evenodd" d="M19.5 9.04688C19.5 14.25 13.3738 21.1321 12 22.5C10.6262 21.1321 4.5 14.25 4.5 9.04688C4.5 4.87898 7.85786 1.5 12 1.5C16.1421 1.5 19.5 4.87898 19.5 9.04688ZM12 14.25C14.8995 14.25 17.25 11.8995 17.25 9C17.25 6.1005 14.8995 3.75 12 3.75C9.1005 3.75 6.75 6.1005 6.75 9C6.75 11.8995 9.1005 14.25 12 14.25Z" fill="url(#paint0_linear_704_115033)"/>
<circle cx="12" cy="9" r="5.25" fill="white"/>
<path d="M9.78027 12.3748V11.8078C9.96227 11.3808 10.2143 10.9958 10.5363 10.6528C10.8653 10.3098 11.2153 9.97731 11.5863 9.65531C11.8663 9.41031 12.0973 9.20381 12.2793 9.03581C12.4683 8.86081 12.6153 8.70331 12.7203 8.56331C12.8253 8.42331 12.8988 8.27981 12.9408 8.13281C12.9828 7.97881 13.0038 7.80031 13.0038 7.59731C13.0038 7.23331 12.8988 6.95681 12.6888 6.76781C12.4788 6.57881 12.1288 6.48431 11.6388 6.48431C11.3728 6.48431 11.0998 6.51231 10.8198 6.56831C10.5468 6.62431 10.2843 6.70131 10.0323 6.79931V5.79131C10.2773 5.70731 10.5678 5.64081 10.9038 5.59181C11.2398 5.53581 11.5583 5.50781 11.8593 5.50781C12.6153 5.50781 13.1858 5.69331 13.5708 6.06431C13.9558 6.43531 14.1483 6.94281 14.1483 7.58681C14.1483 7.90881 14.0923 8.19581 13.9803 8.44781C13.8683 8.69281 13.7143 8.92731 13.5183 9.15131C13.3223 9.36831 13.0948 9.59231 12.8358 9.82331C12.5138 10.1033 12.2093 10.3763 11.9223 10.6423C11.6423 10.9013 11.4148 11.1848 11.2398 11.4928H14.2218V12.3748H9.78027Z" fill="#A33AA3"/>
</svg>
