<svg fill="none" height="20" viewBox="0 0 21 20" width="21" xmlns="http://www.w3.org/2000/svg">
    <path
        d="m18.4396 11.0004c-.22 0-.45-.07-.67-.12-.4455-.0982-.8833-.2286-1.31-.39-.4639-.1688-.9738-.16-1.4317.0246-.4578.1846-.8312.532-1.0483.9754l-.22.45c-.974-.5419-1.869-1.2148-2.66-2.00004-.7852-.79099-1.45817-1.68601-1.99999-2.66l.42-.28c.44337-.21709.79079-.59047.97539-1.04831s.1934-.96778.0246-1.43169c-.1588-.42758-.2891-.86521-.39-1.31-.05-.22-.09-.45-.12-.68-.12142-.70438-.49036-1.34226-1.04037-1.798764-.55-.456503-1.24492-.7016308-1.95962-.6912396h-3c-.43097-.0040466-.85775.0848136-1.25129.2605306s-.7446.434165-1.02928.757753c-.28468.32358-.49629.70471-.62044 1.11743-.124146.41272-.157908.84735-.09899 1.27429.53274 4.18938 2.44603 8.08184 5.43765 11.06264 2.99163 2.9808 6.89104 4.8799 11.08234 5.3974h.38c.7374.001 1.4494-.2695 2-.76.3164-.283.5691-.6299.7415-1.0177.1724-.3879.2605-.8079.2585-1.2323v-3c-.0122-.6947-.2652-1.3635-.7156-1.8924-.4505-.5289-1.0706-.885-1.7544-1.0076zm.5 6c-.0002.1419-.0306.2823-.0892.4116s-.1441.2446-.2508.3384c-.1117.0964-.2424.1685-.3836.2116-.1412.043-.2898.0561-.4364.0384-3.7451-.4802-7.2238-2.1936-9.88727-4.8698-2.66352-2.6761-4.36031-6.16291-4.82272-9.91024-.01591-.14649-.00196-.29467.041-.43561.04297-.14094.11407-.27171.209-.38439.09371-.10667.20906-.19216.33838-.25079.12932-.05862.26964-.08903.41162-.08921h3c.23255-.00518.45963.07088.64215.21507s.30906.3475.35785.57493c.04.27333.09.54333.15.81.11552.52714.26926 1.04518.46 1.55l-1.4.65c-.1197.05492-.22738.13294-.31684.22959s-.15896.21002-.20449.3336-.0662.25494-.06082.38653.03669.26082.09215.38028c1.4392 3.08274 3.91729 5.56084 6.99999 7.00004.2435.1.5166.1.76 0 .1247-.0447.2393-.1136.3372-.2029.0978-.0892.177-.197.2328-.3171l.62-1.4c.517.1848 1.0446.3384 1.58.46.2667.06.5367.11.81.15.2274.0487.4308.1753.5749.3578.1442.1825.2203.4096.2151.6422z"
        fill="#a33aa3" />
</svg>