<svg width="21" height="15" viewBox="0 0 21 15" fill="none" xmlns="http://www.w3.org/2000/svg">
<path d="M13.8096 14.5C12.4252 14.5002 11.0717 14.0899 9.92047 13.3209C8.76921 12.5519 7.87184 11.4587 7.34184 10.1797C6.81184 8.90074 6.673 7.4933 6.9429 6.13539C7.21279 4.77748 7.87929 3.5301 8.85811 2.55099C9.83694 1.57188 11.0841 0.905008 12.4419 0.634709C13.7998 0.364411 15.2073 0.502825 16.4864 1.03245C17.7656 1.56207 18.859 2.45912 19.6283 3.61015C20.3976 4.76118 20.8084 6.11449 20.8086 7.49896V7.5C20.8067 9.35574 20.0687 11.1349 18.7566 12.4473C17.4445 13.7596 15.6654 14.4978 13.8096 14.5Z" fill="#F79E1C"/>
<path d="M7 14.5C5.61553 14.5 4.26216 14.0895 3.11101 13.3203C1.95987 12.5511 1.06266 11.4579 0.532846 10.1788C0.003033 8.8997 -0.13559 7.49224 0.134506 6.13437C0.404603 4.7765 1.07129 3.52922 2.05026 2.55026C3.02922 1.57129 4.2765 0.904603 5.63437 0.634506C6.99224 0.36441 8.3997 0.503033 9.67879 1.03285C10.9579 1.56266 12.0511 2.45987 12.8203 3.61101C13.5895 4.76215 14 6.11553 14 7.5C13.9981 9.35592 13.26 11.1353 11.9476 12.4476C10.6353 13.76 8.85593 14.4981 7 14.5Z" fill="#EA001B"/>
<path d="M13.8096 14.5C12.4252 14.5002 11.0717 14.0899 9.92047 13.3209C8.76921 12.5519 7.87184 11.4587 7.34184 10.1797C6.81184 8.90074 6.673 7.4933 6.9429 6.13539C7.21279 4.77748 7.87929 3.5301 8.85811 2.55099C9.83694 1.57188 11.0841 0.905008 12.4419 0.634709C13.7998 0.364411 15.2073 0.502825 16.4864 1.03245C17.7656 1.56207 18.859 2.45912 19.6283 3.61015C20.3976 4.76118 20.8084 6.11449 20.8086 7.49896V7.5C20.8067 9.35574 20.0687 11.1349 18.7566 12.4473C17.4445 13.7596 15.6654 14.4978 13.8096 14.5Z" fill="#F79E1C" fill-opacity="0.6"/>
</svg>
