<svg width="169" height="112" viewBox="0 0 169 112" fill="none" xmlns="http://www.w3.org/2000/svg">
    <defs>
        <radialGradient id="paint0_radial_3616_12135" cx="0" cy="0" r="1" gradientUnits="userSpaceOnUse" gradientTransform="translate(85.6323 94.4485) rotate(90.1195) scale(7.10218 79.818)">
            <stop offset="0.41399" stop-color="#C8C8C8" stop-opacity="0.59"/>
            <stop offset="1" stop-color="#9E9E9E" stop-opacity="0"/>
        </radialGradient>
        <linearGradient id="paint1_linear_3616_12135" x1="27.9819" y1="64.3662" x2="14.6442" y2="77.5446" gradientUnits="userSpaceOnUse">
            <stop offset="0.0990896" stop-color="#717280"/>
            <stop offset="1" stop-color="#AEB0BF"/>
        </linearGradient>
        <linearGradient id="paint2_linear_3616_12135" x1="-0.833961" y1="62.0778" x2="21.2719" y2="58.3845" gradientUnits="userSpaceOnUse">
            <stop offset="0.131445" stop-color="#C4C5D0" stop-opacity="0"/>
            <stop offset="0.788734" stop-color="#DADAE1"/>
        </linearGradient>
        <linearGradient id="paint3_linear_3616_12135" x1="6.87865" y1="67.6179" x2="12.6903" y2="85.4329" gradientUnits="userSpaceOnUse">
            <stop offset="0.131445" stop-color="#C4C5D0" stop-opacity="0"/>
            <stop offset="0.921062" stop-color="#BDBECA"/>
        </linearGradient>
        <linearGradient id="paint4_linear_3616_12135" x1="63.8527" y1="53.2793" x2="63.8527" y2="80.4907" gradientUnits="userSpaceOnUse">
            <stop offset="0.0725005" stop-color="#C4C5D0" stop-opacity="0"/>
            <stop offset="0.130518" stop-color="#DADAE1"/>
        </linearGradient>
        <linearGradient id="paint5_linear_3616_12135" x1="63.8527" y1="53.2796" x2="64.3959" y2="102.597" gradientUnits="userSpaceOnUse">
            <stop offset="0.157891" stop-color="white" stop-opacity="0"/>
            <stop offset="0.593395" stop-color="#B0B0BC"/>
        </linearGradient>
        <linearGradient id="paint6_linear_3616_12135" x1="94.5785" y1="64.3697" x2="81.1792" y2="77.6832" gradientUnits="userSpaceOnUse">
            <stop offset="0.0990896" stop-color="#717280"/>
            <stop offset="1" stop-color="#AEB0BF"/>
        </linearGradient>
        <linearGradient id="paint7_linear_3616_12135" x1="100.3" y1="77.5032" x2="102.208" y2="52.7417" gradientUnits="userSpaceOnUse">
            <stop stop-color="#D5D5E3"/>
            <stop offset="0.75806" stop-color="#FAFAFB"/>
        </linearGradient>
        <linearGradient id="paint8_linear_3616_12135" x1="116.54" y1="88.2574" x2="117.528" y2="61.64" gradientUnits="userSpaceOnUse">
            <stop stop-color="#9191A5"/>
            <stop offset="0.563418" stop-color="#FAFAFA" stop-opacity="0"/>
        </linearGradient>
        <linearGradient id="paint9_linear_3616_12135" x1="135.344" y1="60.856" x2="127.408" y2="47.2252" gradientUnits="userSpaceOnUse">
            <stop offset="0.138354" stop-color="#C4C5D0" stop-opacity="0"/>
            <stop offset="0.692475" stop-color="#A5A8B2"/>
        </linearGradient>
        <linearGradient id="paint10_linear_3616_12135" x1="164.008" y1="60.0136" x2="155.297" y2="52.7892" gradientUnits="userSpaceOnUse">
            <stop offset="0.085626" stop-color="#C4C7D0" stop-opacity="0"/>
            <stop offset="0.593954" stop-color="#A5A8B2"/>
        </linearGradient>
        <linearGradient id="paint11_linear_3616_12135" x1="36.3674" y1="53.8228" x2="24.6912" y2="65.9362" gradientUnits="userSpaceOnUse">
            <stop offset="0.129664" stop-color="#333B3F"/>
            <stop offset="0.726197" stop-color="white" stop-opacity="0.38"/>
        </linearGradient>
        <linearGradient id="paint12_linear_3616_12135" x1="29.4134" y1="59.6888" x2="38.3753" y2="59.7431" gradientUnits="userSpaceOnUse">
            <stop offset="0.129664" stop-color="#7D8184"/>
            <stop offset="0.726197" stop-color="white" stop-opacity="0.38"/>
        </linearGradient>
        <linearGradient id="paint13_linear_3616_12135" x1="58.2014" y1="53.8228" x2="46.5252" y2="65.9362" gradientUnits="userSpaceOnUse">
            <stop offset="0.129664" stop-color="#333B3F"/>
            <stop offset="0.726197" stop-color="white" stop-opacity="0.38"/>
        </linearGradient>
        <linearGradient id="paint14_linear_3616_12135" x1="51.2474" y1="59.6888" x2="60.2092" y2="59.7431" gradientUnits="userSpaceOnUse">
            <stop offset="0.129664" stop-color="#7D8184"/>
            <stop offset="0.726197" stop-color="white" stop-opacity="0.38"/>
        </linearGradient>
        <radialGradient id="paint15_radial_3616_12135" cx="0" cy="0" r="1" gradientUnits="userSpaceOnUse" gradientTransform="translate(102.308 44.8058) rotate(125.028) scale(14.1942 116.432)">
            <stop offset="0.104127" stop-color="#303030" stop-opacity="0.27"/>
            <stop offset="0.629175" stop-color="#4D4E59"/>
        </radialGradient>
        <linearGradient id="paint16_linear_3616_12135" x1="17.6104" y1="50.1995" x2="61.9652" y2="38.8337" gradientUnits="userSpaceOnUse">
            <stop stop-color="#6F4EC3"/>
            <stop offset="1" stop-color="#C243AC"/>
        </linearGradient>
        <linearGradient id="paint17_linear_3616_12135" x1="81.998" y1="86.9147" x2="26.2393" y2="43.1094" gradientUnits="userSpaceOnUse">
            <stop stop-color="#6F4EC3"/>
            <stop offset="1" stop-color="#C243AC"/>
        </linearGradient>
    </defs>
<path d="M85.6323 101.509C129.458 101.509 164.985 98.3481 164.985 94.4485C164.985 90.5489 129.458 87.3877 85.6323 87.3877C41.8068 87.3877 6.2793 90.5489 6.2793 94.4485C6.2793 98.3481 41.8068 101.509 85.6323 101.509Z" fill="url(#paint0_radial_3616_12135)"/>
<path d="M76.2199 90.6479C80.4282 90.6479 83.8405 83.8878 83.8405 75.5486C83.8405 67.2093 80.4282 60.4492 76.2199 60.4492H66.46V90.6479H76.2199Z" fill="#2F3140"/>
<path d="M66.353 90.6479C70.5526 90.6479 73.957 83.8877 73.957 75.5486C73.957 67.2094 70.5526 60.4492 66.353 60.4492C62.1534 60.4492 58.749 67.2094 58.749 75.5486C58.749 83.8877 62.1534 90.6479 66.353 90.6479Z" fill="#2F3140"/>
<path d="M144.546 90.2134C148.698 90.2134 152.062 83.5506 152.062 75.3313C152.062 67.112 148.711 60.4492 144.546 60.4492H134.898V90.2134H144.546Z" fill="#2F3140"/>
<path d="M134.898 90.2134C139.037 90.2134 142.393 83.5504 142.393 75.3313C142.393 67.1122 139.037 60.4492 134.898 60.4492C130.758 60.4492 127.402 67.1122 127.402 75.3313C127.402 83.5504 130.758 90.2134 134.898 90.2134Z" fill="#2F3140"/>
<path d="M20.5975 86.9528L14.4731 85.4434C13.4366 85.1902 12.4682 84.7128 11.6361 84.0448C10.8041 83.3769 10.1286 82.5346 9.65724 81.5773C9.23949 80.7328 8.66277 79.9767 7.95866 79.3506L6.4532 78.0107C5.59345 77.2452 4.92628 76.2878 4.50585 75.2162C4.08542 74.1446 3.92356 72.9889 4.03342 71.843L4.86103 63.1728C4.99925 61.719 5.56924 60.3398 6.49771 59.2126C7.42617 58.0854 8.67064 57.2617 10.071 56.8475L14.4495 55.5549L30.245 54.4277L20.5975 86.9528Z" fill="#F7F7F9"/>
<path d="M31.738 90.5393C35.9168 90.5393 39.3051 83.8035 39.3051 75.4942C39.3051 67.185 35.9168 60.4492 31.738 60.4492H22.0332V90.5393H31.738Z" fill="#2F3140"/>
<path d="M21.9223 90.5393C26.1219 90.5393 29.5263 83.8034 29.5263 75.4942C29.5263 67.1851 26.1219 60.4492 21.9223 60.4492C17.7228 60.4492 14.3184 67.1851 14.3184 75.4942C14.3184 83.8034 17.7228 90.5393 21.9223 90.5393Z" fill="#2F3140"/>
<path d="M21.9244 87.3882C24.864 87.3882 27.2471 82.0628 27.2471 75.4934C27.2471 68.9241 24.864 63.5986 21.9244 63.5986C18.9847 63.5986 16.6016 68.9241 16.6016 75.4934C16.6016 82.0628 18.9847 87.3882 21.9244 87.3882Z" fill="url(#paint1_linear_3616_12135)"/>
<path d="M113.175 86.9521L128.615 52.4446C128.615 52.4446 105.513 35.2461 76.2 35.2461C28.6912 35.2461 30.3228 41.6502 14.4248 55.5541L21.3649 60.4488C33.7121 60.4488 34.7407 80.0198 36.7348 85.5254C36.8823 85.9427 37.1556 86.3039 37.517 86.5594C37.8784 86.8149 38.3101 86.9521 38.7526 86.9521H113.175Z" fill="#F7F7F9"/>
<path d="M16.5466 86.139C15.51 85.8858 12.4682 84.7125 11.6361 84.0445C10.8041 83.3765 10.1286 82.5342 9.65724 81.577C9.23949 80.7324 8.66277 79.9764 7.95866 79.3503L6.4532 78.0104C5.59345 77.2449 4.92628 76.2875 4.50585 75.2159C4.08542 74.1442 3.92356 72.9886 4.03342 71.8427L4.86103 63.1725C4.99925 61.7187 5.56924 60.3395 6.49771 59.2122C7.42617 58.085 8.67064 57.2613 10.071 56.8472L12.3101 56.2119L26.4861 60.7743C26.4861 60.7743 18.5019 57.3525 15.4603 67.5636C12.3101 78.3721 16.5466 86.139 16.5466 86.139Z" fill="url(#paint2_linear_3616_12135)"/>
<path d="M16.5466 86.139C15.51 85.8858 12.4682 84.7125 11.6361 84.0445C10.8041 83.3765 10.1286 82.5342 9.65724 81.577C9.23949 80.7324 8.66277 79.9764 7.95866 79.3503L6.4532 78.0104C5.59345 77.2449 4.92628 76.2875 4.50585 75.2159C4.08542 74.1442 3.92356 72.9886 4.03342 71.8427L4.86103 63.1725C4.99925 61.7187 5.56924 60.3395 6.49771 59.2122C7.42617 58.085 8.67064 57.2613 10.071 56.8472L12.3101 56.2119L26.4861 60.7743C26.4861 60.7743 18.5562 57.4068 15.406 67.6722C12.3644 77.829 16.5466 86.139 16.5466 86.139Z" fill="url(#paint3_linear_3616_12135)"/>
<path d="M113.174 86.953L95.7895 54.4199L14.4245 55.5551L12.3086 56.2123L21.3646 60.4498C33.7118 60.4498 34.7404 80.0208 36.7345 85.5264C36.8821 85.9437 37.1553 86.3049 37.5167 86.5604C37.8781 86.8159 38.3098 86.9531 38.7523 86.953H113.174Z" fill="url(#paint4_linear_3616_12135)"/>
<path d="M113.174 86.9533L95.9524 54.7461L14.4245 55.5553L12.3086 56.2126L21.3646 60.4501C33.7118 60.4501 34.7404 80.0211 36.7345 85.5267C36.8821 85.9439 37.1553 86.3052 37.5167 86.5607C37.8781 86.8162 38.3098 86.9534 38.7523 86.9533H113.174Z" fill="url(#paint5_linear_3616_12135)"/>
<path d="M98.2819 90.6479C102.487 90.6479 105.893 83.8878 105.893 75.5486C105.893 67.2093 102.487 60.4492 98.2819 60.4492H88.5127V90.6479H98.2819Z" fill="#2F3140"/>
<path d="M88.4601 90.6479C92.6896 90.6479 96.1184 83.8877 96.1184 75.5486C96.1184 67.2094 92.6896 60.4492 88.4601 60.4492C84.2305 60.4492 80.8018 67.2094 80.8018 75.5486C80.8018 83.8877 84.2305 90.6479 88.4601 90.6479Z" fill="#2F3140"/>
<path d="M88.4591 87.4969C91.4288 87.4969 93.8362 82.1471 93.8362 75.5477C93.8362 68.9484 91.4288 63.5986 88.4591 63.5986C85.4894 63.5986 83.082 68.9484 83.082 75.5477C83.082 82.1471 85.4894 87.4969 88.4591 87.4969Z" fill="url(#paint6_linear_3616_12135)"/>
<path d="M101.441 84.1838C100.018 77.7206 98.3516 60.4485 90.1977 60.4485L85.1465 52.4336H128.618C132.07 52.4336 147.404 54.5539 156.094 60.4378C163.113 65.1906 163.976 72.4066 164.985 82.9488C165.194 85.1006 163.31 86.9489 160.93 86.9528C140.949 86.9528 113.178 86.9263 104.374 86.9539C102.431 86.9736 101.823 85.9139 101.441 84.1838Z" fill="url(#paint7_linear_3616_12135)"/>
<path d="M101.441 84.1838C100.018 77.7206 98.3516 60.4485 90.1977 60.4485L85.1465 52.4336H128.618C132.07 52.4336 147.404 54.5539 156.094 60.4378C163.113 65.1906 163.976 72.4066 164.985 82.9488C165.194 85.1006 163.31 86.9489 160.93 86.9528C140.949 86.9528 113.232 86.9263 104.428 86.9539C102.485 86.9736 101.823 85.9139 101.441 84.1838Z" fill="url(#paint8_linear_3616_12135)"/>
<path d="M127.683 60.6313L103.84 59.4727C103.84 59.4727 103.595 63.6974 112.431 64.596C117.821 65.09 123.215 63.6878 127.683 60.6313Z" fill="url(#paint9_linear_3616_12135)"/>
<path opacity="0.3" d="M4.85661 63.1686C4.92341 62.4759 5.08931 61.7964 5.34924 61.1508L6.96505 61.1035C6.96505 61.1035 7.03993 67.3027 4.69897 66.9125C4.63364 66.901 4.56914 66.8852 4.50586 66.8653L4.85661 63.1686Z" fill="black"/>
<path d="M153.742 59.0303C154.547 59.4622 155.33 59.9344 156.087 60.4451C157.238 61.2177 158.291 62.1283 159.22 63.1565C158.887 63.2504 158.549 63.3267 158.208 63.3851C152.915 64.2955 149.068 59.4086 149.068 59.4086L153.742 59.0303Z" fill="url(#paint10_linear_3616_12135)"/>
<path d="M37.2682 60.0146H30.5118L30.3392 60.3918C30.2855 60.4747 30.2708 60.5633 30.2964 60.6499C30.322 60.7365 30.3871 60.8184 30.486 60.8884C30.5848 60.9584 30.7144 61.0143 30.8633 61.0512C31.0121 61.0882 31.1757 61.1049 31.3396 61.1001H35.4081C35.7888 61.0905 36.1539 61.0169 36.4513 60.8896C36.7487 60.7624 36.9631 60.5881 37.0638 60.3918L37.2682 60.0146Z" fill="url(#paint11_linear_3616_12135)"/>
<path d="M30.5103 60.0146H37.2662L37.5047 59.6375C37.5592 59.5546 37.5741 59.466 37.5481 59.3794C37.5221 59.2928 37.456 59.2109 37.3556 59.1409C37.2552 59.0709 37.1236 59.015 36.9724 58.9781C36.8212 58.9411 36.6551 58.9244 36.4886 58.9292H32.3565C31.97 58.9388 31.5991 59.0124 31.297 59.1397C30.995 59.2669 30.7772 59.4412 30.675 59.6375L30.5103 60.0146Z" fill="url(#paint12_linear_3616_12135)"/>
<path d="M59.1022 60.0146H52.3458L52.1732 60.3918C52.1195 60.4747 52.1048 60.5633 52.1304 60.6499C52.156 60.7365 52.2211 60.8184 52.32 60.8884C52.4188 60.9584 52.5484 61.0143 52.6973 61.0512C52.8461 61.0882 53.0097 61.1049 53.1736 61.1001H57.2421C57.6227 61.0905 57.9879 61.0169 58.2853 60.8896C58.5827 60.7624 58.7971 60.5881 58.8978 60.3918L59.1022 60.0146Z" fill="url(#paint13_linear_3616_12135)"/>
<path d="M52.3443 60.0146H59.1002L59.3387 59.6375C59.3932 59.5546 59.4081 59.466 59.3821 59.3794C59.3561 59.2928 59.29 59.2109 59.1896 59.1409C59.0892 59.0709 58.9576 59.015 58.8064 58.9781C58.6552 58.9411 58.489 58.9244 58.3226 58.9292H54.1905C53.804 58.9388 53.4331 59.0124 53.131 59.1397C52.829 59.2669 52.6112 59.4412 52.509 59.6375L52.3443 60.0146Z" fill="url(#paint14_linear_3616_12135)"/>
<path d="M130.985 53.9845C130.985 53.9845 105.513 35.2461 76.2001 35.2461C28.6912 35.2461 30.3228 41.6502 14.4248 55.5541L130.985 53.9845Z" fill="#FAFAFA"/>
<path opacity="0.8" d="M125.01 52.4451H92.5004C91.7484 52.4481 91.0071 52.2668 90.3414 51.9172C89.6757 51.5675 89.1058 51.06 88.6815 50.4391C85.0637 45.0794 78.6596 39.6487 73.9658 37.0752C106.834 37.0752 125.01 52.4451 125.01 52.4451Z" fill="url(#paint15_radial_3616_12135)"/>
<path d="M73.1622 38.6872C77.1032 41.5405 81.5881 45.9623 84.1063 50.3565C84.2283 50.5661 84.2932 50.804 84.2945 51.0465C84.2959 51.289 84.2336 51.5275 84.114 51.7385C83.9944 51.9494 83.8216 52.1253 83.6128 52.2486C83.404 52.3719 83.1665 52.4384 82.924 52.4413H29.6456C23.9942 52.4413 25.8701 38.364 55.3922 37.3078C58.1745 37.0674 64.6614 37.0595 68.2478 37.0753C70.0145 37.0836 71.7338 37.6475 73.1622 38.6872Z" fill="#2F3140"/>
<path d="M152.015 67.7352C152.351 67.8427 152.781 68.1658 152.995 68.3268C153.209 68.4878 153.809 68.9786 153.864 69.1959C153.972 69.4675 153.978 69.9045 153.538 70.6081C153.436 70.7711 152.094 72.4355 151.854 72.5636C151.575 72.7123 151.474 73.0525 150.333 73.2154L142.999 73.9148L133.935 73.3716C133.385 73.3716 132.866 73.2961 132.407 73.1639C131.947 73.0317 131.574 72.844 131.328 72.621L127.951 69.5694C127.707 69.3615 127.597 69.1255 127.635 68.8895C127.673 68.6535 127.857 68.4275 128.164 68.2386L129.01 67.7352C129.249 67.5943 129.555 67.4808 129.905 67.4034C129.905 67.4034 150.566 67.0176 152.015 67.7352Z" fill="#575965"/>
<ellipse cx="30.5074" cy="32.4225" rx="26.5074" ry="26.5074" fill="#F6E5F6"/>
<path d="M17.6104 44.3777C19.5114 41.7303 22.3008 39.8566 25.4684 39.0992C25.6259 38.987 25.7576 38.8424 25.8546 38.6751C25.9516 38.5077 26.0117 38.3215 26.0308 38.129C26.0444 37.8835 25.9896 37.639 25.8726 37.4229C25.7556 37.2067 25.5809 37.0274 25.368 36.9048C24.3424 37.195 23.2594 37.2158 22.2235 36.9653C21.1875 36.7148 20.2334 36.2014 19.4531 35.4746C19.8886 34.8563 20.2485 34.188 20.5251 33.4839C21.1126 31.9883 21.1603 30.7366 21.1879 29.3516C21.2833 24.5004 21.0097 24.0278 21.2883 22.2055C21.567 20.3832 21.7453 19.2244 22.5637 18.0204C24.768 14.7754 29.3046 14.6447 30.4142 14.6547C31.4762 14.6547 35.0236 14.695 37.1927 17.2462C38.2296 18.4704 38.5108 19.7598 38.8849 21.4791C39.2589 23.1984 39.0079 23.4422 39.2815 28.7534C39.3694 30.45 39.4648 31.7696 40.1276 33.3381C40.4329 34.0594 40.8169 34.7447 41.2724 35.3817C40.4234 36.0053 39.4549 36.4466 38.4275 36.678C37.4002 36.9094 36.3363 36.9258 35.3023 36.7264C35.1085 36.854 34.9544 37.0337 34.8576 37.2448C34.7608 37.4559 34.7253 37.69 34.755 37.9203C34.8353 38.4959 35.5082 38.8177 35.7994 38.9685C37.2605 39.7 38.6062 40.6501 40.0297 41.4594C41.3811 42.2575 42.5346 43.3514 43.4039 44.6592C42.5402 45.5691 38.2221 49.9377 31.2603 50.1891C23.3219 50.4655 18.3208 45.1619 17.6104 44.3777Z" fill="url(#paint16_linear_3616_12135)"/>
<path opacity="0.8" fill-rule="evenodd" clip-rule="evenodd" d="M41.97 66.3359C39.0819 67.2151 35.3959 69.0057 32.791 70.5654L34.0402 74.3131L35.3981 80.0161L36.3758 84.144L36.8646 85.8277L37.2991 86.4252L38.1681 86.914H39.1449C39.1446 86.9142 39.1444 86.9144 39.1442 86.9147L53.1029 86.9146C53.1029 86.9146 62.5744 77.3034 81.998 83.6558C81.5907 82.1079 81.5907 82.0943 81.5907 82.0807C81.5907 82.0676 81.5907 82.0544 81.2244 80.6615C81.2293 80.6636 81.2343 80.6657 81.2393 80.6679L80.9134 78.2237L80.8047 76.3227C79.0651 75.3255 77.3834 74.2152 75.677 73.0885C68.7457 68.5121 61.4057 63.666 48.1142 65.0314C46.019 65.2299 43.9803 65.712 41.97 66.3359Z" fill="url(#paint17_linear_3616_12135)"/>
</svg>
