<svg width="25" height="24" viewBox="0 0 25 24" fill="none" xmlns="http://www.w3.org/2000/svg">
<g clip-path="url(#clip0_713_91511)">
<circle opacity="0.15" cx="12.5" cy="12" r="10" fill="#EB6666"/>
<path d="M14.4036 9.34698H17.2722V6.47844" stroke="#EB6666" stroke-width="1.5" stroke-linecap="round" stroke-linejoin="round"/>
<path d="M17.5719 13.3568C17.2728 14.4732 16.6137 15.4596 15.6968 16.1632C14.7799 16.8667 13.6565 17.248 12.5008 17.248C11.3451 17.248 10.2217 16.8667 9.3048 16.1632C8.38791 15.4596 7.7288 14.4732 7.42968 13.3568C7.13056 12.2405 7.20816 11.0567 7.65043 9.98896C8.09269 8.92123 8.87492 8.02927 9.87579 7.45141C10.8767 6.87356 12.0402 6.64211 13.1861 6.79296C14.3319 6.94381 15.3959 7.46853 16.2131 8.28574" stroke="#EB6666" stroke-width="1.5" stroke-linecap="round"/>
</g>
<defs>
<clipPath id="clip0_713_91511">
<rect width="24" height="24" fill="white" transform="translate(0.5)"/>
</clipPath>
</defs>
</svg>
