<svg width="169" height="112" viewBox="0 0 169 112" fill="none" xmlns="http://www.w3.org/2000/svg">
    <defs>
        <radialGradient id="paint0_radial_4288_36955" cx="0" cy="0" r="1" gradientUnits="userSpaceOnUse" gradientTransform="translate(81.1873 93.3857) rotate(90.1186) scale(7.45859 81.0273)">
            <stop offset="0.41" stop-color="#C6C6C6" stop-opacity="0.59"/>
            <stop offset="1" stop-color="#9C9C9C" stop-opacity="0"/>
        </radialGradient>
        <linearGradient id="paint1_linear_4288_36955" x1="29.1509" y1="68.6184" x2="16.0788" y2="81.089" gradientUnits="userSpaceOnUse">
            <stop offset="0.1" stop-color="#71717E"/>
            <stop offset="1" stop-color="#ACADBC"/>
        </linearGradient>
        <linearGradient id="paint2_linear_4288_36955" x1="1.16054" y1="74.6054" x2="22.1383" y2="71.2224" gradientUnits="userSpaceOnUse">
            <stop offset="0.13" stop-color="#5B5B5B"/>
            <stop offset="0.79" stop-color="#333333"/>
        </linearGradient>
        <linearGradient id="paint3_linear_4288_36955" x1="19.1289" y1="60.542" x2="19.5122" y2="84.2219" gradientUnits="userSpaceOnUse">
            <stop offset="0.13" stop-color="#A0A0A0" stop-opacity="0"/>
            <stop offset="0.92" stop-color="#333333"/>
        </linearGradient>
        <linearGradient id="paint4_linear_4288_36955" x1="59.3758" y1="55.1862" x2="59.3758" y2="81.8843" gradientUnits="userSpaceOnUse">
            <stop offset="0.07" stop-color="#7D7D7D"/>
            <stop offset="0.13" stop-color="#333333"/>
        </linearGradient>
        <linearGradient id="paint5_linear_4288_36955" x1="59.3685" y1="50.0721" x2="59.3685" y2="92.7633" gradientUnits="userSpaceOnUse">
            <stop offset="0.301093" stop-color="#969696" stop-opacity="0"/>
            <stop offset="0.807077" stop-color="#333333"/>
        </linearGradient>
        <linearGradient id="paint6_linear_4288_36955" x1="92.2114" y1="68.5861" x2="79.0754" y2="81.1869" gradientUnits="userSpaceOnUse">
            <stop offset="0.1" stop-color="#71717E"/>
            <stop offset="1" stop-color="#ACADBC"/>
        </linearGradient>
        <linearGradient id="paint7_linear_4288_36955" x1="120.67" y1="80.7937" x2="122.475" y2="56.4677" gradientUnits="userSpaceOnUse">
            <stop stop-color="#333333"/>
            <stop offset="0.76" stop-color="#7D7D7D"/>
        </linearGradient>
        <linearGradient id="paint8_linear_4288_36955" x1="120.997" y1="98.5636" x2="120.997" y2="55.8335" gradientUnits="userSpaceOnUse">
            <stop offset="0.319552" stop-color="#333333"/>
            <stop offset="0.833022" stop-color="#F9F9F9" stop-opacity="0"/>
        </linearGradient>
        <linearGradient id="paint9_linear_4288_36955" x1="36.4259" y1="57.4814" x2="24.9614" y2="68.9649" gradientUnits="userSpaceOnUse">
            <stop offset="0.13" stop-color="#383D41"/>
            <stop offset="0.73" stop-color="white" stop-opacity="0.38"/>
        </linearGradient>
        <linearGradient id="paint10_linear_4288_36955" x1="28.0762" y1="61.2385" x2="36.5661" y2="61.2867" gradientUnits="userSpaceOnUse">
            <stop offset="0.13" stop-color="#7D8082"/>
            <stop offset="0.73" stop-color="white" stop-opacity="0.38"/>
        </linearGradient>
        <linearGradient id="paint11_linear_4288_36955" x1="57.1064" y1="57.4814" x2="45.645" y2="68.9651" gradientUnits="userSpaceOnUse">
            <stop offset="0.13" stop-color="#383D41"/>
            <stop offset="0.73" stop-color="white" stop-opacity="0.38"/>
        </linearGradient>
        <linearGradient id="paint12_linear_4288_36955" x1="48.761" y1="61.2385" x2="57.2477" y2="61.2867" gradientUnits="userSpaceOnUse">
            <stop offset="0.13" stop-color="#7D8082"/>
            <stop offset="0.73" stop-color="white" stop-opacity="0.38"/>
        </linearGradient>
        <radialGradient id="paint13_radial_4288_36955" cx="0" cy="0" r="1" gradientUnits="userSpaceOnUse" gradientTransform="translate(96.9724 47.6824) rotate(126.378) scale(13.0248 108.547)">
            <stop offset="0.1" stop-color="#333333" stop-opacity="0.27"/>
            <stop offset="0.63" stop-color="#4E4F59"/>
        </radialGradient>
        <linearGradient id="paint14_linear_4288_36955" x1="124.919" y1="80.9673" x2="115.412" y2="62.8828" gradientUnits="userSpaceOnUse">
            <stop offset="0.14" stop-color="#E6E6E6" stop-opacity="0.19"/>
            <stop offset="0.69" stop-color="#EDEDED"/>
        </linearGradient>
        <linearGradient id="paint15_linear_4288_36955" x1="152.568" y1="83.2313" x2="161.928" y2="68.6898" gradientUnits="userSpaceOnUse">
            <stop offset="0.250611" stop-color="#D9D7D7" stop-opacity="0.08"/>
            <stop offset="0.7838" stop-color="#FAFAFA"/>
        </linearGradient>
    </defs>
    <path d="M84.5 101.5C128.944 101.5 165 98.1816 165 94.0885C165 89.9955 128.957 86.6768 84.5 86.6768C40.0429 86.6768 4 89.9955 4 94.0885C4 98.1816 40.0395 101.5 84.5 101.5Z" fill="url(#paint0_radial_4288_36955)"/>
    <path d="M72.2505 90.999C76.238 90.999 79.6175 85.2181 79.6175 77.0351C79.6175 68.8522 76.3945 62.2334 72.3976 62.2334H63.1621V90.999H72.2505Z" fill="#333442"/>
    <path d="M63.0594 91.0005C67.0375 91.0005 70.2637 84.3688 70.2637 76.1858C70.2637 68.0028 67.0375 61.3841 63.0594 61.3841C59.0813 61.3841 55.8613 68.0028 55.8613 76.1858C55.8613 84.3688 59.0813 91.0005 63.0594 91.0005Z" fill="#333442"/>
    <path d="M137 90.999C140.931 90.999 144.242 84.8852 144.242 76.8218C144.242 68.7585 141.069 62.2334 137.125 62.2334H127.986V90.999H137Z" fill="#333442"/>
    <path d="M128.25 90.999C132.172 90.999 135.08 84.8852 135.08 76.8218C135.08 68.7585 131.904 62.2334 127.982 62.2334C124.06 62.2334 120.881 68.7714 120.881 76.8348C120.881 84.8982 124.328 90.999 128.25 90.999Z" fill="#333442"/>
    <path d="M19.7193 88.2255L13.9191 86.7453C12.9393 86.4954 12.0243 86.0262 11.2383 85.3707C10.4524 84.7152 9.81467 83.8893 9.36995 82.9511C8.97369 82.1226 8.42709 81.3808 7.75998 80.7664L6.33409 79.4543C5.52023 78.7024 4.88858 77.7627 4.4902 76.7111C4.09181 75.6596 3.93786 74.5257 4.04081 73.4011L4.82708 64.8949C4.8908 64.1859 5.05698 63.4909 5.32006 62.833C5.58457 62.1751 5.94093 61.561 6.37776 61.0103C7.38993 59.743 8.67136 58.7353 10.1219 58.0661L11.3294 57.4811L28.855 56.3145L19.7193 88.2255Z" fill="#F6F6F8"/>
    <path d="M30.2505 90.999C34.2068 90.999 37.4513 85.1341 37.4513 76.9802C37.4513 68.8263 34.2282 62.2334 30.275 62.2334H21.0801V90.999H30.2505Z" fill="#333442"/>
    <path d="M21.4995 90.999C25.4745 90.999 28.177 85.1341 28.177 76.9802C28.177 68.8263 24.9508 62.2334 20.9758 62.2334C17.0008 62.2334 13.7715 68.8425 13.7715 76.9931C13.7715 85.1438 17.5214 90.999 21.4995 90.999Z" fill="#333442"/>
    <path d="M20.9794 88.0902C23.7625 88.0902 26.0183 82.8676 26.0183 76.4201C26.0183 69.9726 23.7625 64.75 20.9794 64.75C18.1962 64.75 15.9248 69.9759 15.9248 76.4201C15.9248 82.8644 18.1931 88.0902 20.9794 88.0902Z" fill="url(#paint1_linear_4288_36955)"/>
    <path d="M107.412 88.2673L122.036 55.1987C122.036 55.1987 99.6898 39.7793 71.9192 39.7793C26.9153 39.7793 28.9396 44.8535 13.8779 58.1757L20.6185 62.2175C32.3165 62.2175 33.1145 81.6378 35.0023 86.913C35.1427 87.3131 35.4021 87.6594 35.7449 87.9043C36.0865 88.1501 36.4957 88.2815 36.915 88.2799L107.412 88.2673Z" fill="#DBDBDB"/>
    <path d="M15.8843 87.4422C14.9015 87.1933 12.0216 86.0428 11.2322 85.3867C10.4444 84.7318 9.80532 83.9054 9.36019 82.9661C8.96393 82.1375 8.41731 81.3958 7.7502 80.7814L6.32431 79.4692C5.51045 78.7173 4.8788 77.7776 4.48041 76.726C4.08203 75.6745 3.9281 74.5406 4.03104 73.416L4.81731 64.9099C4.88103 64.2009 5.0472 63.5058 5.31028 62.848C5.58167 62.1937 5.93749 61.5805 6.368 61.0252C7.21963 59.9245 8.29157 59.028 9.50994 58.3978L11.3352 57.4961L25.3008 62.5571C25.3008 62.5571 22.4553 61.2935 19.5879 62.6282C16.7205 63.963 15.6339 67.0336 14.857 69.3055C12.593 76.6073 14.6082 84.0681 15.8843 87.4422Z" fill="url(#paint2_linear_4288_36955)"/>
    <path d="M16.25 87.4995C15.2671 87.2506 12.0222 86.0261 11.2328 85.3699C10.4449 84.7148 9.80576 83.8882 9.36059 82.9487C8.9643 82.1199 8.41764 81.378 7.75048 80.7634L6.32448 79.451C5.51056 78.6989 4.87886 77.759 4.48045 76.7072C4.08204 75.6554 3.92809 74.5212 4.03104 73.3964L4.81738 64.8882C4.8811 64.1791 5.04728 63.4838 5.31037 62.8258C5.5749 62.1677 5.93131 61.5534 6.36817 61.0026C7.38042 59.735 8.66195 58.7271 10.1126 58.0578L11.3201 57.4727L25.3024 62.5349C25.3024 62.5349 17.798 59.215 14.8056 69.2878C11.9255 79.2538 16.25 87.4995 16.25 87.4995Z" fill="url(#paint3_linear_4288_36955)"/>
    <path d="M107.416 88.2251L90.9482 56.3076L13.8816 57.4226L11.3418 57.4808L20.4525 62.2348C32.1498 62.2348 33.1232 81.4383 35.0109 86.8386C35.1509 87.2481 35.41 87.6025 35.7525 87.8531C36.0951 88.1038 36.5042 88.2382 36.9235 88.238L107.416 88.2251Z" fill="url(#paint4_linear_4288_36955)"/>
    <path d="M107.415 88.4442L91.1034 56.8467L11.3379 57.6999L11.8714 58.2848L20.4517 62.4539C32.149 62.4539 33.1225 81.6574 35.0101 87.0577C35.1501 87.4672 35.4092 87.8216 35.7518 88.0722C36.0943 88.3229 36.5034 88.4573 36.9227 88.4571L107.415 88.4442Z" fill="url(#paint5_linear_4288_36955)"/>
    <path d="M93.2505 90.999C97.2349 90.999 100.514 85.2181 100.514 77.0351C100.514 68.8522 97.2882 62.2334 93.3038 62.2334H84.0527V90.999H93.2505Z" fill="#333442"/>
    <path d="M84.5 90.999C88.5062 90.999 91.2565 85.2181 91.2565 77.0351C91.2565 68.8522 88.0023 62.2334 84.0023 62.2334C80.0023 62.2334 76.748 68.8651 76.748 77.0481C76.748 85.2311 80.4938 90.999 84.5 90.999Z" fill="#333442"/>
    <path d="M83.9992 88.1969C86.8073 88.1969 89.0913 82.9484 89.0913 76.475C89.0913 70.0017 86.8136 64.75 83.9992 64.75C81.1849 64.75 78.9072 70.0017 78.9072 76.475C78.9072 82.9484 81.188 88.1969 83.9992 88.1969Z" fill="url(#paint6_linear_4288_36955)"/>
    <path d="M97.4813 85.5423C96.0309 79.2022 94.3322 62.252 86.023 62.252L80.873 54.3818H121.523C132.597 56.8111 141.437 56.8111 153.194 62.2423C158.051 65.4155 160.98 71.6215 161.398 73.9647C161.565 74.9024 160.82 81.5211 160.394 84.3341C160.185 85.713 159.275 88.2789 158.126 88.2789C137.761 88.2789 109.446 88.253 100.483 88.2789C98.4884 88.2886 97.8707 87.247 97.4813 85.5423Z" fill="url(#paint7_linear_4288_36955)"/>
    <path d="M96.952 85.5423C95.5016 79.2022 93.8029 62.252 85.4937 62.252L80.3438 54.3818H121.096C126.796 55.1564 143.141 57.7181 152.665 62.2423C157.255 64.4227 160.397 70.1589 161.355 73.9647C161.515 75.3988 160.989 80.4353 160.344 84.1135C159.976 86.2094 159.482 88.2789 157.597 88.2789C137.232 88.2789 108.984 88.253 100.01 88.2789C98.0162 88.2886 97.3414 87.247 96.952 85.5423Z" fill="url(#paint8_linear_4288_36955)"/>
    <path opacity="0.3" d="M5.31308 62.8335C5.57784 62.1654 5.94443 61.5456 6.39887 60.9979L9.04783 60.1447C9.08935 60.1322 9.13303 60.1295 9.17567 60.1368C9.21832 60.1441 9.25886 60.1611 9.29433 60.1867C9.3973 60.2869 9.37545 60.5584 9.1664 60.8072C8.60166 61.9093 8.08686 62.8142 7.69684 63.4831C6.13679 66.1526 5.51276 66.66 5.03851 66.5792C4.90492 66.5529 4.78084 66.4892 4.67969 66.395C4.68509 65.712 4.75512 65.0311 4.88875 64.3622C4.9921 63.8421 5.13396 63.3311 5.31308 62.8335Z" fill="black"/>
    <path d="M35.5149 61.7959H29.1155L28.9502 62.1675C28.9261 62.204 28.9102 62.2455 28.9037 62.2892C28.8972 62.3328 28.9003 62.3774 28.9127 62.4196C28.9442 62.5162 29.007 62.5985 29.0906 62.6523C29.1987 62.7302 29.3206 62.7851 29.4494 62.8139C29.5965 62.85 29.7475 62.8663 29.8987 62.8624H33.752C34.0911 62.8567 34.4264 62.7866 34.7411 62.6556C34.9815 62.5643 35.1857 62.3925 35.3214 62.1675L35.5149 61.7959Z" fill="url(#paint9_linear_4288_36955)"/>
    <path d="M29.1152 61.7943H35.5146L35.7392 61.4259C35.7645 61.3895 35.7814 61.3475 35.7884 61.3032C35.7954 61.2589 35.7925 61.2135 35.7798 61.1706C35.748 61.0733 35.6839 60.9908 35.5988 60.9379C35.4886 60.8625 35.3659 60.8088 35.2369 60.7795C35.0871 60.7404 34.9326 60.7241 34.7782 60.7311H30.8625C30.5192 60.7353 30.1796 60.8054 29.8609 60.9379C29.6159 61.0252 29.4076 61.1977 29.2712 61.4259L29.1152 61.7943Z" fill="url(#paint10_linear_4288_36955)"/>
    <path d="M56.1953 61.7959H49.796L49.6337 62.1675C49.6093 62.2038 49.593 62.2453 49.5859 62.2889C49.5789 62.3325 49.5814 62.3771 49.5931 62.4196C49.6257 62.5156 49.6883 62.5975 49.771 62.6523C49.8794 62.7296 50.0013 62.7845 50.1298 62.8139C50.278 62.85 50.43 62.8663 50.5822 62.8624H54.4355C54.7736 62.8563 55.1078 62.7862 55.4215 62.6556C55.6629 62.5661 55.8677 62.3939 56.0018 62.1675L56.1953 61.7959Z" fill="url(#paint11_linear_4288_36955)"/>
    <path d="M49.7969 61.7944H56.1962L56.424 61.426C56.4487 61.3892 56.4651 61.3472 56.4721 61.3031C56.4792 61.2589 56.4766 61.2137 56.4645 61.1707C56.4304 61.0737 56.3655 60.9917 56.2805 60.938C56.1703 60.8626 56.0475 60.8089 55.9185 60.7796C55.7687 60.7403 55.6142 60.724 55.4599 60.7311H51.5472C51.208 60.7387 50.8729 60.8098 50.5582 60.9412C50.3137 61.0295 50.1056 61.2017 49.9685 61.4292L49.7969 61.7944Z" fill="url(#paint12_linear_4288_36955)"/>
    <path d="M124.3 55.8447C124.3 55.8447 99.9074 38.5 72.1245 38.5C49.7155 38.5 39.8622 39.1325 29.211 43.9622C24.6315 46.722 18.7848 51.1265 15.9356 53.5066C13.7013 55.3731 14.8036 54.3691 11.3047 57.4739L124.3 55.8447Z" fill="#7D7D7D"/>
    <path opacity="0.8" d="M120.673 54.3823H87.7347C87.0225 54.3842 86.5935 54.2744 85.7415 53.9986C84.6765 53.5022 84.8363 53.5832 83.931 52.8955C82.4669 51.7833 74.6123 43.2983 62.0986 40.2095C97.0837 36.7898 120.673 54.3823 120.673 54.3823Z" fill="url(#paint13_radial_4288_36955)"/>
    <path d="M68.858 44.2903C76.1079 47.2341 82.064 54.3839 82.064 54.3839H28.3839C22.9289 54.3839 22.2215 41.8271 50.7107 40.8524C59.9397 40.5366 64.0807 42.3504 68.858 44.2903Z" fill="#333442"/>
    <path d="M121.008 65.2127C120.293 64.9413 104.876 62.9979 104.591 63.3189C104.305 63.6399 107.736 68.9384 112.287 70.0734C113.445 70.3622 115.614 70.6547 117.264 70.6547C117.526 70.6547 128.287 70.9305 133.208 71.2824C135.686 72.2156 121.869 65.5395 121.008 65.2127Z" fill="url(#paint14_linear_4288_36955)"/>
    <path d="M150.354 71.2834C149.281 72.2166 155.261 65.5405 155.633 65.2137C155.692 65.1621 155.803 65.0796 156.242 64.8643C158.561 66.9778 159.757 69.7732 159.757 69.7732C159.578 69.9668 159.593 69.9669 159.407 70.0744C156.242 71.0418 152.804 70.9394 150.354 71.2834Z" fill="url(#paint15_linear_4288_36955)"/>
    <path d="M141.446 66.7937C136.177 66.7083 129.598 65.6135 129.412 66.0737C129.231 66.5187 134.884 70.1991 134.819 71.3587C134.769 72.2703 126.312 77.5019 126.517 83.8893C126.548 84.8335 153.529 84.5077 153.769 83.4411C155.299 76.6586 150.162 72.2768 149.992 71.4905C149.949 71.2939 150.406 66.9417 150.261 66.656C150.062 66.264 147.036 66.8844 141.446 66.7937Z" fill="#585964"/>
</svg>
