<svg width="168" height="112" viewBox="0 0 168 112" fill="none" xmlns="http://www.w3.org/2000/svg">
    <defs>
        <radialGradient id="paint0_radial_3616_12382" cx="0" cy="0" r="1" gradientUnits="userSpaceOnUse" gradientTransform="translate(83.0742 94.4573) rotate(90.1198) scale(7.08345 79.8243)">
            <stop offset="0.41399" stop-color="#C8C8C8" stop-opacity="0.59"/>
            <stop offset="1" stop-color="#9E9E9E" stop-opacity="0"/>
        </radialGradient>
        <linearGradient id="paint1_linear_3616_12382" x1="30.0957" y1="63.6961" x2="15.6416" y2="78.0138" gradientUnits="userSpaceOnUse">
            <stop offset="0.1" stop-color="#71717E"/>
            <stop offset="1" stop-color="#ACADBC"/>
        </linearGradient>
        <linearGradient id="paint2_linear_3616_12382" x1="0.0381629" y1="65.3522" x2="25.751" y2="61.0453" gradientUnits="userSpaceOnUse">
            <stop offset="0.13" stop-color="#C2C3CD" stop-opacity="0"/>
            <stop offset="0.79" stop-color="#D8D8DF"/>
        </linearGradient>
        <linearGradient id="paint3_linear_3616_12382" x1="14.6138" y1="55.5853" x2="21.0551" y2="75.3882" gradientUnits="userSpaceOnUse">
            <stop offset="0.13" stop-color="#C2C3CD" stop-opacity="0"/>
            <stop offset="0.92" stop-color="#BBBCC7"/>
        </linearGradient>
        <linearGradient id="paint4_linear_3616_12382" x1="62.8038" y1="44.5024" x2="62.8038" y2="74.2788" gradientUnits="userSpaceOnUse">
            <stop offset="0.07" stop-color="#C2C3CD" stop-opacity="0"/>
            <stop offset="0.13" stop-color="#D8D8DF"/>
        </linearGradient>
        <linearGradient id="paint5_linear_3616_12382" x1="62.6619" y1="44.5555" x2="63.2546" y2="98.4121" gradientUnits="userSpaceOnUse">
            <stop offset="0.16" stop-color="white" stop-opacity="0"/>
            <stop offset="0.59" stop-color="#ADADB9"/>
        </linearGradient>
        <linearGradient id="paint6_linear_3616_12382" x1="99.5499" y1="63.6583" x2="85.0309" y2="78.1239" gradientUnits="userSpaceOnUse">
            <stop offset="0.1" stop-color="#71717E"/>
            <stop offset="1" stop-color="#ACADBC"/>
        </linearGradient>
        <linearGradient id="paint7_linear_3616_12382" x1="124.244" y1="71.5624" x2="126.787" y2="41.7574" gradientUnits="userSpaceOnUse">
            <stop stop-color="#D3D3E1"/>
            <stop offset="0.76" stop-color="#F9F9FA"/>
        </linearGradient>
        <linearGradient id="paint8_linear_3616_12382" x1="124.42" y1="82.7643" x2="125.737" y2="50.6699" gradientUnits="userSpaceOnUse">
            <stop stop-color="#8F8FA2"/>
            <stop offset="0.56" stop-color="#F9F9F9" stop-opacity="0"/>
        </linearGradient>
        <linearGradient id="paint9_linear_3616_12382" x1="118.842" y1="60.1849" x2="110.604" y2="45.997" gradientUnits="userSpaceOnUse">
            <stop offset="0.14" stop-color="#C2C3CD" stop-opacity="0"/>
            <stop offset="0.69" stop-color="#A3A5AF"/>
        </linearGradient>
        <linearGradient id="paint10_linear_3616_12382" x1="161.721" y1="57.1923" x2="152.547" y2="49.5648" gradientUnits="userSpaceOnUse">
            <stop offset="0.09" stop-color="#C2C5CD" stop-opacity="0"/>
            <stop offset="0.59" stop-color="#A3A5AF"/>
        </linearGradient>
        <linearGradient id="paint11_linear_3616_12382" x1="37.596" y1="45.1547" x2="25.4525" y2="57.753" gradientUnits="userSpaceOnUse">
            <stop offset="0.13" stop-color="#383D41"/>
            <stop offset="0.73" stop-color="white" stop-opacity="0.38"/>
        </linearGradient>
        <linearGradient id="paint12_linear_3616_12382" x1="28.4623" y1="49.0873" x2="37.7189" y2="49.1424" gradientUnits="userSpaceOnUse">
            <stop offset="0.13" stop-color="#7D8082"/>
            <stop offset="0.73" stop-color="white" stop-opacity="0.38"/>
        </linearGradient>
        <linearGradient id="paint13_linear_3616_12382" x1="60.1455" y1="45.1547" x2="48.0054" y2="57.753" gradientUnits="userSpaceOnUse">
            <stop offset="0.13" stop-color="#383D41"/>
            <stop offset="0.73" stop-color="white" stop-opacity="0.38"/>
        </linearGradient>
        <linearGradient id="paint14_linear_3616_12382" x1="51.0146" y1="49.0891" x2="60.2713" y2="49.1442" gradientUnits="userSpaceOnUse">
            <stop offset="0.13" stop-color="#7D8082"/>
            <stop offset="0.73" stop-color="white" stop-opacity="0.38"/>
        </linearGradient>
        <radialGradient id="paint15_radial_3616_12382" cx="0" cy="0" r="1" gradientUnits="userSpaceOnUse" gradientTransform="translate(100.063 34.0863) rotate(122.043) scale(16.2976 127.908)">
            <stop offset="0.1" stop-color="#333333" stop-opacity="0.27"/>
            <stop offset="0.63" stop-color="#4E4F59"/>
        </radialGradient>
        <linearGradient id="paint16_linear_3616_12382" x1="151.052" y1="51.5334" x2="150.866" y2="49.5598" gradientUnits="userSpaceOnUse">
            <stop offset="0.0387675" stop-color="#A5A8B2"/>
            <stop offset="0.911907" stop-color="#DEDEE1"/>
        </linearGradient>
        <linearGradient id="paint17_linear_3616_12382" x1="82.9131" y1="81.6296" x2="64.6227" y2="43.998" gradientUnits="userSpaceOnUse">
            <stop stop-color="#CF1E9E"/>
            <stop offset="1" stop-color="#7F50B2"/>
        </linearGradient>
    </defs>
<path d="M83.0742 101.499C126.903 101.499 162.433 98.3466 162.433 94.4573C162.433 90.568 126.903 87.415 83.0742 87.415C39.2452 87.415 3.71484 90.568 3.71484 94.4573C3.71484 98.3466 39.2452 101.499 83.0742 101.499Z" fill="url(#paint0_radial_3616_12382)"/>
<path d="M76.8026 89.5154C81.1502 89.5154 84.6744 82.1185 84.6744 72.9935C84.6744 63.8685 81.1502 56.4717 76.8026 56.4717H66.7227V89.5154H76.8026Z" fill="#333442"/>
<path d="M66.6094 89.5154C70.9466 89.5154 74.4605 82.1185 74.4605 72.9935C74.4605 63.8685 70.9501 56.4717 66.6094 56.4717C62.2687 56.4717 58.7549 63.8685 58.7549 72.9935C58.7549 82.1185 62.2722 89.5154 66.6094 89.5154Z" fill="#333442"/>
<path d="M147.375 89.0413C151.661 89.0413 155.137 81.7509 155.137 72.7565C155.137 63.762 151.692 56.4717 147.375 56.4717H137.409V89.0413H147.375Z" fill="#333442"/>
<path d="M137.409 89.0413C141.684 89.0413 145.15 81.7509 145.15 72.7565C145.15 63.762 141.684 56.4717 137.409 56.4717C133.134 56.4717 129.668 63.762 129.668 72.7565C129.668 81.7509 133.134 89.0413 137.409 89.0413Z" fill="#333442"/>
<path d="M19.3503 81.3492L13.0253 79.7001C11.9446 79.4168 10.9422 78.8929 10.0937 78.1678C9.23246 77.4185 8.53679 76.499 8.05081 75.4674C6.9932 73.406 5.63932 70.9702 3.94439 67.9434L3.5 54.0464C3.86517 53.0775 4.29234 52.0572 4.78497 50.9956C5.41195 49.6591 6.06305 48.4429 6.70726 47.3504L13.0012 47.0068L29.3166 45.7734L19.3503 81.3492Z" fill="#F6F6F8"/>
<path d="M30.8569 89.3951C35.1734 89.3951 38.6735 82.0257 38.6735 72.9351C38.6735 63.8445 35.1734 56.4717 30.8569 56.4717H20.832V89.3951H30.8569Z" fill="#333442"/>
<path d="M20.7197 89.3951C25.057 89.3951 28.5708 82.0257 28.5708 72.9351C28.5708 63.8445 25.057 56.4717 20.7197 56.4717C16.3825 56.4717 12.8652 63.8411 12.8652 72.9351C12.8652 82.0292 16.3791 89.3951 20.7197 89.3951Z" fill="#333442"/>
<path d="M20.7219 85.9485C23.7569 85.9485 26.2339 80.108 26.2339 72.9344C26.2339 65.7609 23.7569 59.9307 20.7219 59.9307C17.6869 59.9307 15.21 65.7712 15.21 72.9482C15.21 80.1252 17.6903 85.9485 20.7219 85.9485Z" fill="url(#paint1_linear_3616_12382)"/>
<path d="M114.971 81.3497L133.37 45.1109C129.241 40.8457 124.77 36.922 120.004 33.3783C115.766 30.2313 110.52 26.3834 102.748 23.0337C99.046 21.4663 95.2337 20.1722 91.3417 19.1617C89.1645 18.5811 87.8657 18.3234 86.9425 18.1654C84.1935 17.7011 81.4071 17.4929 78.6194 17.5436C70.2861 17.5814 66.1211 17.5985 62.9896 17.7703C58.9142 17.9936 54.0086 18.2753 47.539 19.1961C41.4379 20.0619 37.0387 21.0582 35.0337 21.5357C34.1242 21.7522 30.8998 22.5321 26.7968 23.8582C22.6939 25.1844 21.2022 25.9368 20.5959 26.2631C18.4915 27.3713 16.547 28.7581 14.8152 30.3859C14.3147 30.9244 13.8542 31.4985 13.4372 32.1037C13.1173 32.5672 12.8229 33.0478 12.5553 33.5432C11.4495 35.5668 10.4883 37.8961 10.0233 38.9508C9.25505 40.7271 8.86922 41.6134 8.47304 42.7678C7.94133 44.303 7.50867 45.8705 7.17773 47.4608L12.9343 47.3509L24.1855 56.4724C25.9123 56.8197 27.5097 57.6352 28.8018 58.8293C33.9451 63.7353 35.1164 77.4125 36.0155 79.7865C36.1698 80.2327 36.4496 80.6251 36.8217 80.9168C37.1893 81.1952 37.6381 81.346 38.0997 81.3462L114.971 81.3497Z" fill="#F6F6F8"/>
<path d="M13.6492 79.9776C12.327 79.7055 11.1039 79.0796 10.1112 78.167C9.88043 77.9506 9.63928 77.7925 9.35335 77.5039C8.78736 76.9215 8.34969 76.2276 8.06838 75.4666C7.60331 74.3191 6.19433 71.763 3.96199 67.9426L3.51758 54.0456C3.88274 53.0768 4.30993 52.0564 4.80256 50.9948C5.42955 49.6583 6.08063 48.4421 6.72484 47.3496L11.7958 47.3771C21.7208 49.3732 26.3129 53.946 28.3317 56.5261C29.7942 58.4355 30.9206 60.579 31.6629 62.8648C31.563 62.59 29.6545 57.5568 25.0555 56.6189C22.3478 56.0692 19.7572 57.1548 19.4161 57.306C18.7193 57.5981 18.0629 57.9779 17.4628 58.4363C14.3038 60.8412 13.6733 65.1392 13.1945 68.1179C13.0141 69.2917 12.9105 70.4761 12.8844 71.6634C12.7942 74.4557 13.0511 77.2483 13.6492 79.9776Z" fill="url(#paint2_linear_3616_12382)"/>
<path d="M13.6492 79.9781C12.327 79.706 11.1039 79.0801 10.1112 78.1676C9.88043 77.9511 9.63928 77.7931 9.35335 77.5045C8.78871 76.921 8.35123 76.2274 8.06838 75.4672C7.60676 74.3506 6.25978 71.8495 3.97576 67.8401C3.82189 63.2433 3.66916 58.6453 3.51758 54.0462C3.63126 53.6854 3.80351 53.1666 4.05844 52.5551C4.36504 51.8233 4.6441 51.3011 4.80256 50.9953C5.33309 49.999 5.96695 48.7897 6.72484 47.3502C8.3298 47.207 9.94481 47.2173 11.5478 47.3811C13.7216 47.6044 20.484 48.3877 26.0166 53.7885C28.5956 56.3221 30.5293 59.4344 31.656 62.8654C31.2392 61.9446 29.3307 57.9971 25.0486 56.6194C24.1977 56.348 22.0618 55.6712 19.7675 56.4992C17.1907 57.4302 15.9401 59.7905 15.1409 61.3503C11.6615 68.1425 13.0739 76.9788 13.6492 79.9781Z" fill="url(#paint3_linear_3616_12382)"/>
<path d="M114.971 81.3493L97.0158 45.7529L12.9758 46.9932L10.6367 47.4055L24.1892 56.4755C25.6626 56.7236 27.0472 57.346 28.2095 58.2826C33.7938 62.9172 35.0994 77.3365 36.0192 79.7895C36.1743 80.2352 36.454 80.6274 36.8253 80.9198C37.193 81.1982 37.6418 81.349 38.1034 81.3493H114.971Z" fill="url(#paint4_linear_3616_12382)"/>
<path d="M114.974 81.3474L97.1873 46.1084L12.9786 46.9913L10.791 47.7128C14.4013 48.1285 23.2962 49.6814 28.3259 56.5252C31.8191 61.2766 33.5932 68.78 33.9205 70.4153C34.265 72.2225 34.7197 74.0158 35.0401 75.8298C35.0953 76.1734 35.2641 77.1388 35.612 78.4169C35.7705 79.0009 35.9186 79.475 36.022 79.7911C36.1591 80.2344 36.4324 80.6234 36.8033 80.9033C37.1742 81.1832 37.6239 81.3398 38.0889 81.3509L114.974 81.3474Z" fill="url(#paint5_linear_3616_12382)"/>
<path d="M100.28 89.5154C104.624 89.5154 108.141 82.1185 108.141 72.9935C108.141 63.8685 104.624 56.4717 100.28 56.4717H90.1895V89.5154H100.28Z" fill="#333442"/>
<path d="M90.1324 89.5154C94.5006 89.5154 98.0558 82.1185 98.0558 72.9935C98.0558 63.8685 94.5144 56.4717 90.1324 56.4717C85.7504 56.4717 82.209 63.8685 82.209 72.9935C82.209 82.1185 85.7607 89.5154 90.1324 89.5154Z" fill="#333442"/>
<path d="M90.1349 86.0688C93.2009 86.0688 95.6881 80.2282 95.6881 72.9928C95.6881 65.7575 93.2009 59.9307 90.1349 59.9307C87.0688 59.9307 84.5781 65.7712 84.5781 72.986C84.5781 80.2008 87.0654 86.0688 90.1349 86.0688Z" fill="url(#paint6_linear_3616_12382)"/>
<path d="M101.762 78.8021C101.762 71.5432 101.607 63.1912 97.9059 58.8672C96.9282 57.725 96.0591 56.7546 95.0813 56.4837L86.0645 39.384L131.795 39.3115C135.975 40.4554 139.225 41.2752 141.071 41.7443C141.071 41.7443 151.685 44.4439 157.535 48.4743C158.292 48.9676 158.924 49.6639 159.374 50.499C159.582 50.901 159.742 51.3318 159.849 51.7802C160.927 54.6698 161.87 57.6186 162.676 60.6151C162.676 60.6151 165.967 72.9084 163.709 78.4335C163.385 79.2226 162.895 79.9142 162.28 80.4506C161.58 80.9748 160.762 81.2708 159.918 81.3047C153.083 81.7814 121.531 81.611 104.315 80.8065C103.159 80.7569 101.871 79.8314 101.762 78.8021Z" fill="url(#paint7_linear_3616_12382)"/>
<path d="M101.762 78.9105C101.762 70.5682 101.288 62.3883 98.0145 58.6506C96.9933 57.4843 96.6657 56.8807 95.2443 56.4837L86.0645 39.3841L131.804 39.3115C136.626 40.3145 141.398 41.5997 146.098 43.1618C154.942 46.1106 157.614 48.0853 158.84 49.7087C159.032 49.9666 159.211 50.237 159.374 50.5185C159.567 50.8459 159.742 51.1865 159.897 51.5383C161.216 55.2664 162.101 58.4138 162.676 60.6521C162.676 60.6521 166.12 74.1241 163.544 78.9026C163.127 79.6671 162.554 80.3122 161.87 80.7857C161.263 81.1473 160.589 81.3499 159.901 81.3777C154.236 81.6871 121.37 81.6239 104.207 80.8065C103.067 80.753 101.762 79.6147 101.762 78.9105Z" fill="url(#paint8_linear_3616_12382)"/>
<path d="M125.794 51.2111L101.166 49.9434C101.166 49.9434 100.914 54.5677 110.04 55.5503C115.647 56.0785 121.253 54.5343 125.794 51.2111Z" fill="url(#paint9_linear_3616_12382)"/>
<path d="M159.231 50.2539C159.231 50.2539 159.883 51.6082 160.155 52.4749C160.426 53.2208 161.024 55.0335 161.024 55.0335C161.024 55.0335 160.046 55.3838 159.309 55.5085C154.71 56.2815 150.9 51.7993 150.432 51.229L159.231 50.2539Z" fill="url(#paint10_linear_3616_12382)"/>
<path d="M36.5729 49.709H29.5968L29.4177 50.1224C29.3904 50.1635 29.3723 50.21 29.3646 50.2588C29.3569 50.3075 29.3597 50.3573 29.3729 50.4049C29.4071 50.5117 29.4763 50.6039 29.5693 50.6667C29.6868 50.75 29.8188 50.8107 29.9586 50.8458C30.1148 50.8862 30.2761 50.9036 30.4374 50.8975H34.6403C35.0114 50.8924 35.3779 50.814 35.7185 50.6667C35.9852 50.5633 36.2078 50.3711 36.349 50.1224L36.5729 49.709Z" fill="url(#paint11_linear_3616_12382)"/>
<path d="M29.5957 49.7108H36.5718L36.8198 49.2974C36.8476 49.2558 36.8659 49.2087 36.8737 49.1594C36.8814 49.11 36.8783 49.0595 36.8646 49.0115C36.827 48.9054 36.7571 48.8139 36.6648 48.7497C36.5456 48.6655 36.4109 48.6058 36.2686 48.574C36.1057 48.5309 35.9374 48.5123 35.7691 48.5188H31.5008C31.1251 48.5232 30.754 48.6016 30.4087 48.7497C30.1376 48.8531 29.9102 49.0465 29.7645 49.2974L29.5957 49.7108Z" fill="url(#paint12_linear_3616_12382)"/>
<path d="M59.1258 49.709H52.1394L51.9602 50.1224C51.9335 50.1638 51.916 50.2104 51.9089 50.2591C51.9018 50.3079 51.9052 50.3576 51.9189 50.4049C51.9517 50.5115 52.0197 50.6038 52.1118 50.6667C52.2306 50.75 52.3637 50.8107 52.5045 50.8458C52.664 50.8877 52.829 50.9051 52.9937 50.8975H57.1966C57.5677 50.8929 57.9343 50.8144 58.2748 50.6667C58.5417 50.5623 58.7652 50.3704 58.9087 50.1224L59.1258 49.709Z" fill="url(#paint13_linear_3616_12382)"/>
<path d="M52.1377 49.7126H59.1172L59.3618 49.2992C59.3895 49.2577 59.4079 49.2106 59.4157 49.1612C59.4234 49.1118 59.4203 49.0614 59.4066 49.0133C59.3717 48.9068 59.3027 48.8148 59.2102 48.7515C59.0907 48.668 58.9562 48.6083 58.814 48.5758C58.6511 48.5331 58.4828 48.5145 58.3145 48.5207H54.0531C53.6764 48.5254 53.3042 48.6038 52.9576 48.7515C52.6875 48.8552 52.4613 49.0486 52.3168 49.2992L52.1377 49.7126Z" fill="url(#paint14_linear_3616_12382)"/>
<path d="M135.496 43.4708C132.382 40.7073 125.773 34.459 116.484 27.9363C106.327 21.5122 104.154 20.5149 101.655 19.594C100.134 19.0334 99.9169 18.8147 98.6133 18.5647C97.201 18.2939 95.1912 18.1005 93.453 18.023C73.5678 17.1368 60.1168 17.2182 40.3526 19.5164C34.5273 20.203 27.8726 21.5204 22.3854 22.4199C22.2743 22.4745 22.1665 22.5352 22.0627 22.6018C21.9563 22.6705 21.8605 22.7426 21.7754 22.8078C21.1584 23.412 20.2612 24.2977 19.1867 25.3928C18.6689 25.9215 18.403 26.179 18.1973 26.4227C17.3888 27.353 16.9526 28.1392 15.0979 30.3878C14.1805 31.4204 13.376 32.542 12.6971 33.7349C12.5056 34.0782 12.3425 34.3734 12.2574 34.5863C11.0942 36.9894 7.5941 45.3383 6.76074 47.3294L135.496 43.4708Z" fill="#F9F9F9"/>
<path d="M15.558 29.4528C15.4393 29.3937 14.1812 30.9307 13.2766 32.3239C12.5245 33.4822 10.5905 37.1451 9.20272 40.7204C7.49957 45.1082 7.52636 45.3813 6.7168 47.374C6.7168 47.374 10.2348 47.8723 11.4841 47.1126C12.3532 46.584 19.0633 42.2041 18.7628 41.2621C18.3825 40.0703 13.349 36.7724 13.1136 36.495C12.7018 36.0096 15.6893 31.2373 15.9382 30.1029C16.0504 29.5916 15.558 29.4528 15.558 29.4528Z" fill="#A3AAB2"/>
<path opacity="0.8" d="M129.194 39.3117L93.5933 38.6178C92.7555 38.6155 91.9399 38.3929 91.2622 37.9815C90.5001 37.5154 89.6504 36.6573 88.6727 35.5197C85.3849 31.6945 74.2239 22.9063 66.0762 20.1895C72.1055 19.7645 78.7112 19.9307 83.8926 19.9186C91.3651 19.9011 97.1182 20.3266 97.6314 20.3436C97.9723 20.3597 98.3107 20.4031 98.6417 20.4731C99.0475 20.5589 99.379 20.6488 99.645 20.7312C102.361 21.5717 109.314 25.4109 109.314 25.4109C112.614 27.2018 120.197 31.9496 129.194 39.3117Z" fill="url(#paint15_radial_3616_12382)"/>
<path d="M84.8587 36.9731C85.0094 37.2479 85.0876 37.5492 85.0876 37.8543C85.0876 38.1595 85.0094 38.4607 84.8587 38.7356C84.7179 38.9969 84.5019 39.2214 84.2322 39.3867C83.9804 39.5418 83.6823 39.6282 83.375 39.635H24.6311C22.7993 39.1475 15.6172 36.01 16.0489 34.654C16.0489 34.654 18.1129 30.1578 20.7745 27.6659C21.4418 26.9575 22.8812 25.7946 23.6533 25.1741C31.1857 21.6291 43.7081 20.8979 51.8561 20.7197C61.7306 20.7197 66.565 22.7906 70.6388 24.7407C77.1572 28.7494 80.6336 30.6453 84.8587 36.9731Z" fill="#333442"/>
<path d="M151.244 51.2285H124.52V51.989H151.244V51.2285Z" fill="url(#paint16_linear_3616_12382)"/>
<path d="M128.963 57.8181L149.443 57.7666C149.729 57.801 150.011 57.8655 150.283 57.959C150.482 58.0269 150.674 58.1144 150.855 58.2201C154.042 61.721 156.298 64.3149 156.712 64.9058C156.799 65.0088 156.859 65.1317 156.887 65.2635C156.916 65.3953 156.911 65.5321 156.874 65.6616C156.738 65.9392 156.509 66.1605 156.226 66.2869C155.615 66.5584 154.952 66.6921 154.283 66.6786C152.802 66.6992 140.786 66.7782 124.288 66.84C123.806 66.8734 123.324 66.7933 122.879 66.6064C122.686 66.5346 122.515 66.4132 122.385 66.2545C122.254 66.0958 122.168 65.9055 122.135 65.7028C122.12 65.5392 122.148 65.3746 122.217 65.2253C122.607 64.3492 126.448 58.8763 126.737 58.4675C127.033 58.2459 127.369 58.0827 127.726 57.9865C128.128 57.8706 128.544 57.8139 128.963 57.8181Z" fill="#585964"/>
<path opacity="0.8" fill-rule="evenodd" clip-rule="evenodd" d="M41.7343 61.1058C38.8303 61.9826 35.1786 63.7573 32.5594 65.3129L33.1601 67.0464L33.7063 68.9965L34.0886 70.6758L34.3616 72.0843L34.9624 74.9011L35.3447 77.0138L35.8362 78.9098L36.2185 80.2099L36.6008 80.86L37.1469 81.3475L37.9115 81.6296H38.8945C38.8948 81.6293 38.895 81.6291 38.8953 81.6288L52.9305 81.6287C52.9305 81.6287 63.3826 72.3567 82.9131 78.6924C82.64 76.8506 82.5854 75.8213 82.5854 75.8213C82.584 75.8207 82.5826 75.8201 82.5812 75.8195L82.4757 72.7344L82.5303 71.5426C80.9607 70.6501 79.3831 69.6518 77.7568 68.6228C70.2095 63.847 61.6148 58.4085 47.9123 59.8047C45.8055 60.0027 43.7556 60.4835 41.7343 61.1058Z" fill="url(#paint17_linear_3616_12382)"/>
</svg>
