<svg width="168" height="112" viewBox="0 0 168 112" fill="none" xmlns="http://www.w3.org/2000/svg">
    <defs>
        <linearGradient id="paint0_linear_3616_16365" x1="46.4819" y1="38.8189" x2="57.1669" y2="55.9524" gradientUnits="userSpaceOnUse">
            <stop stop-color="#FFA945"/>
            <stop offset="1" stop-color="#FFDF35"/>
        </linearGradient>
        <radialGradient id="paint1_radial_3616_16365" cx="0" cy="0" r="1" gradientUnits="userSpaceOnUse" gradientTransform="translate(85.1294 94.5392) rotate(90.1212) scale(7.0028 79.8181)">
            <stop stop-color="#C8C8C8" stop-opacity="0.59"/>
            <stop offset="1" stop-color="#9E9E9E" stop-opacity="0"/>
        </radialGradient>
        <linearGradient id="paint2_linear_3616_16365" x1="27.4824" y1="64.8779" x2="14.3304" y2="78.0572" gradientUnits="userSpaceOnUse">
            <stop offset="0.0990896" stop-color="#717280"/>
            <stop offset="1" stop-color="#AEB0BF"/>
        </linearGradient>
        <linearGradient id="paint3_linear_3616_16365" x1="-1.33397" y1="62.6217" x2="20.7548" y2="58.8789" gradientUnits="userSpaceOnUse">
            <stop offset="0.131445" stop-color="#C4C5D0" stop-opacity="0"/>
            <stop offset="0.788734" stop-color="#DADAE1"/>
        </linearGradient>
        <linearGradient id="paint4_linear_3616_16365" x1="25.9861" y1="85.9025" x2="5.57268" y2="92.6328" gradientUnits="userSpaceOnUse">
            <stop stop-color="#FFA945"/>
            <stop offset="1" stop-color="#FFDF35"/>
        </linearGradient>
        <linearGradient id="paint5_linear_3616_16365" x1="63.3533" y1="53.9457" x2="63.3533" y2="80.7763" gradientUnits="userSpaceOnUse">
            <stop offset="0.0725005" stop-color="#C4C5D0" stop-opacity="0"/>
            <stop offset="0.130518" stop-color="#DADAE1"/>
        </linearGradient>
        <linearGradient id="paint6_linear_3616_16365" x1="112.675" y1="86.6735" x2="77.528" y2="134.973" gradientUnits="userSpaceOnUse">
            <stop stop-color="#FFA945"/>
            <stop offset="1" stop-color="#FFDF35"/>
        </linearGradient>
        <linearGradient id="paint7_linear_3616_16365" x1="94.078" y1="64.8814" x2="80.8663" y2="78.1948" gradientUnits="userSpaceOnUse">
            <stop offset="0.0990896" stop-color="#717280"/>
            <stop offset="1" stop-color="#AEB0BF"/>
        </linearGradient>
        <linearGradient id="paint8_linear_3616_16365" x1="99.7997" y1="77.8321" x2="101.655" y2="53.413" gradientUnits="userSpaceOnUse">
            <stop stop-color="#D5D5E3"/>
            <stop offset="0.75806" stop-color="#FAFAFB"/>
        </linearGradient>
        <linearGradient id="paint9_linear_3616_16365" x1="180.601" y1="107.772" x2="114.777" y2="114.551" gradientUnits="userSpaceOnUse">
            <stop stop-color="#FFA945"/>
            <stop offset="0.930503" stop-color="#FFDF35"/>
        </linearGradient>
        <linearGradient id="paint10_linear_3616_16365" x1="129.355" y1="60.7788" x2="122.2" y2="47.7357" gradientUnits="userSpaceOnUse">
            <stop stop-color="#C4C5D0" stop-opacity="0"/>
            <stop offset="0.692475" stop-color="#A5A8B2"/>
        </linearGradient>
        <linearGradient id="paint11_linear_3616_16365" x1="163.512" y1="60.5877" x2="154.901" y2="53.3452" gradientUnits="userSpaceOnUse">
            <stop offset="0.085626" stop-color="#C4C7D0" stop-opacity="0"/>
            <stop offset="0.593954" stop-color="#A5A8B2"/>
        </linearGradient>
        <linearGradient id="paint12_linear_3616_16365" x1="35.8742" y1="54.4856" x2="24.3684" y2="66.5915" gradientUnits="userSpaceOnUse">
            <stop offset="0.129664" stop-color="#333B3F"/>
            <stop offset="0.726197" stop-color="white" stop-opacity="0.38"/>
        </linearGradient>
        <linearGradient id="paint13_linear_3616_16365" x1="28.9207" y1="60.2695" x2="37.8826" y2="60.3246" gradientUnits="userSpaceOnUse">
            <stop offset="0.129664" stop-color="#7D8184"/>
            <stop offset="0.726197" stop-color="white" stop-opacity="0.38"/>
        </linearGradient>
        <linearGradient id="paint14_linear_3616_16365" x1="57.7048" y1="54.4856" x2="46.199" y2="66.5915" gradientUnits="userSpaceOnUse">
            <stop offset="0.129664" stop-color="#333B3F"/>
            <stop offset="0.726197" stop-color="white" stop-opacity="0.38"/>
        </linearGradient>
        <linearGradient id="paint15_linear_3616_16365" x1="50.7513" y1="60.2695" x2="59.7131" y2="60.3246" gradientUnits="userSpaceOnUse">
            <stop offset="0.129664" stop-color="#7D8184"/>
            <stop offset="0.726197" stop-color="white" stop-opacity="0.38"/>
        </linearGradient>
        <radialGradient id="paint16_radial_3616_16365" cx="0" cy="0" r="1" gradientUnits="userSpaceOnUse" gradientTransform="translate(101.808 45.5912) rotate(125.408) scale(14.0613 115.887)">
            <stop offset="0.104127" stop-color="white"/>
            <stop offset="0.629175" stop-color="#4D4E59"/>
        </radialGradient>
        <linearGradient id="paint17_linear_3616_16365" x1="32.4034" y1="86.7597" x2="57.7637" y2="111.518" gradientUnits="userSpaceOnUse">
            <stop stop-color="#FFA945"/>
            <stop offset="1" stop-color="#FFDF35"/>
        </linearGradient>
    </defs>
<path d="M85.5995 36.5667C85.5995 36.5667 79.9061 31.1706 78.1857 29.6056C76.4654 28.0406 75.504 28.3757 72.7493 28.3854C69.9947 28.3951 56.3412 28.6973 56.3412 28.6973C52.6881 28.6516 48.9106 34.4811 46.4996 37.719C46.4996 37.719 45.6469 38.6203 51.1204 38.5739C56.594 38.5274 73.5433 38.526 79.025 38.0723C84.5067 37.6187 86.6802 37.5837 85.5995 36.5667Z" fill="url(#paint0_linear_3616_16365)"/>
<path d="M73.3224 38.3585C65.4075 38.815 57.8459 37.8658 55.6512 37.2247C53.4565 36.5836 54.5414 29.1091 54.5414 29.1091C51.3958 30.295 46.5306 37.7375 46.5306 37.7375C46.5306 37.7375 45.6781 38.6467 51.1586 38.6003C51.1589 38.6009 73.3224 38.3585 73.3224 38.3585Z" fill="#F08506"/>
<path d="M85.1295 101.501C128.955 101.501 164.483 98.3842 164.483 94.5392C164.483 90.6942 128.955 87.5771 85.1295 87.5771C41.304 87.5771 5.77637 90.6942 5.77637 94.5392C5.77637 98.3842 41.304 101.501 85.1295 101.501Z" fill="url(#paint1_radial_3616_16365)"/>
<path d="M75.7199 90.7937C79.9282 90.7937 83.3405 84.1282 83.3405 75.9056C83.3405 67.6831 79.9282 61.0176 75.7199 61.0176H65.96V90.7937H75.7199Z" fill="#2F3140"/>
<path d="M65.853 90.7937C70.0526 90.7937 73.457 84.1281 73.457 75.9056C73.457 67.6832 70.0526 61.0176 65.853 61.0176C61.6534 61.0176 58.249 67.6832 58.249 75.9056C58.249 84.1281 61.6534 90.7937 65.853 90.7937Z" fill="#2F3140"/>
<path d="M144.045 90.3653C148.198 90.3653 151.561 83.7957 151.561 75.6914C151.561 67.5872 148.211 61.0176 144.045 61.0176H134.398V90.3653H144.045Z" fill="#2F3140"/>
<path d="M134.398 90.3653C138.537 90.3653 141.893 83.7956 141.893 75.6914C141.893 67.5873 138.537 61.0176 134.398 61.0176C130.258 61.0176 126.902 67.5873 126.902 75.6914C126.902 83.7956 130.258 90.3653 134.398 90.3653Z" fill="#2F3140"/>
<path d="M20.0975 87.1511L13.9732 85.6628C12.9366 85.4131 11.9682 84.9424 11.1361 84.2837C10.3041 83.6251 9.62858 82.7946 9.15724 81.8507C8.7395 81.018 8.16277 80.2726 7.45867 79.6552L5.9532 78.334C5.09345 77.5793 4.42628 76.6353 4.00585 75.5786C3.58542 74.522 3.42356 73.3825 3.53342 72.2527L4.36104 63.7038C4.49925 62.2703 5.06924 60.9104 5.99771 59.7989C6.92617 58.6875 8.17064 57.8753 9.57105 57.467L13.9495 56.1924L29.7451 55.0811L20.0975 87.1511Z" fill="#F7F7F9"/>
<path d="M31.238 90.6866C35.4168 90.6866 38.8051 84.0451 38.8051 75.8521C38.8051 67.6591 35.4168 61.0176 31.238 61.0176H21.5332V90.6866H31.238Z" fill="#2F3140"/>
<path d="M21.4263 90.6866C25.6258 90.6866 29.0303 84.045 29.0303 75.8521C29.0303 67.6592 25.6258 61.0176 21.4263 61.0176C17.2267 61.0176 13.8223 67.6592 13.8223 75.8521C13.8223 84.045 17.2267 90.6866 21.4263 90.6866Z" fill="#2F3140"/>
<path d="M21.4248 87.5778C24.3645 87.5778 26.7476 82.3268 26.7476 75.8495C26.7476 69.3721 24.3645 64.1211 21.4248 64.1211C18.4851 64.1211 16.1021 69.3721 16.1021 75.8495C16.1021 82.3268 18.4851 87.5778 21.4248 87.5778Z" fill="url(#paint2_linear_3616_16365)"/>
<path d="M112.675 87.1504L128.116 53.1259C128.116 53.1259 105.013 36.168 75.7001 36.168C28.1913 36.168 29.8228 42.4825 13.9248 56.1918L20.8649 61.018C33.2121 61.018 34.2407 80.3152 36.2349 85.7438C36.3824 86.1552 36.6556 86.5114 37.017 86.7633C37.3784 87.0152 37.8101 87.1505 38.2527 87.1504H112.675Z" fill="#FFAD4D"/>
<path d="M16.0466 86.3462C15.0101 86.0966 11.9682 84.9396 11.1361 84.281C10.3041 83.6224 9.62858 82.7919 9.15724 81.848C8.7395 81.0153 8.16277 80.2698 7.45867 79.6525L5.9532 78.3313C5.09345 77.5766 4.42628 76.6325 4.00585 75.5759C3.58542 74.5193 3.42356 73.3798 3.53342 72.25L4.36104 63.7011C4.49925 62.2676 5.06924 60.9077 5.99771 59.7962C6.92617 58.6848 8.17064 57.8726 9.57105 57.4643L11.8101 56.8379L25.9861 61.3364C25.9861 61.3364 18.0019 57.9625 14.9603 68.0307C11.8101 78.688 16.0466 86.3462 16.0466 86.3462Z" fill="url(#paint3_linear_3616_16365)"/>
<path d="M16.0466 86.3462C15.0101 86.0966 11.9682 84.9396 11.1361 84.281C10.3041 83.6224 9.62858 82.7919 9.15724 81.848C8.7395 81.0153 8.16277 80.2698 7.45867 79.6525L5.9532 78.3313C5.09345 77.5766 4.42628 76.6325 4.00585 75.5759C3.58542 74.5193 3.42356 73.3798 3.53342 72.25L4.36104 63.7011C4.49925 62.2676 5.06924 60.9077 5.99771 59.7962C6.92617 58.6848 8.17064 57.8726 9.57105 57.4643L11.8101 56.8379L25.9861 61.3364C25.9861 61.3364 18.0562 58.0161 14.906 68.1378C11.8644 78.1524 16.0466 86.3462 16.0466 86.3462Z" fill="url(#paint4_linear_3616_16365)"/>
<path d="M112.675 87.1482L95.29 55.0703L13.925 56.1896L11.8091 56.8376L20.8651 61.0158C33.2123 61.0158 34.2409 80.313 36.235 85.7415C36.3826 86.1529 36.6558 86.5091 37.0172 86.7611C37.3786 87.013 37.8103 87.1483 38.2528 87.1482H112.675Z" fill="url(#paint5_linear_3616_16365)"/>
<path d="M112.675 87.1511L95.453 55.3945L13.925 56.1925L11.8091 56.8405L20.8651 61.0187C33.2123 61.0187 34.2409 80.3159 36.235 85.7444C36.3826 86.1558 36.6558 86.512 37.0172 86.764C37.3786 87.0159 37.8103 87.1511 38.2528 87.1511H112.675Z" fill="url(#paint6_linear_3616_16365)"/>
<path d="M97.7819 90.7937C101.987 90.7937 105.393 84.1282 105.393 75.9056C105.393 67.6831 101.987 61.0176 97.7819 61.0176H88.0127V90.7937H97.7819Z" fill="#2F3140"/>
<path d="M87.9566 90.7937C92.1862 90.7937 95.615 84.1281 95.615 75.9056C95.615 67.6832 92.1862 61.0176 87.9566 61.0176C83.7271 61.0176 80.2983 67.6832 80.2983 75.9056C80.2983 84.1281 83.7271 90.7937 87.9566 90.7937Z" fill="#2F3140"/>
<path d="M87.9586 87.6849C90.9283 87.6849 93.3358 82.41 93.3358 75.903C93.3358 69.396 90.9283 64.1211 87.9586 64.1211C84.989 64.1211 82.5815 69.396 82.5815 75.903C82.5815 82.41 84.989 87.6849 87.9586 87.6849Z" fill="url(#paint7_linear_3616_16365)"/>
<path d="M100.94 84.4192C99.5176 78.0464 97.8512 61.0161 89.6972 61.0161L84.646 53.1133H128.117C131.57 53.1133 146.904 55.2039 155.594 61.0055C162.613 65.6918 163.476 72.8068 164.485 83.2015C164.694 85.3232 162.81 87.1456 160.43 87.1495C140.449 87.1495 112.677 87.1233 103.873 87.1505C101.93 87.1699 101.323 86.1251 100.94 84.4192Z" fill="url(#paint8_linear_3616_16365)"/>
<path d="M100.94 84.4192C99.5176 78.0464 97.8512 61.0161 89.6972 61.0161L84.646 53.1133H128.117C131.57 53.1133 146.904 55.2039 155.594 61.0055C162.613 65.6918 163.476 72.8068 164.485 83.2015C164.694 85.3232 162.81 87.1456 160.43 87.1495C140.449 87.1495 112.732 87.1233 103.928 87.1505C101.985 87.1699 101.323 86.1251 100.94 84.4192Z" fill="url(#paint9_linear_3616_16365)"/>
<path d="M123.149 59.993L99.3063 58.8506C99.3063 58.8506 99.062 63.0162 107.898 63.9022C113.288 64.3893 118.682 63.0068 123.149 59.993V59.993Z" fill="url(#paint10_linear_3616_16365)"/>
<path opacity="0.3" d="M4.36003 63.6983C4.42683 63.0153 4.59273 62.3453 4.85265 61.7087L6.46847 61.6621C6.46847 61.6621 6.54335 67.7746 4.20239 67.3899C4.13706 67.3785 4.07256 67.3629 4.00928 67.3432L4.36003 63.6983Z" fill="black"/>
<path d="M153.246 59.6182C154.051 60.0441 154.834 60.5097 155.591 61.0132C156.742 61.775 157.794 62.6728 158.724 63.6867C158.391 63.7792 158.053 63.8544 157.711 63.912C152.419 64.8097 148.572 59.9912 148.572 59.9912L153.246 59.6182Z" fill="url(#paint11_linear_3616_16365)"/>
<path d="M36.7751 60.5908H30.0186L29.846 60.9627C29.7923 61.0444 29.7777 61.1318 29.8033 61.2172C29.8289 61.3026 29.894 61.3833 29.9928 61.4524C30.0917 61.5214 30.2212 61.5765 30.3701 61.6129C30.519 61.6493 30.6826 61.6659 30.8465 61.6611H34.915C35.2956 61.6517 35.6608 61.579 35.9582 61.4536C36.2556 61.3281 36.47 61.1563 36.5706 60.9627L36.7751 60.5908Z" fill="url(#paint12_linear_3616_16365)"/>
<path d="M30.0177 60.5908H36.7735L37.012 60.2189C37.0665 60.1372 37.0814 60.0498 37.0554 59.9644C37.0294 59.8791 36.9633 59.7983 36.8629 59.7293C36.7625 59.6603 36.6309 59.6051 36.4797 59.5687C36.3285 59.5323 36.1624 59.5158 35.9959 59.5205H31.8639C31.4773 59.53 31.1064 59.6026 30.8043 59.7281C30.5023 59.8535 30.2846 60.0254 30.1823 60.2189L30.0177 60.5908Z" fill="url(#paint13_linear_3616_16365)"/>
<path d="M58.6056 60.5908H51.8492L51.6766 60.9627C51.6229 61.0444 51.6082 61.1318 51.6338 61.2172C51.6594 61.3026 51.7245 61.3833 51.8234 61.4524C51.9222 61.5214 52.0518 61.5765 52.2007 61.6129C52.3496 61.6493 52.5131 61.6659 52.677 61.6611H56.7455C57.1262 61.6517 57.4913 61.579 57.7887 61.4536C58.0862 61.3281 58.3005 61.1563 58.4012 60.9627L58.6056 60.5908Z" fill="url(#paint14_linear_3616_16365)"/>
<path d="M51.8482 60.5908H58.6041L58.8426 60.2189C58.8971 60.1372 58.912 60.0498 58.886 59.9644C58.86 59.8791 58.7939 59.7983 58.6935 59.7293C58.5931 59.6603 58.4615 59.6051 58.3103 59.5687C58.1591 59.5323 57.9929 59.5158 57.8265 59.5205H53.6944C53.3079 59.53 52.937 59.6026 52.6349 59.7281C52.3329 59.8535 52.1151 60.0254 52.0129 60.2189L51.8482 60.5908Z" fill="url(#paint15_linear_3616_16365)"/>
<path d="M130.485 54.6442C130.485 54.6442 105.013 36.168 75.7001 36.168C28.1913 36.168 29.8228 42.4825 13.9248 56.1918L130.485 54.6442Z" fill="#FFDF35"/>
<path opacity="0.8" d="M124.51 53.1236H92.0004C91.2484 53.1266 90.5072 52.9478 89.8414 52.603C89.1757 52.2582 88.6058 51.7579 88.1816 51.1457C84.5637 45.8609 78.1596 40.5062 73.4658 37.9688C106.334 37.9687 124.51 53.1236 124.51 53.1236Z" fill="url(#paint16_radial_3616_16365)"/>
<path d="M72.6618 39.5591C76.6028 42.3725 81.0876 46.7324 83.6059 51.0651C83.7279 51.2718 83.7928 51.5063 83.7941 51.7454C83.7955 51.9845 83.7332 52.2198 83.6136 52.4278C83.494 52.6357 83.3211 52.8092 83.1124 52.9308C82.9036 53.0523 82.6661 53.1179 82.4236 53.1207H29.1451C23.4937 53.1207 25.3696 39.2404 54.8917 38.199C57.6741 37.962 64.161 37.9542 67.7473 37.9698C69.514 37.9779 71.2333 38.534 72.6618 39.5591Z" fill="#2F3140"/>
<path opacity="0.8" fill-rule="evenodd" clip-rule="evenodd" d="M41.583 66.796C38.6948 67.6629 35.0085 69.4286 32.4034 70.9666L33.6527 74.6621L35.0106 80.2858L35.9884 84.3562L36.4772 86.0165L36.9118 86.6057L37.7809 87.0877H38.7586C38.7588 87.0875 38.7591 87.0872 38.7593 87.087L52.7168 87.0869C52.7168 87.0869 62.1891 77.6095 81.6143 83.8735C81.2069 82.3471 81.2069 82.3337 81.2069 82.3203C81.2069 82.3074 81.2069 82.2944 80.8409 80.9223C80.8458 80.9244 80.8506 80.9264 80.8555 80.9285L80.5296 78.5183L80.4209 76.6438C78.6811 75.6604 76.9993 74.5655 75.2927 73.4546C68.3609 68.9419 61.0204 64.1632 47.7278 65.5096C45.6323 65.7054 43.5935 66.1807 41.583 66.796Z" fill="url(#paint17_linear_3616_16365)"/>
<path d="M149.67 65.9215C150.005 66.0275 150.435 66.346 150.649 66.5048C150.863 66.6635 151.464 67.1475 151.518 67.3617C151.627 67.6295 151.632 68.0604 151.192 68.7542C151.09 68.9149 149.748 70.556 149.508 70.6823C149.23 70.829 149.128 71.1644 147.987 71.325L140.653 72.0146L131.589 71.479C131.04 71.479 130.52 71.4046 130.061 71.2742C129.602 71.1439 129.229 70.9588 128.982 70.739L125.605 67.7301C125.361 67.5251 125.252 67.2923 125.29 67.0596C125.327 66.8269 125.511 66.6041 125.819 66.4178L126.664 65.9215C126.904 65.7826 127.21 65.6706 127.559 65.5943C127.559 65.5943 148.221 65.2139 149.67 65.9215Z" fill="#575965"/>
</svg>
