<svg width="32" height="20" viewBox="0 0 32 20" fill="none" xmlns="http://www.w3.org/2000/svg">
<defs>
<linearGradient id="paint0_linear_847_144327" x1="20.2579" y1="5.18574" x2="5.35587" y2="3.87145" gradientUnits="userSpaceOnUse">
<stop stop-color="#C83192"/>
<stop offset="1" stop-color="#562F88"/>
</linearGradient>
<linearGradient id="paint1_linear_847_144327" x1="24.3364" y1="5.38963" x2="27.5225" y2="-0.484875" gradientUnits="userSpaceOnUse">
<stop stop-color="#FFD95F"/>
<stop offset="0.1554" stop-color="#FDD056"/>
<stop offset="0.4209" stop-color="#F6BB3F"/>
<stop offset="0.7581" stop-color="#ED9A22"/>
<stop offset="0.8021" stop-color="#EA9523"/>
<stop offset="0.86" stop-color="#E48926"/>
<stop offset="0.9257" stop-color="#D97629"/>
<stop offset="0.9967" stop-color="#CC592C"/>
<stop offset="1" stop-color="#CB582C"/>
</linearGradient>
<linearGradient id="paint2_linear_847_144327" x1="25.7286" y1="1.06367" x2="25.8333" y2="0.856344" gradientUnits="userSpaceOnUse">
<stop stop-color="#FFD95F"/>
<stop offset="0.1554" stop-color="#FDD056"/>
<stop offset="0.4209" stop-color="#F6BB3F"/>
<stop offset="0.7581" stop-color="#ED9A22"/>
<stop offset="0.8023" stop-color="#E89422"/>
<stop offset="0.8605" stop-color="#DD8524"/>
<stop offset="0.9266" stop-color="#CE7026"/>
<stop offset="0.998" stop-color="#BB5227"/>
<stop offset="1" stop-color="#BB5127"/>
</linearGradient>
<linearGradient id="paint3_linear_847_144327" x1="16.4693" y1="14.9652" x2="10.8103" y2="4.6513" gradientUnits="userSpaceOnUse">
<stop stop-color="#C83192"/>
<stop offset="1" stop-color="#562F88"/>
</linearGradient>
<linearGradient id="paint4_linear_847_144327" x1="8.58462" y1="10.0778" x2="23.008" y2="10.0778" gradientUnits="userSpaceOnUse">
<stop stop-color="#4C2E84"/>
<stop offset="0.1655" stop-color="#4F2E85"/>
<stop offset="0.3309" stop-color="#583087"/>
<stop offset="0.4964" stop-color="#66358B"/>
<stop offset="0.661" stop-color="#7A3C92"/>
<stop offset="0.7807" stop-color="#8B439A"/>
</linearGradient>
</defs>
<path d="M4.30103 16.2062C4.43791 15.9825 4.50635 15.7264 4.50635 15.4365C4.50635 14.9618 4.38245 14.5844 4.13465 14.3046C3.88685 14.0247 3.51987 13.8848 3.03371 13.8848H0.889648V18.2502H1.75695C1.94221 18.2502 2.09325 18.0903 2.09325 17.8941V16.9758H2.43309C2.52277 16.9758 2.59239 16.9933 2.64077 17.027C2.69033 17.0608 2.73163 17.1183 2.76585 17.1995L3.20127 18.2502H4.45561L3.98243 17.1045C3.93995 17.0008 3.90101 16.9221 3.86679 16.8671C3.83257 16.8134 3.79245 16.7659 3.74525 16.7247C3.97889 16.6022 4.16533 16.4298 4.30103 16.2062ZM3.13283 15.8538C3.03725 15.9513 2.90155 16 2.72573 16H2.09207V14.8606H2.76467C3.10569 14.8606 3.27679 15.053 3.27679 15.4365C3.27679 15.6177 3.22959 15.7564 3.13283 15.8538Z" fill="#414042"/>
<path d="M15.8221 14.998C15.6203 14.998 15.4256 15.0268 15.2368 15.0843C15.048 15.1417 14.8923 15.2154 14.7707 15.3042L14.7389 15.0643H13.6309V18.254H14.484C14.6669 18.254 14.8156 18.0966 14.8156 17.9029V16.1513C14.8781 16.085 14.956 16.0301 15.0492 15.9876C15.1413 15.9451 15.2321 15.9239 15.3206 15.9239C15.4634 15.9239 15.5649 15.9551 15.6262 16.0176C15.6876 16.08 15.7171 16.1825 15.7171 16.3249V18.254H16.9006V16.1975C16.9006 15.7889 16.8145 15.4866 16.6422 15.2904C16.4688 15.0955 16.1962 14.998 15.8221 14.998Z" fill="#414042"/>
<path d="M19.4181 14.9869C19.2458 14.9869 19.0806 15.0119 18.9201 15.0606C18.7608 15.1093 18.6263 15.1718 18.5165 15.2467V13.8799H17.333V18.2441H18.1862C18.3691 18.2441 18.5177 18.0867 18.5177 17.893V16.1413C18.5803 16.0751 18.6582 16.0201 18.7514 15.9776C18.8434 15.9352 18.9343 15.9139 19.0228 15.9139C19.1656 15.9139 19.2659 15.9452 19.3249 16.0076C19.3839 16.0701 19.4134 16.1738 19.4134 16.3212V18.2441H20.604V16.2275C20.604 15.8052 20.5084 15.4929 20.3172 15.2905C20.1249 15.0881 19.8264 14.9869 19.4181 14.9869Z" fill="#414042"/>
<path d="M25.8679 15.0146H25.8408C24.9959 15.0146 24.3115 15.7393 24.3115 16.6339V16.6626C24.3115 17.5572 24.9959 18.2819 25.8408 18.2819H25.8679C26.7128 18.2819 27.3972 17.5572 27.3972 16.6626V16.6339C27.3972 15.7406 26.7128 15.0146 25.8679 15.0146ZM25.8538 17.2911C25.5187 17.2911 25.2473 17.0037 25.2473 16.6489C25.2473 16.2941 25.5187 16.0067 25.8538 16.0067C26.1889 16.0067 26.4603 16.2941 26.4603 16.6489C26.4603 17.0037 26.1889 17.2911 25.8538 17.2911Z" fill="#414042"/>
<path d="M10.1998 14.9869C10.0617 14.9869 9.92365 15.0031 9.78677 15.0331C9.64989 15.0643 9.53189 15.1093 9.43041 15.1668V13.8799H8.24805V18.2441H9.27465L9.33129 17.968C9.45755 18.0704 9.59325 18.1479 9.73721 18.2016C9.88235 18.2553 10.0487 18.2816 10.2375 18.2816C10.6694 18.2816 11.0104 18.1404 11.2582 17.858C11.506 17.5757 11.6299 17.1583 11.6299 16.6074C11.6299 15.5266 11.1532 14.9869 10.1998 14.9869ZM10.2977 17.1971C10.2163 17.3145 10.083 17.3732 9.89769 17.3732C9.71715 17.3732 9.56139 17.3083 9.43159 17.1796V16.0589C9.54959 15.9477 9.70417 15.8927 9.89769 15.8927C10.0782 15.8927 10.2104 15.9489 10.2942 16.0589C10.378 16.1701 10.4204 16.3562 10.4204 16.6186C10.4204 16.8872 10.3803 17.0796 10.2977 17.1971Z" fill="#414042"/>
<path d="M27.6904 16.6075C27.6904 17.1585 27.8143 17.5758 28.0621 17.8581C28.3099 18.1405 28.6498 18.2817 29.0828 18.2817C29.2716 18.2817 29.4392 18.2554 29.5832 18.2017C29.7283 18.148 29.864 18.0705 29.9891 17.9681L30.0457 18.2442H30.723C30.9154 18.2442 31.0723 18.0793 31.0723 17.8744V13.875H29.8888V15.1669C29.7885 15.1094 29.6693 15.0644 29.5324 15.0332C29.3955 15.002 29.2587 14.987 29.1194 14.987C28.1672 14.987 27.6904 15.5267 27.6904 16.6075ZM28.8999 16.6212C28.8999 16.3588 28.9424 16.1727 29.0262 16.0615C29.11 15.9503 29.2421 15.8953 29.4227 15.8953C29.6162 15.8953 29.7708 15.9515 29.8888 16.0615V17.1822C29.759 17.3109 29.6032 17.3759 29.4227 17.3759C29.2374 17.3759 29.1041 17.3171 29.0227 17.1997C28.9412 17.0797 28.8999 16.8873 28.8999 16.6212Z" fill="#414042"/>
<path d="M11.9609 18.2542H12.8082C12.9934 18.2542 13.1445 18.0943 13.1445 17.8981V15.0645H11.9609V18.2542Z" fill="#414042"/>
<path d="M12.5518 13.5127C12.2167 13.5127 11.9453 13.8001 11.9453 14.1549C11.9453 14.5097 12.2167 14.7971 12.5518 14.7971C12.887 14.7971 13.1584 14.5097 13.1584 14.1549C13.1584 13.8001 12.887 13.5127 12.5518 13.5127Z" fill="#414042"/>
<path d="M22.4881 15.0146H22.4609C21.616 15.0146 20.9316 15.7393 20.9316 16.6339V16.6626C20.9316 17.5572 21.616 18.2819 22.4609 18.2819H22.4881C23.3329 18.2819 24.0173 17.5572 24.0173 16.6626V16.6339C24.0185 15.7406 23.3329 15.0146 22.4881 15.0146ZM22.4751 17.2911C22.14 17.2911 21.8686 17.0037 21.8686 16.6489C21.8686 16.2941 22.14 16.0067 22.4751 16.0067C22.8102 16.0067 23.0816 16.2941 23.0816 16.6489C23.0816 17.0037 22.8102 17.2911 22.4751 17.2911Z" fill="#414042"/>
<path d="M6.25849 14.9532C7.34409 14.9457 8.12171 16.0052 7.82435 17.1209C7.73349 17.4632 7.59661 17.8031 7.42079 18.1054C7.13995 18.589 6.81663 19.0462 6.49685 19.5023C6.32339 19.7497 6.26793 19.7434 6.08621 19.5185C5.68029 19.0163 5.30151 18.4915 5.02303 17.898C4.88615 17.6057 4.76225 17.2946 4.69853 16.9772C4.48731 15.929 5.24723 14.9607 6.25849 14.9532ZM6.28563 18.7726C6.68447 18.2229 7.04083 17.7031 7.22609 17.0759C7.25087 16.991 7.26149 16.8998 7.26621 16.811C7.29217 16.3513 7.04791 15.9465 6.64553 15.774C6.24669 15.6029 5.80065 15.7141 5.51981 16.0651C5.25903 16.39 5.21301 16.7573 5.34871 17.1559C5.54813 17.7456 5.88561 18.2454 6.28563 18.7726Z" fill="#414042"/>
<path d="M6.26919 17.4236C5.94115 17.4199 5.67447 17.1425 5.67093 16.7989C5.66739 16.4441 5.94351 16.1555 6.28453 16.1592C6.61021 16.163 6.88043 16.4441 6.88633 16.7852C6.88987 17.1338 6.60667 17.4274 6.26919 17.4236Z" fill="#414042"/>
<path d="M5.05664 7.2734C5.05664 7.2734 8.04677 2.12832 14.7374 1.00384C14.7374 1.00384 18.1287 0.409124 20.4285 3.25404C20.4285 3.25404 16.9251 2.88296 14.1167 4.97698C14.1167 4.97698 12.9874 5.87781 12.4706 6.23014C12.4706 6.23139 9.25509 8.66399 5.05664 7.2734Z" fill="url(#paint0_linear_847_144327)"/>
<path d="M26.1574 0.00813134C23.7951 0.134322 21.6899 1.3525 20.4297 3.25536C21.0268 3.32408 21.6652 3.37281 22.2835 3.34407L22.3413 3.34157C22.6906 3.32283 23.0363 3.2891 23.375 3.23912C25.0152 3.00423 26.5445 2.417 27.8967 1.55991C27.7221 1.39873 27.5286 1.26255 27.3197 1.15385C26.9303 0.947693 26.4878 0.838992 26.0241 0.851486C26.0418 0.848987 26.0607 0.847737 26.0784 0.846487C26.5775 0.82025 27.0613 0.878972 27.518 1.01016C27.7811 1.08388 28.0348 1.18383 28.2767 1.30628L28.2991 1.31627C28.6165 1.15759 28.9658 1.06139 29.3375 1.04265C29.9983 1.00766 30.6178 1.22256 31.1134 1.60738C29.2207 0.0443667 26.9704 -0.0355982 26.1574 0.00813134ZM25.6087 0.895216C25.722 0.871478 25.8376 0.857733 25.9556 0.851486C25.9757 0.850237 25.9958 0.848986 26.0135 0.850236C25.8754 0.857732 25.7421 0.875226 25.6087 0.895216Z" fill="url(#paint1_linear_847_144327)"/>
<path d="M25.9795 0.928075C25.8426 0.93932 25.7093 0.960558 25.5771 0.984296C25.6892 0.956809 25.8049 0.940568 25.9217 0.930572C25.9418 0.929323 25.9618 0.926826 25.9795 0.928075Z" fill="url(#paint2_linear_847_144327)"/>
<path d="M26.0474 7.67973C26.0545 7.65349 25.8445 7.47733 25.8185 7.45234C25.7383 7.37487 25.658 7.29991 25.5754 7.22494C25.4208 7.08501 25.2615 6.94882 25.0987 6.81888C24.7931 6.574 24.4745 6.3466 24.1441 6.13795C23.4266 5.68566 22.6584 5.32708 21.8608 5.0697C21.3121 4.89229 20.7504 4.7511 20.1793 4.68988C15.6445 4.20011 13.3305 6.64022 10.9162 8.09703C6.08768 11.0119 0.928711 10.0724 0.928711 10.0724C4.77316 12.42 8.54916 11.0469 8.54916 11.0469C8.57276 11.0382 8.59636 11.0294 8.61996 11.0207C8.60816 11.0244 8.59754 11.0282 8.58456 11.0319C8.70256 10.9457 9.97343 9.6613 11.5605 8.94538C14.2498 7.73345 18.7361 7.02129 23.0065 11.3755C25.3583 10.1298 26.0474 7.67973 26.0474 7.67973Z" fill="url(#paint3_linear_847_144327)"/>
<path d="M23.0069 11.3765C18.7365 7.02352 14.2501 7.73443 11.5609 8.94636C9.97382 9.66228 8.70296 10.9467 8.58496 11.0329C8.59676 11.0291 8.60856 11.0254 8.62036 11.0216C9.31774 10.8005 9.86526 10.4656 10.4671 10.257C15.7877 8.41536 19.5625 12.1124 19.5625 12.1124C21.5166 12.2848 23.0081 11.3777 23.0069 11.3765C23.0081 11.3765 23.0069 11.3765 23.0069 11.3765Z" fill="url(#paint4_linear_847_144327)"/>
</svg>
