<svg fill="none" height="24" viewBox="0 0 25 24" width="25" xmlns="http://www.w3.org/2000/svg" xmlns:xlink="http://www.w3.org/1999/xlink"><clipPath id="a"><path d="m.5 0h24v24h-24z"/></clipPath><g clip-path="url(#a)"><circle cx="12.5" cy="12" fill="#eb6666" opacity=".15" r="10"/><g stroke="#eb6666" stroke-linecap="round" stroke-width="1.5"><path d="m14.4036 9.34698h2.8686v-2.86854" stroke-linejoin="round"/><path d="m17.5719 13.3568c-.2991 1.1164-.9582 2.1028-1.8751 2.8064-.9169.7035-2.0403 1.0848-3.196 1.0848s-2.2791-.3813-3.196-1.0848c-.91689-.7036-1.576-1.69-1.87512-2.8064-.29912-1.1163-.22152-2.3001.22075-3.36784.44226-1.06773 1.22449-1.95969 2.22536-2.53755 1.00091-.57785 2.16441-.8093 3.31031-.65845 1.1458.15085 2.2098.67557 3.027 1.49278"/></g></g></svg>