<svg width="14" height="14" viewBox="0 0 14 14" fill="none" xmlns="http://www.w3.org/2000/svg">
<circle cx="6.75" cy="6.75" r="6" stroke="#73768C" stroke-width="1.5"/>
<path d="M7.08901 9.83928C6.12901 9.83928 5.38801 9.58128 4.86601 9.06528C4.34401 8.54328 4.08301 7.82328 4.08301 6.90528C4.08301 5.93328 4.33501 5.18328 4.83901 4.65528C5.34901 4.12728 6.09601 3.86328 7.08001 3.86328C7.70401 3.86328 8.28001 3.95928 8.80801 4.15128V5.21328C8.29801 5.00328 7.75201 4.89828 7.17001 4.89828C6.51601 4.89828 6.04201 5.06328 5.74801 5.39328C5.46001 5.71728 5.31601 6.22128 5.31601 6.90528C5.31601 7.54728 5.46901 8.02728 5.77501 8.34528C6.08701 8.65728 6.55801 8.81328 7.18801 8.81328C7.77601 8.81328 8.31901 8.71128 8.81701 8.50728V9.57828C8.28301 9.75228 7.70701 9.83928 7.08901 9.83928Z" fill="#73768C"/>
</svg>
