<svg width="169" height="112" viewBox="0 0 169 112" fill="none" xmlns="http://www.w3.org/2000/svg">
    <defs>
        <radialGradient id="paint0_radial_3616_11921" cx="0" cy="0" r="1" gradientUnits="userSpaceOnUse" gradientTransform="translate(82.8653 93.4109) rotate(90.1215) scale(7.43557 82.7888)">
            <stop offset="0.41" stop-color="#C6C6C6" stop-opacity="0.59"/>
            <stop offset="1" stop-color="#9C9C9C" stop-opacity="0"/>
        </radialGradient>
        <linearGradient id="paint1_linear_3616_11921" x1="27.9572" y1="64.402" x2="14.4931" y2="77.5651" gradientUnits="userSpaceOnUse">
            <stop offset="0.0990896" stop-color="#717280"/>
            <stop offset="1" stop-color="#AEB0BF"/>
        </linearGradient>
        <linearGradient id="paint2_linear_3616_11921" x1="-0.829271" y1="62.0915" x2="21.2677" y2="58.4385" gradientUnits="userSpaceOnUse">
            <stop offset="0.131445" stop-color="#C4C5D0" stop-opacity="0"/>
            <stop offset="0.788734" stop-color="#DADAE1"/>
        </linearGradient>
        <linearGradient id="paint3_linear_3616_11921" x1="6.87586" y1="67.6851" x2="12.7939" y2="85.6353" gradientUnits="userSpaceOnUse">
            <stop offset="0.131445" stop-color="#C4C5D0" stop-opacity="0"/>
            <stop offset="0.921062" stop-color="#BDBECA"/>
        </linearGradient>
        <linearGradient id="paint4_linear_3616_11921" x1="63.7969" y1="53.2068" x2="63.7969" y2="80.681" gradientUnits="userSpaceOnUse">
            <stop offset="0.0725005" stop-color="#C4C5D0" stop-opacity="0"/>
            <stop offset="0.130518" stop-color="#DADAE1"/>
        </linearGradient>
        <linearGradient id="paint5_linear_3616_11921" x1="63.7969" y1="53.2078" x2="64.3511" y2="103.001" gradientUnits="userSpaceOnUse">
            <stop offset="0.157891" stop-color="white" stop-opacity="0"/>
            <stop offset="0.593395" stop-color="#B0B0BC"/>
        </linearGradient>
        <linearGradient id="paint6_linear_3616_11921" x1="94.4912" y1="64.4055" x2="80.9641" y2="77.7044" gradientUnits="userSpaceOnUse">
            <stop offset="0.0990896" stop-color="#717280"/>
            <stop offset="1" stop-color="#AEB0BF"/>
        </linearGradient>
        <linearGradient id="paint7_linear_3616_11921" x1="100.209" y1="77.6652" x2="102.156" y2="52.6677" gradientUnits="userSpaceOnUse">
            <stop stop-color="#D5D5E3"/>
            <stop offset="0.75806" stop-color="#FAFAFB"/>
        </linearGradient>
        <linearGradient id="paint8_linear_3616_11921" x1="116.433" y1="88.5233" x2="117.441" y2="61.6496" gradientUnits="userSpaceOnUse">
            <stop stop-color="#9191A5"/>
            <stop offset="0.563418" stop-color="#FAFAFA" stop-opacity="0"/>
        </linearGradient>
        <linearGradient id="paint9_linear_3616_11921" x1="135.218" y1="60.8576" x2="127.163" y2="47.1693" gradientUnits="userSpaceOnUse">
            <stop offset="0.138354" stop-color="#C4C5D0" stop-opacity="0"/>
            <stop offset="0.692475" stop-color="#A5A8B2"/>
        </linearGradient>
        <linearGradient id="paint10_linear_3616_11921" x1="163.851" y1="60.0064" x2="155.073" y2="52.8036" gradientUnits="userSpaceOnUse">
            <stop offset="0.085626" stop-color="#C4C7D0" stop-opacity="0"/>
            <stop offset="0.593954" stop-color="#A5A8B2"/>
        </linearGradient>
        <linearGradient id="paint11_linear_3616_11921" x1="36.3371" y1="53.7572" x2="24.5442" y2="65.8628" gradientUnits="userSpaceOnUse">
            <stop offset="0.129664" stop-color="#333B3F"/>
            <stop offset="0.726197" stop-color="white" stop-opacity="0.38"/>
        </linearGradient>
        <linearGradient id="paint12_linear_3616_11921" x1="29.3871" y1="59.6798" x2="38.3403" y2="59.7334" gradientUnits="userSpaceOnUse">
            <stop offset="0.129664" stop-color="#7D8184"/>
            <stop offset="0.726197" stop-color="white" stop-opacity="0.38"/>
        </linearGradient>
        <linearGradient id="paint13_linear_3616_11921" x1="58.1476" y1="53.7572" x2="46.3547" y2="65.8628" gradientUnits="userSpaceOnUse">
            <stop offset="0.129664" stop-color="#333B3F"/>
            <stop offset="0.726197" stop-color="white" stop-opacity="0.38"/>
        </linearGradient>
        <linearGradient id="paint14_linear_3616_11921" x1="51.1977" y1="59.6798" x2="60.1508" y2="59.7334" gradientUnits="userSpaceOnUse">
            <stop offset="0.129664" stop-color="#7D8184"/>
            <stop offset="0.726197" stop-color="white" stop-opacity="0.38"/>
        </linearGradient>
        <radialGradient id="paint15_radial_3616_11921" cx="0" cy="0" r="1" gradientUnits="userSpaceOnUse" gradientTransform="translate(102.212 44.651) rotate(124.743) scale(14.2818 116.722)">
            <stop offset="0.104127" stop-color="#303030" stop-opacity="0.27"/>
            <stop offset="0.629175" stop-color="#4D4E59"/>
        </radialGradient>
        <linearGradient id="paint16_linear_3616_11921" x1="81.9121" y1="87.1516" x2="25.7587" y2="43.4997" gradientUnits="userSpaceOnUse">
            <stop stop-color="#6F4EC3"/>
            <stop offset="1" stop-color="#C243AC"/>
        </linearGradient>
    </defs>
<path d="M86.25 101.5C131.66 101.5 168.5 98.192 168.5 94.1115C168.5 90.0311 131.674 86.7227 86.25 86.7227C40.8264 86.7227 4 90.0311 4 94.1115C4 98.192 40.823 101.5 86.25 101.5Z" fill="url(#paint0_radial_3616_11921)"/>
<path d="M76.145 90.9366C80.3492 90.9366 83.7582 84.1112 83.7582 75.6915C83.7582 67.2717 80.3492 60.4463 76.145 60.4463H66.3945V90.9366H76.145Z" fill="#2F3140"/>
<path d="M66.2909 90.9366C70.4864 90.9366 73.8876 84.1111 73.8876 75.6915C73.8876 67.2718 70.4864 60.4463 66.2909 60.4463C62.0955 60.4463 58.6943 67.2718 58.6943 75.6915C58.6943 84.1111 62.0955 90.9366 66.2909 90.9366Z" fill="#2F3140"/>
<path d="M144.409 90.4979C148.558 90.4979 151.918 83.7707 151.918 75.4721C151.918 67.1735 148.571 60.4463 144.409 60.4463H134.771V90.4979H144.409Z" fill="#2F3140"/>
<path d="M134.767 90.4979C138.903 90.4979 142.255 83.7706 142.255 75.4721C142.255 67.1736 138.903 60.4463 134.767 60.4463C130.632 60.4463 127.279 67.1736 127.279 75.4721C127.279 83.7706 130.632 90.4979 134.767 90.4979Z" fill="#2F3140"/>
<path d="M20.5814 87.2045L14.463 85.6805C13.4275 85.4248 12.46 84.9428 11.6287 84.2684C10.7975 83.5939 10.1226 82.7435 9.65175 81.777C9.23441 80.9243 8.65824 80.161 7.95482 79.5288L6.45082 78.176C5.5919 77.4031 4.92538 76.4364 4.50536 75.3545C4.08533 74.2725 3.92364 73.1057 4.03339 71.9487L4.8602 63.1948C4.99828 61.7269 5.56772 60.3344 6.49528 59.1963C7.42285 58.0582 8.66611 57.2265 10.0652 56.8084L14.4394 55.5032L30.2196 54.3652L20.5814 87.2045Z" fill="#F7F7F9"/>
<path d="M31.711 90.8269C35.8857 90.8269 39.2708 84.0261 39.2708 75.6366C39.2708 67.2471 35.8857 60.4463 31.711 60.4463H22.0156V90.8269H31.711Z" fill="#2F3140"/>
<path d="M21.9052 90.8269C26.1007 90.8269 29.5018 84.026 29.5018 75.6366C29.5018 67.2472 26.1007 60.4463 21.9052 60.4463C17.7097 60.4463 14.3086 67.2472 14.3086 75.6366C14.3086 84.026 17.7097 90.8269 21.9052 90.8269Z" fill="#2F3140"/>
<path d="M21.9055 87.6463C24.8424 87.6463 27.2231 82.2694 27.2231 75.6366C27.2231 69.0039 24.8424 63.627 21.9055 63.627C18.9687 63.627 16.5879 69.0039 16.5879 75.6366C16.5879 82.2694 18.9687 87.6463 21.9055 87.6463Z" fill="url(#paint1_linear_3616_11921)"/>
<path d="M113.068 87.2053L128.494 52.3646C128.494 52.3646 105.414 35 76.1294 35C28.6667 35 30.2966 41.466 14.4141 55.5041L21.3474 60.4461C33.6826 60.4461 34.7102 80.2062 36.7024 85.7649C36.8498 86.1862 37.1228 86.551 37.4838 86.8089C37.8449 87.0669 38.2761 87.2054 38.7183 87.2053H113.068Z" fill="#F7F7F9"/>
<path d="M16.5344 86.3851C15.4989 86.1294 12.46 84.9448 11.6287 84.2703C10.7975 83.5959 10.1226 82.7455 9.65175 81.779C9.23441 80.9263 8.65824 80.1629 7.95482 79.5308L6.45082 78.1779C5.5919 77.4051 4.92538 76.4384 4.50536 75.3564C4.08533 74.2745 3.92364 73.1076 4.03339 71.9507L4.8602 63.1967C4.99828 61.7289 5.56772 60.3364 6.49528 59.1983C7.42285 58.0601 8.66611 57.2285 10.0652 56.8103L12.302 56.1689L26.4643 60.7754C26.4643 60.7754 18.4878 57.3206 15.4492 67.6302C12.302 78.5431 16.5344 86.3851 16.5344 86.3851Z" fill="url(#paint2_linear_3616_11921)"/>
<path d="M16.5344 86.3851C15.4989 86.1294 12.46 84.9448 11.6287 84.2703C10.7975 83.5959 10.1226 82.7455 9.65175 81.779C9.23441 80.9263 8.65824 80.1629 7.95482 79.5308L6.45082 78.1779C5.5919 77.4051 4.92538 76.4384 4.50536 75.3564C4.08533 74.2745 3.92364 73.1076 4.03339 71.9507L4.8602 63.1967C4.99828 61.7289 5.56772 60.3364 6.49528 59.1983C7.42285 58.0601 8.66611 57.2285 10.0652 56.8103L12.302 56.1689L26.4643 60.7754C26.4643 60.7754 18.5421 57.3754 15.3949 67.7399C12.3563 77.9948 16.5344 86.3851 16.5344 86.3851Z" fill="url(#paint3_linear_3616_11921)"/>
<path d="M113.071 87.2057L95.7026 54.3584L14.4166 55.5045L12.3027 56.1681L21.35 60.4465C33.6852 60.4465 34.7128 80.2065 36.705 85.7653C36.8524 86.1866 37.1254 86.5513 37.4864 86.8093C37.8474 87.0673 38.2787 87.2058 38.7208 87.2057H113.071Z" fill="url(#paint4_linear_3616_11921)"/>
<path d="M113.071 87.2068L95.8654 54.6885L14.4166 55.5055L12.3027 56.1691L21.35 60.4476C33.6852 60.4476 34.7128 80.2076 36.705 85.7663C36.8524 86.1876 37.1254 86.5524 37.4864 86.8103C37.8474 87.0683 38.2787 87.2068 38.7208 87.2068H113.071Z" fill="url(#paint5_linear_3616_11921)"/>
<path d="M98.1933 90.9366C102.394 90.9366 105.797 84.1112 105.797 75.6915C105.797 67.2717 102.394 60.4463 98.1933 60.4463H88.4336V90.9366H98.1933Z" fill="#2F3140"/>
<path d="M88.3813 90.9366C92.6068 90.9366 96.0322 84.1111 96.0322 75.6915C96.0322 67.2718 92.6068 60.4463 88.3813 60.4463C84.1559 60.4463 80.7305 67.2718 80.7305 75.6915C80.7305 84.1111 84.1559 90.9366 88.3813 90.9366Z" fill="#2F3140"/>
<path d="M88.3777 87.756C91.3446 87.756 93.7496 82.3545 93.7496 75.6915C93.7496 69.0284 91.3446 63.627 88.3777 63.627C85.4109 63.627 83.0059 69.0284 83.0059 75.6915C83.0059 82.3545 85.4109 87.756 88.3777 87.756Z" fill="url(#paint6_linear_3616_11921)"/>
<path d="M101.349 84.4104C99.9274 77.8847 98.2627 60.4459 90.1166 60.4459L85.0703 52.3535H128.499C131.948 52.3535 147.268 54.4943 155.949 60.435C162.962 65.2338 163.824 72.5194 164.832 83.1634C165.04 85.336 163.158 87.2022 160.78 87.2062C140.819 87.2062 113.075 87.1793 104.279 87.2072C102.338 87.2271 101.731 86.1572 101.349 84.4104Z" fill="url(#paint7_linear_3616_11921)"/>
<path d="M101.349 84.4104C99.9274 77.8847 98.2627 60.4459 90.1166 60.4459L85.0703 52.3535H128.499C131.948 52.3535 147.268 54.4943 155.949 60.435C162.962 65.2338 163.824 72.5194 164.832 83.1634C165.04 85.336 163.158 87.2022 160.78 87.2062C140.819 87.2062 113.129 87.1793 104.333 87.2072C102.392 87.2271 101.731 86.1572 101.349 84.4104Z" fill="url(#paint8_linear_3616_11921)"/>
<path d="M127.564 60.6308L103.744 59.4609C103.744 59.4609 103.5 63.7265 112.327 64.6337C117.712 65.1325 123.101 63.7168 127.564 60.6308Z" fill="url(#paint9_linear_3616_11921)"/>
<path opacity="0.3" d="M4.85627 63.1915C4.92301 62.4921 5.08875 61.806 5.34842 61.1542L6.96266 61.1064C6.96266 61.1064 7.03747 67.3655 4.69878 66.9716C4.63352 66.9599 4.56908 66.944 4.50586 66.9238L4.85627 63.1915Z" fill="black"/>
<path d="M153.595 59.0137C154.399 59.4498 155.181 59.9266 155.938 60.4422C157.088 61.2222 158.139 62.1416 159.068 63.1798C158.735 63.2745 158.397 63.3516 158.056 63.4105C152.768 64.3297 148.926 59.3957 148.926 59.3957L153.595 59.0137Z" fill="url(#paint10_linear_3616_11921)"/>
<path d="M37.237 60.0088H30.4872L30.3147 60.3896C30.2611 60.4733 30.2464 60.5628 30.272 60.6502C30.2976 60.7376 30.3626 60.8203 30.4614 60.891C30.5601 60.9616 30.6896 61.0181 30.8383 61.0554C30.987 61.0927 31.1505 61.1096 31.3142 61.1047H35.3787C35.759 61.0951 36.1238 61.0207 36.4209 60.8922C36.7181 60.7637 36.9322 60.5878 37.0328 60.3896L37.237 60.0088Z" fill="url(#paint11_linear_3616_11921)"/>
<path d="M30.483 60.0088H37.2323L37.4706 59.628C37.525 59.5443 37.5399 59.4548 37.5139 59.3674C37.488 59.28 37.4219 59.1973 37.3216 59.1266C37.2213 59.0559 37.0898 58.9995 36.9388 58.9622C36.7877 58.9249 36.6218 58.908 36.4555 58.9128H32.3274C31.9412 58.9225 31.5707 58.9969 31.2689 59.1254C30.9672 59.2538 30.7496 59.4298 30.6475 59.628L30.483 60.0088Z" fill="url(#paint12_linear_3616_11921)"/>
<path d="M59.0476 60.0088H52.2977L52.1253 60.3896C52.0716 60.4733 52.057 60.5628 52.0825 60.6502C52.1081 60.7376 52.1732 60.8203 52.2719 60.891C52.3707 60.9616 52.5001 61.0181 52.6488 61.0554C52.7976 61.0927 52.961 61.1096 53.1247 61.1047H57.1893C57.5695 61.0951 57.9344 61.0207 58.2315 60.8922C58.5286 60.7637 58.7428 60.5878 58.8433 60.3896L59.0476 60.0088Z" fill="url(#paint13_linear_3616_11921)"/>
<path d="M52.2935 60.0088H59.0428L59.2811 59.628C59.3356 59.5443 59.3505 59.4548 59.3245 59.3674C59.2985 59.28 59.2325 59.1973 59.1322 59.1266C59.0319 59.0559 58.9004 58.9995 58.7493 58.9622C58.5983 58.9249 58.4323 58.908 58.266 58.9128H54.138C53.7518 58.9225 53.3812 58.9969 53.0795 59.1254C52.7777 59.2538 52.5602 59.4298 52.4581 59.628L52.2935 60.0088Z" fill="url(#paint14_linear_3616_11921)"/>
<path d="M130.862 53.9194C130.862 53.9194 105.414 35 76.1294 35C28.6667 35 30.2966 41.466 14.4141 55.5041L130.862 53.9194Z" fill="#FAFAFA"/>
<path opacity="0.8" d="M124.892 52.3641H92.414C91.6628 52.3671 90.9222 52.1841 90.2572 51.831C89.5921 51.4779 89.0227 50.9656 88.5989 50.3387C84.9846 44.9272 78.5866 39.444 73.8975 36.8457C106.734 36.8457 124.892 52.3641 124.892 52.3641Z" fill="url(#paint15_radial_3616_11921)"/>
<path d="M73.096 38.4743C77.0332 41.3551 81.5137 45.8196 84.0296 50.2563C84.1514 50.4679 84.2162 50.7081 84.2176 50.9529C84.2189 51.1978 84.1567 51.4387 84.0372 51.6516C83.9177 51.8646 83.7451 52.0422 83.5365 52.1667C83.3279 52.2912 83.0907 52.3583 82.8484 52.3612H29.6217C23.9758 52.3612 25.8499 38.148 55.3433 37.0816C58.1229 36.8389 64.6035 36.8309 68.1864 36.8468C69.9513 36.8552 71.669 37.4246 73.096 38.4743Z" fill="#2F3140"/>
<path d="M151.872 67.8019C152.207 67.9105 152.636 68.2366 152.85 68.3992C153.064 68.5618 153.664 69.0573 153.718 69.2767C153.827 69.5509 153.832 69.9921 153.393 70.7026C153.291 70.8671 151.95 72.5476 151.71 72.6769C151.432 72.8271 151.33 73.1705 150.191 73.3351L142.864 74.0412L133.808 73.4927C133.26 73.4927 132.741 73.4166 132.282 73.2831C131.823 73.1496 131.451 72.9601 131.204 72.7349L127.831 69.6539C127.587 69.444 127.477 69.2056 127.515 68.9673C127.553 68.729 127.736 68.5009 128.044 68.3102L128.888 67.8019C129.128 67.6597 129.433 67.545 129.782 67.4669C129.782 67.4669 150.424 67.0774 151.872 67.8019Z" fill="#575965"/>
<path opacity="0.8" fill-rule="evenodd" clip-rule="evenodd" d="M41.9221 66.3742C39.0369 67.2619 35.3545 69.0698 32.7521 70.6446L34.0001 74.4284L35.3566 80.1865L36.3333 84.3542L36.8217 86.0542L37.2558 86.6575L38.124 87.151H39.1004C39.1002 87.1512 39.1 87.1514 39.0998 87.1516L53.045 87.1515C53.045 87.1515 62.5074 77.4475 81.9121 83.8612C81.5052 82.2983 81.5052 82.2846 81.5051 82.2709C81.5051 82.2576 81.5051 82.2444 81.1393 80.8385C81.144 80.8405 81.1487 80.8426 81.1533 80.8446L80.8278 78.3768L80.7192 76.4575C78.9813 75.4506 77.3012 74.3296 75.5964 73.192C68.6718 68.5715 61.339 63.6785 48.0604 65.0571C45.9672 65.2576 43.9305 65.7443 41.9221 66.3742Z" fill="url(#paint16_linear_3616_11921)"/>
</svg>
