<svg width="236" height="191" viewBox="0 0 236 191" fill="none" xmlns="http://www.w3.org/2000/svg">
<defs>
<filter id="filter0_d_3828_5539" x="0.25" y="0.5" width="205.47" height="190.084" filterUnits="userSpaceOnUse" color-interpolation-filters="sRGB">
<feFlood flood-opacity="0" result="BackgroundImageFix"/>
<feColorMatrix in="SourceAlpha" type="matrix" values="0 0 0 0 0 0 0 0 0 0 0 0 0 0 0 0 0 0 127 0" result="hardAlpha"/>
<feOffset dx="3" dy="4"/>
<feGaussianBlur stdDeviation="15"/>
<feColorMatrix type="matrix" values="0 0 0 0 0.635294 0 0 0 0 0.560784 0 0 0 0 0.639216 0 0 0 0.2 0"/>
<feBlend mode="normal" in2="BackgroundImageFix" result="effect1_dropShadow_3828_5539"/>
<feBlend mode="normal" in="SourceGraphic" in2="effect1_dropShadow_3828_5539" result="shape"/>
</filter>
<linearGradient id="paint0_linear_3828_5539" x1="-143.806" y1="155.91" x2="-115.737" y2="-18.789" gradientUnits="userSpaceOnUse">
<stop stop-color="#F5F4CA"/>
<stop offset="1" stop-color="white" stop-opacity="0"/>
</linearGradient>
<linearGradient id="paint1_linear_3828_5539" x1="186.708" y1="180.364" x2="206.291" y2="106.23" gradientUnits="userSpaceOnUse">
<stop stop-color="#A474A8"/>
<stop offset="1" stop-color="white" stop-opacity="0"/>
</linearGradient>
<linearGradient id="paint2_linear_3828_5539" x1="176.653" y1="132.677" x2="196.685" y2="137.146" gradientUnits="userSpaceOnUse">
<stop stop-color="#CF1E9E"/>
<stop offset="1" stop-color="#7F50B2"/>
</linearGradient>
<linearGradient id="paint3_linear_3828_5539" x1="84.0498" y1="145.676" x2="201.757" y2="39.6391" gradientUnits="userSpaceOnUse">
<stop stop-color="#CF1E9E"/>
<stop offset="1" stop-color="#7F50B2"/>
</linearGradient>
<linearGradient id="paint4_linear_3828_5539" x1="132.298" y1="160.81" x2="205.476" y2="25.0601" gradientUnits="userSpaceOnUse">
<stop stop-color="#D1145A" stop-opacity="0.37"/>
<stop offset="1" stop-color="white" stop-opacity="0"/>
</linearGradient>
<linearGradient id="paint5_linear_3828_5539" x1="136.661" y1="116.151" x2="146.293" y2="107.474" gradientUnits="userSpaceOnUse">
<stop stop-color="#CF1E9E"/>
<stop offset="1" stop-color="#7F50B2"/>
</linearGradient>
<linearGradient id="paint6_linear_3828_5539" x1="126.563" y1="104.218" x2="164.517" y2="78.1671" gradientUnits="userSpaceOnUse">
<stop stop-color="#CF1E9E"/>
<stop offset="1" stop-color="#7F50B2"/>
</linearGradient>
</defs>
<g filter="url(#filter0_d_3828_5539)">
<path d="M163.542 125.891C181.804 103.172 173.159 46.7501 134.491 46.7501C124.937 30.0547 86.0678 16.9679 56.0427 35.646C14.8393 61.2781 18.9059 130.573 61.5387 146.466C111.308 165.021 137.738 157.992 163.542 125.891Z" fill="white"/>
<path d="M163.542 125.891C181.804 103.172 173.159 46.7501 134.491 46.7501C124.937 30.0547 86.0678 16.9679 56.0427 35.646C14.8393 61.2781 18.9059 130.573 61.5387 146.466C111.308 165.021 137.738 157.992 163.542 125.891Z" fill="url(#paint0_linear_3828_5539)"/>
</g>
<path d="M183.193 125.084C186.806 120.89 193.135 120.42 197.328 124.034L227.419 149.964C231.612 153.577 232.082 159.906 228.468 164.099C224.855 168.292 218.527 168.762 214.334 165.149L184.243 139.218C180.05 135.605 179.58 129.277 183.193 125.084Z" fill="#F7F7F7"/>
<path d="M183.193 125.084C186.806 120.89 193.135 120.42 197.328 124.034L227.419 149.964C231.612 153.577 232.082 159.906 228.468 164.099C224.855 168.292 218.527 168.762 214.334 165.149L184.243 139.218C180.05 135.605 179.58 129.277 183.193 125.084Z" fill="url(#paint1_linear_3828_5539)"/>
<path d="M190.102 117.07L197.886 123.778C197.886 123.778 196.488 128.423 192.822 132.677C188.778 137.369 184.437 139.385 184.437 139.385L176.653 132.677L190.102 117.07Z" fill="url(#paint2_linear_3828_5539)"/>
<path fill-rule="evenodd" clip-rule="evenodd" d="M140.138 145.676C171.115 145.676 196.226 120.565 196.226 89.5882C196.226 58.6115 171.115 33.5 140.138 33.5C109.161 33.5 84.0498 58.6115 84.0498 89.5882C84.0498 120.565 109.161 145.676 140.138 145.676ZM140.14 130.041C162.48 130.041 180.591 111.931 180.591 89.5899C180.591 67.2491 162.48 49.1384 140.14 49.1384C117.799 49.1384 99.6881 67.2491 99.6881 89.5899C99.6881 111.931 117.799 130.041 140.14 130.041Z" fill="url(#paint3_linear_3828_5539)"/>
<path fill-rule="evenodd" clip-rule="evenodd" d="M143.967 143.223C174.944 143.223 200.055 118.112 200.055 87.1351C200.055 56.1584 174.944 31.0469 143.967 31.0469C112.99 31.0469 87.8789 56.1584 87.8789 87.1351C87.8789 118.112 112.99 143.223 143.967 143.223ZM143.969 127.588C166.309 127.588 184.42 109.478 184.42 87.1368C184.42 64.7961 166.309 46.6853 143.969 46.6853C121.628 46.6853 103.517 64.7961 103.517 87.1368C103.517 109.478 121.628 127.588 143.969 127.588Z" fill="#FFFBD5"/>
<path fill-rule="evenodd" clip-rule="evenodd" d="M143.967 143.223C174.944 143.223 200.055 118.112 200.055 87.1351C200.055 56.1584 174.944 31.0469 143.967 31.0469C112.99 31.0469 87.8789 56.1584 87.8789 87.1351C87.8789 118.112 112.99 143.223 143.967 143.223ZM143.969 127.588C166.309 127.588 184.42 109.478 184.42 87.1368C184.42 64.7961 166.309 46.6853 143.969 46.6853C121.628 46.6853 103.517 64.7961 103.517 87.1368C103.517 109.478 121.628 127.588 143.969 127.588Z" fill="url(#paint4_linear_3828_5539)"/>
<path d="M141.251 116.151C143.786 116.151 145.84 114.096 145.84 111.561C145.84 109.027 143.786 106.972 141.251 106.972C138.716 106.972 136.661 109.027 136.661 111.561C136.661 114.096 138.716 116.151 141.251 116.151Z" fill="url(#paint5_linear_3828_5539)"/>
<path d="M141.249 65.665C133.151 65.665 126.562 72.2536 126.562 80.3519C126.562 82.3798 128.206 84.0236 130.234 84.0236C132.262 84.0236 133.906 82.3798 133.906 80.3519C133.906 76.3027 137.2 73.0085 141.249 73.0085C145.299 73.0085 148.593 76.3027 148.593 80.3519C148.593 84.401 145.299 87.6953 141.249 87.6953C139.221 87.6953 137.578 89.3391 137.578 91.367V100.546C137.578 102.574 139.221 104.218 141.249 104.218C143.277 104.218 144.921 102.574 144.921 100.546V94.5741C151.249 92.9396 155.936 87.1829 155.936 80.3519C155.936 72.2536 149.348 65.665 141.249 65.665Z" fill="url(#paint6_linear_3828_5539)"/>
</svg>
