<svg width="14" height="14" viewBox="0 0 14 14" fill="none" xmlns="http://www.w3.org/2000/svg">
<path fill-rule="evenodd" clip-rule="evenodd" d="M6.3335 1.66634C3.75617 1.66634 1.66683 3.75568 1.66683 6.33301C1.66683 8.91034 3.75617 10.9997 6.3335 10.9997C7.58978 10.9997 8.73012 10.5033 9.56906 9.69589C9.58722 9.67199 9.60721 9.64904 9.62902 9.62723C9.65078 9.60547 9.67366 9.58553 9.69749 9.56741C10.5042 8.72858 11.0002 7.58871 11.0002 6.33301C11.0002 3.75568 8.91083 1.66634 6.3335 1.66634ZM11.022 10.0774C11.8427 9.05107 12.3335 7.74935 12.3335 6.33301C12.3335 3.0193 9.6472 0.333008 6.3335 0.333008C3.01979 0.333008 0.333496 3.0193 0.333496 6.33301C0.333496 9.64672 3.01979 12.333 6.3335 12.333C7.7505 12.333 9.05278 11.8418 10.0793 11.0204L12.529 13.47C12.7894 13.7304 13.2115 13.7304 13.4718 13.47C13.7322 13.2097 13.7322 12.7876 13.4718 12.5272L11.022 10.0774Z" fill="#73768C"/>
</svg>
