<svg width="14" height="21" viewBox="0 0 14 21" fill="none" xmlns="http://www.w3.org/2000/svg">
<path d="M0.500008 19V19.002C0.499654 19.0901 0.522591 19.1767 0.566493 19.2531C0.610394 19.3295 0.673701 19.3929 0.750004 19.437L0.500008 19.87L0.750008 19.437C0.826016 19.4809 0.912238 19.504 1.00001 19.504C1.08767 19.504 1.1738 19.4809 1.24974 19.4371L0.500008 19ZM0.500008 19V3C0.500008 2.33696 0.7634 1.70107 1.23224 1.23223C1.70108 0.763392 2.33697 0.5 3.00001 0.5H11C11.663 0.5 12.2989 0.763392 12.7678 1.23223C13.2366 1.70107 13.5 2.33696 13.5 3L13.5 19L13.5 19.002C13.5004 19.0901 13.4774 19.1767 13.4335 19.2531C13.3899 19.329 13.3272 19.392 13.2517 19.436C13.1759 19.4786 13.0904 19.5006 13.0035 19.5V19.5L12.9966 19.5C12.9096 19.5006 12.824 19.4785 12.7482 19.4359C12.7476 19.4356 12.7471 19.4353 12.7466 19.435L7.25028 16.2571L7.00001 16.1124L6.74974 16.2571L1.25001 19.437L0.500008 19ZM11.7499 17.7029L12.5 18.1363V17.27V3C12.5 2.60218 12.342 2.22065 12.0607 1.93934C11.7794 1.65804 11.3978 1.5 11 1.5H3.00001C2.60218 1.5 2.22065 1.65804 1.93935 1.93934C1.65804 2.22064 1.50001 2.60217 1.50001 3V17.27V18.1363L2.25015 17.7029L6.75001 15.103C6.75005 15.103 6.7501 15.103 6.75015 15.1029C6.82612 15.0591 6.91229 15.036 7.00001 15.036C7.08773 15.036 7.1739 15.0591 7.24987 15.1029C7.24992 15.103 7.24996 15.103 7.25001 15.103L11.7499 17.7029Z" fill="#73768C" stroke="#73768C"/>
</svg>
