<svg width="24" height="24" viewBox="0 0 24 24" fill="none" xmlns="http://www.w3.org/2000/svg">
<path d="M5.64371 9.39375C5.51951 9.52704 5.45189 9.70333 5.45511 9.88549C5.45832 10.0676 5.53212 10.2414 5.66094 10.3703C5.78977 10.4991 5.96356 10.5729 6.14572 10.5761C6.32788 10.5793 6.50417 10.5117 6.63746 10.3875L8.24996 8.775L8.24996 16.9219C8.24996 17.1084 8.32404 17.2872 8.4559 17.4191C8.58776 17.5509 8.76661 17.625 8.95309 17.625C9.13957 17.625 9.31841 17.5509 9.45027 17.4191C9.58213 17.2872 9.65621 17.1084 9.65621 16.9219L9.65621 8.775L11.2687 10.3875C11.402 10.5117 11.5783 10.5793 11.7605 10.5761C11.9426 10.5729 12.1164 10.4991 12.2452 10.3703C12.3741 10.2414 12.4478 10.0676 12.4511 9.88549C12.4543 9.70333 12.3867 9.52704 12.2625 9.39375L9.44996 6.58125C9.31812 6.44958 9.13941 6.37562 8.95309 6.37562C8.76676 6.37562 8.58805 6.44958 8.45621 6.58125L5.64371 9.39375V9.39375ZM11.7375 14.6062C11.6684 14.5419 11.613 14.4643 11.5745 14.378C11.5361 14.2918 11.5154 14.1986 11.5138 14.1042C11.5121 14.0098 11.5295 13.9161 11.5648 13.8285C11.6002 13.741 11.6528 13.6614 11.7196 13.5947C11.7864 13.5279 11.8659 13.4752 11.9535 13.4399C12.041 13.4045 12.1348 13.3872 12.2292 13.3888C12.3236 13.3905 12.4167 13.4112 12.503 13.4496C12.5892 13.488 12.6668 13.5434 12.7312 13.6125L14.3437 15.225L14.3437 7.07812C14.3437 6.89164 14.4178 6.7128 14.5497 6.58094C14.6815 6.44908 14.8604 6.375 15.0468 6.375C15.2333 6.375 15.4122 6.44908 15.544 6.58094C15.6759 6.7128 15.75 6.89164 15.75 7.07812L15.75 15.225L17.3625 13.6125C17.4957 13.4883 17.672 13.4207 17.8542 13.4239C18.0364 13.4271 18.2102 13.5009 18.339 13.6297C18.4678 13.7586 18.5416 13.9324 18.5448 14.1145C18.548 14.2967 18.4804 14.473 18.3562 14.6063L15.5437 17.4188C15.4119 17.5504 15.2332 17.6244 15.0468 17.6244C14.8605 17.6244 14.6818 17.5504 14.55 17.4188L11.7375 14.6062V14.6062Z" fill="#A33AA3"/>
</svg>
