<svg width="34" height="32" viewBox="0 0 34 32" fill="none" xmlns="http://www.w3.org/2000/svg">
<path d="M33.6665 12.1164C33.5612 11.8116 33.3698 11.5438 33.1154 11.3456C32.8609 11.1474 32.5545 11.0272 32.2331 10.9998L22.7498 9.61642L18.4998 0.999754C18.3633 0.717969 18.1502 0.480324 17.8849 0.314043C17.6197 0.147762 17.3129 0.0595703 16.9998 0.0595703C16.6867 0.0595703 16.3799 0.147762 16.1147 0.314043C15.8494 0.480324 15.6363 0.717969 15.4998 0.999754L11.2498 9.59975L1.76647 10.9998C1.458 11.0436 1.16801 11.173 0.929383 11.3734C0.69076 11.5737 0.513066 11.8369 0.416466 12.1331C0.328041 12.4225 0.320106 12.7306 0.393513 13.0242C0.466919 13.3179 0.618896 13.586 0.833133 13.7998L7.71647 20.4664L6.0498 29.9331C5.9903 30.2456 6.02146 30.5685 6.13959 30.8638C6.25772 31.1592 6.45789 31.4145 6.71647 31.5998C6.9685 31.7799 7.26576 31.8863 7.57488 31.9069C7.884 31.9275 8.19275 31.8615 8.46647 31.7164L16.9998 27.2664L25.4998 31.7331C25.7337 31.865 25.9979 31.934 26.2665 31.9331C26.6195 31.9343 26.9638 31.8235 27.2498 31.6164C27.5084 31.4312 27.7085 31.1758 27.8267 30.8805C27.9448 30.5852 27.976 30.2622 27.9165 29.9498L26.2498 20.4831L33.1331 13.8164C33.3738 13.6126 33.5516 13.3446 33.646 13.0437C33.7404 12.7427 33.7475 12.4212 33.6665 12.1164Z" fill="#EFF0F4"/>
</svg>
