<svg fill="none" height="20" viewBox="0 0 21 20" width="21" xmlns="http://www.w3.org/2000/svg"><path d="m18.8393 7.32013-14.00003-7.000002c-.55251-.2749906-1.17638-.3728892-1.78656-.280348-.61019.092541-1.17698.371018-1.62311.797464-.446126.426446-.749876.980106-.869836 1.585496s-.050292 1.23304.199507 1.79739l2.399999 5.37c.05446.12983.0825.26921.0825.40997 0 .1408-.02804.2802-.0825.41l-2.399999 5.37c-.2033.4567-.289244.957-.250023 1.4554s.202365.979.474605 1.3983c.272237.4193.644947.7639 1.084237 1.0025.4393.2387.93126.3637 1.43118.3638.46823-.0046.92949-.114 1.35-.32l14.00003-7c.4966-.2498.914-.6327 1.2057-1.1059.2916-.4732.4461-1.0182.4461-1.5741 0-.55586-.1545-1.10082-.4461-1.57405-.2917-.47323-.7091-.85611-1.2057-1.10592zm-.89 3.56997-14.00003 7c-.18384.0883-.39027.1183-.59161.0859-.20135-.0324-.38798-.1256-.53488-.267-.14689-.1415-.24703-.3245-.28698-.5244-.03995-.2-.0178-.4074.06347-.5945l2.39-5.37c.03094-.0717.05765-.1451.08-.22h6.89003c.2652 0 .5195-.1053.7071-.2929.1875-.1875.2929-.4419.2929-.7071 0-.26519-.1054-.51954-.2929-.70708-.1876-.18753-.4419-.29289-.7071-.29289h-6.89003c-.02235-.07483-.04906-.14829-.08-.22l-2.39-5.37c-.08127-.18704-.10342-.39445-.06347-.59443s.14009-.38297.28698-.52442c.1469-.14146.33353-.23462.53488-.267.20134-.03238.40777-.00242.59161.08585l14.00003 7c.1638.08392.3012.21141.3972.36844.096.15704.1468.33751.1468.52153 0 .1841-.0508.3646-.1468.5216s-.2334.2845-.3972.3684z" fill="#a33aa3"/></svg>