<svg width="37" height="53" viewBox="0 0 37 53" fill="none" xmlns="http://www.w3.org/2000/svg">
    <defs>
        <linearGradient id="paint0_linear_3556_219714" x1="0.380753" y1="8.97499" x2="42.5401" y2="-8.1687" gradientUnits="userSpaceOnUse">
            <stop stop-color="#AD6BC5" stop-opacity="0.9603"/>
            <stop offset="1" stop-color="#E80088" stop-opacity="0"/>
        </linearGradient>
        <linearGradient id="paint1_linear_3556_219714" x1="0.380753" y1="58.3809" x2="42.54" y2="41.2372" gradientUnits="userSpaceOnUse">
            <stop stop-color="#AD6BC5" stop-opacity="0.9603"/>
            <stop offset="1" stop-color="#E80088" stop-opacity="0"/>
        </linearGradient>
        <linearGradient id="paint2_linear_3556_219714" x1="-5.83777" y1="36.1595" x2="51.0776" y2="13.0154" gradientUnits="userSpaceOnUse">
            <stop stop-color="#D1145A" stop-opacity="0.37"/>
            <stop offset="1" stop-color="white" stop-opacity="0"/>
        </linearGradient>
        <linearGradient id="paint3_linear_3556_219714" x1="9.02627" y1="52.8347" x2="33.0198" y2="43.078" gradientUnits="userSpaceOnUse">
            <stop stop-color="#AD6BC5" stop-opacity="0.9603"/>
            <stop offset="1" stop-color="#E80088" stop-opacity="0"/>
        </linearGradient>
        <linearGradient id="paint4_linear_3556_219714" x1="23.6143" y1="18.8479" x2="18.2388" y2="42.2125" gradientUnits="userSpaceOnUse">
            <stop stop-color="white" stop-opacity="0.9603"/>
            <stop offset="1" stop-color="#FBE8EF" stop-opacity="0"/>
        </linearGradient>
        <linearGradient id="paint5_linear_3556_219714" x1="7.48143" y1="19.253" x2="35.9017" y2="7.69614" gradientUnits="userSpaceOnUse">
            <stop stop-color="#AD6BC5" stop-opacity="0.9603"/>
            <stop offset="1" stop-color="#E80088" stop-opacity="0"/>
        </linearGradient>
        <clipPath id="clip0_3556_219714">
            <rect width="36.2819" height="53" fill="white"/>
        </clipPath>
    </defs>
<g clip-path="url(#clip0_3556_219714)">
<path d="M2.74894 3.55273V5.61599C2.7395 5.91242 2.73242 6.2112 2.73242 6.50999C2.73242 6.81112 2.7395 7.10756 2.74894 7.40399V7.45104C3.04627 16.4922 7.57709 24.0371 13.722 26.5238C13.9415 26.6132 13.9415 26.919 13.722 27.0084C7.36706 29.5822 2.73242 37.567 2.73242 47.0246C2.73242 47.2622 2.7395 47.4975 2.74658 47.7327H2.74422V49.3819H33.5372V47.7327H33.5231C33.5278 47.4975 33.5372 47.2622 33.5372 47.0246C33.5372 37.567 28.9026 29.5822 22.5476 27.0084C22.3282 26.919 22.3282 26.6132 22.5476 26.5238C28.6902 24.0371 33.2234 16.4922 33.5207 7.45104H33.5372V3.55273H2.74894Z" fill="white"/>
<path d="M34.5498 3.59246H1.73209C0.774013 3.59246 0 2.8208 0 1.86799V1.72683C0 0.771662 0.774013 0 1.73209 0H34.5521C35.5079 0 36.2842 0.771662 36.2842 1.72683V1.86799C36.2819 2.8208 35.5079 3.59246 34.5498 3.59246Z" fill="url(#paint0_linear_3556_219714)"/>
<path d="M34.5498 53.0001H1.73209C0.776373 53.0001 0 52.2284 0 51.2733V51.1321C0 50.1793 0.774013 49.4053 1.73209 49.4053H34.5521C35.5079 49.4053 36.2842 50.1769 36.2842 51.1321V51.2733C36.2819 52.2261 35.5079 53.0001 34.5498 53.0001Z" fill="url(#paint1_linear_3556_219714)"/>
<path d="M2.74894 3.55273V5.61599C2.7395 5.91242 2.73242 6.2112 2.73242 6.50999C2.73242 6.81112 2.7395 7.10756 2.74894 7.40399V7.45104C3.04627 16.4922 7.57709 24.0371 13.722 26.5238C13.9415 26.6132 13.9415 26.919 13.722 27.0084C7.36706 29.5822 2.73242 37.567 2.73242 47.0246C2.73242 47.2622 2.7395 47.4975 2.74658 47.7327H2.74422V49.3819H33.5372V47.7327H33.5231C33.5278 47.4975 33.5372 47.2622 33.5372 47.0246C33.5372 37.567 28.9026 29.5822 22.5476 27.0084C22.3282 26.919 22.3282 26.6132 22.5476 26.5238C28.6902 24.0371 33.2234 16.4922 33.5207 7.45104H33.5372V3.55273H2.74894Z" fill="url(#paint2_linear_3556_219714)"/>
<path d="M8.96484 49.3626C10.1683 49.0356 10.9329 47.1276 13.1204 46.2548C15.308 45.3819 17.9344 46.0901 18.9185 45.6007C19.9025 45.109 22.7461 44.5091 25.4811 46.4194C28.2161 48.3298 29.0349 49.3085 29.8019 49.3649H8.96484V49.3626Z" fill="url(#paint3_linear_3556_219714)"/>
<path d="M30.0308 42.6198C29.6131 36.7924 26.6964 32.0871 22.5668 30.1109C19.7562 27.8524 18.1351 26.0173 22.7154 22.9307C27.8244 19.4888 13.8709 22.8836 13.8709 22.8836C15.8744 24.1846 18.5008 26.6032 14.1541 30.1297C9.68227 32.4659 6.38564 38.3592 6.14258 43.3162C9.71059 42.9422 14.9069 42.6669 18.128 43.8126C21.5285 45.0195 26.0805 44.5114 30.019 43.128C30.0261 42.9586 30.0426 42.7892 30.0308 42.6198Z" fill="url(#paint4_linear_3556_219714)"/>
<path d="M18.1299 9.36602C14.9088 10.5094 9.71254 10.2341 6.14453 9.86243C6.45602 16.2004 11.7656 24.0747 18.1347 24.0747C24.5037 24.0747 29.4782 18.306 30.0328 10.5565C30.0446 10.3871 30.028 10.2177 30.021 10.0483C26.0825 8.66729 21.5304 8.15677 18.1299 9.36602Z" fill="url(#paint5_linear_3556_219714)"/>
</g>
</svg>
