<svg width="14" height="14" viewBox="0 0 14 14" fill="none" xmlns="http://www.w3.org/2000/svg">
<path fill-rule="evenodd" clip-rule="evenodd" d="M6.82055 3.49967C6.75016 3.49967 6.6931 3.56235 6.6931 3.63967V4.26397H5.29379C5.2234 4.26397 5.16634 4.32665 5.16634 4.40397V9.59538C5.16634 9.6727 5.2234 9.73538 5.29379 9.73538H6.6931V10.3597C6.6931 10.437 6.75016 10.4997 6.82055 10.4997H7.3601C7.43049 10.4997 7.48755 10.437 7.48755 10.3597V9.73538H7.85253C8.14933 9.73538 8.42432 9.67377 8.67562 9.54856C8.92872 9.42247 9.13196 9.23835 9.27828 8.9932C9.42785 8.74658 9.49967 8.46429 9.49967 8.14724C9.49967 7.79014 9.41945 7.48705 9.24672 7.25176C9.13145 7.09474 8.98003 6.9748 8.79676 6.88901C8.90963 6.80241 9.0086 6.69681 9.09142 6.57111C9.238 6.34867 9.31119 6.08922 9.31119 5.79401C9.31119 5.30894 9.17724 4.91872 8.89196 4.65068C8.61083 4.38654 8.21384 4.26397 7.72059 4.26397H7.48755V3.63967C7.48755 3.56235 7.43049 3.49967 7.3601 3.49967H6.82055ZM6.03148 6.55239V5.03562H6.6931V6.55239H6.03148ZM7.48755 6.55239V5.03562H7.61221C7.94053 5.03562 8.14837 5.10591 8.26477 5.2146C8.37515 5.31766 8.44605 5.5034 8.44605 5.80965C8.44605 6.0673 8.37687 6.24576 8.25787 6.3621C8.13615 6.4811 7.94726 6.55239 7.67347 6.55239H7.48755ZM6.03148 8.96596V7.32181H6.6931V8.96596H6.03148ZM7.48755 8.96596V7.32181H7.63577C8.01153 7.32181 8.26208 7.39437 8.41392 7.5142C8.55091 7.62408 8.63454 7.81662 8.63454 8.13159C8.63454 8.46212 8.55316 8.66119 8.42262 8.77163C8.27755 8.89455 8.05108 8.96596 7.72059 8.96596H7.48755Z" fill="#A33AA3"/>
<path fill-rule="evenodd" clip-rule="evenodd" d="M13.6663 6.99967C13.6663 10.6816 10.6816 13.6663 6.99967 13.6663C3.31778 13.6663 0.333008 10.6816 0.333008 6.99967C0.333008 3.31778 3.31778 0.333008 6.99967 0.333008C10.6816 0.333008 13.6663 3.31778 13.6663 6.99967ZM12.333 6.99967C12.333 9.94519 9.94519 12.333 6.99967 12.333C4.05416 12.333 1.66634 9.94519 1.66634 6.99967C1.66634 4.05416 4.05416 1.66634 6.99967 1.66634C9.94519 1.66634 12.333 4.05416 12.333 6.99967Z" fill="#A33AA3"/>
</svg>
