<svg width="12" height="16" viewBox="0 0 12 16" fill="none" xmlns="http://www.w3.org/2000/svg">
<path d="M5.49218 7.89247C5.74871 7.58272 6.25129 7.58272 6.50782 7.89247L11.8658 14.3618C12.1902 14.7535 11.8898 15.3208 11.358 15.3208H0.642044C0.11023 15.3208 -0.190183 14.7535 0.13422 14.3618L5.49218 7.89247Z" fill="#EEBCBC"/>
<path d="M5.51453 5.22427C5.77009 4.94998 6.22787 4.94998 6.48343 5.22427L11.7407 10.8667C12.1001 11.2525 11.8053 11.8523 11.2562 11.8523H0.741716C0.192654 11.8523 -0.102177 11.2525 0.257268 10.8667L5.51453 5.22427Z" fill="#EB9494"/>
<path d="M5.49218 0.552626C5.74871 0.242875 6.25129 0.242875 6.50782 0.552626L11.8658 7.02195C12.1902 7.41364 11.8898 7.98097 11.358 7.98097H0.642044C0.11023 7.98097 -0.190183 7.41365 0.13422 7.02195L5.49218 0.552626Z" fill="#EB6666"/>
</svg>
